Workaround SemiRound Semibold Italic.ufo
<glyph name="Exclamation_Mark" format="1">
  <advance width="307"/>
  <unicode hex="0021"/>
  <outline>
    <contour>
      <point x="198" y="111" type="line" smooth="yes"/>
      <point x="202" y="144"/>
      <point x="163" y="170"/>
      <point x="110" y="170" type="curve" smooth="yes"/>
      <point x="58" y="170"/>
      <point x="12" y="144"/>
      <point x="8" y="111" type="curve" smooth="yes"/>
      <point x="0" y="54" type="line" smooth="yes"/>
      <point x="-4" y="21"/>
      <point x="35" y="-5"/>
      <point x="88" y="-5" type="curve" smooth="yes"/>
      <point x="140" y="-5"/>
      <point x="186" y="21"/>
      <point x="190" y="54" type="curve" smooth="yes"/>
    </contour>
    <contour>
      <point x="306" y="946" type="line" smooth="yes"/>
      <point x="310" y="979"/>
      <point x="271" y="1005"/>
      <point x="219" y="1005" type="curve" smooth="yes"/>
      <point x="166" y="1005"/>
      <point x="120" y="979"/>
      <point x="116" y="946" type="curve" smooth="yes"/>
      <point x="41" y="370" type="line" smooth="yes"/>
      <point x="37" y="337"/>
      <point x="76" y="310"/>
      <point x="129" y="310" type="curve" smooth="yes"/>
      <point x="181" y="310"/>
      <point x="227" y="337"/>
      <point x="231" y="370" type="curve" smooth="yes"/>
    </contour>
  </outline>
</glyph>
<glyph name="exclam" format="1">
  <advance width="455"/>
  <unicode hex="0021"/>
  <outline>
    <contour>
      <point x="214" y="132" type="line" smooth="yes"/>
      <point x="218" y="164"/>
      <point x="176" y="190"/>
      <point x="120" y="190" type="curve" smooth="yes"/>
      <point x="64" y="190"/>
      <point x="15" y="164"/>
      <point x="10" y="132" type="curve" smooth="yes"/>
      <point x="0" y="54" type="line" smooth="yes"/>
      <point x="-4" y="21"/>
      <point x="38" y="-5"/>
      <point x="94" y="-5" type="curve" smooth="yes"/>
      <point x="150" y="-5"/>
      <point x="199" y="21"/>
      <point x="204" y="54" type="curve" smooth="yes"/>
    </contour>
    <contour>
      <point x="320" y="946" type="line" smooth="yes"/>
      <point x="324" y="979"/>
      <point x="282" y="1005"/>
      <point x="226" y="1005" type="curve" smooth="yes"/>
      <point x="169" y="1005"/>
      <point x="121" y="979"/>
      <point x="116" y="946" type="curve" smooth="yes"/>
      <point x="55" y="372" type="line" smooth="yes"/>
      <point x="51" y="343"/>
      <point x="88" y="320"/>
      <point x="137" y="320" type="curve" smooth="yes"/>
      <point x="185" y="320"/>
      <point x="228" y="343"/>
      <point x="232" y="372" type="curve" smooth="yes"/>
    </contour>
  </outline>
</glyph>
<glyph name="quotedbl" format="1">
  <advance width="620"/>
  <unicode hex="0022"/>
  <outline>
    <contour>
      <point x="190" y="981" type="line"/>
      <point x="192" y="990"/>
      <point x="176" y="997"/>
      <point x="146" y="1002" type="curve" smooth="yes"/>
      <point x="116" y="1007"/>
      <point x="81" y="1007"/>
      <point x="49" y="1002" type="curve" smooth="yes"/>
      <point x="18" y="997"/>
      <point x="0" y="990"/>
      <point x="0" y="981" type="curve" smooth="yes"/>
      <point x="4" y="781" type="line"/>
      <point x="5" y="772"/>
      <point x="32" y="765"/>
      <point x="67" y="765" type="curve" smooth="yes"/>
      <point x="102" y="765"/>
      <point x="131" y="772"/>
      <point x="134" y="781" type="curve" smooth="yes"/>
    </contour>
    <contour>
      <point x="484" y="981" type="line" smooth="yes"/>
      <point x="487" y="990"/>
      <point x="471" y="997"/>
      <point x="441" y="1002" type="curve" smooth="yes"/>
      <point x="411" y="1007"/>
      <point x="375" y="1007"/>
      <point x="344" y="1002" type="curve" smooth="yes"/>
      <point x="312" y="997"/>
      <point x="294" y="990"/>
      <point x="295" y="981" type="curve"/>
      <point x="299" y="781" type="line" smooth="yes"/>
      <point x="299" y="772"/>
      <point x="327" y="765"/>
      <point x="361" y="765" type="curve" smooth="yes"/>
      <point x="396" y="765"/>
      <point x="426" y="772"/>
      <point x="428" y="781" type="curve"/>
    </contour>
  </outline>
</glyph>
<glyph name="numbersign" format="1">
  <advance width="1143"/>
  <unicode hex="0023"/>
  <outline>
    <contour>
      <point x="625" y="612" type="line"/>
      <point x="551" y="388" type="line"/>
      <point x="384" y="388" type="line"/>
      <point x="458" y="612" type="line"/>
    </contour>
    <contour>
      <point x="815" y="612" type="line"/>
      <point x="940" y="612" type="line" smooth="yes"/>
      <point x="955" y="612"/>
      <point x="979" y="651"/>
      <point x="995" y="700" type="curve" smooth="yes"/>
      <point x="1011" y="749"/>
      <point x="1013" y="788"/>
      <point x="998" y="788" type="curve" smooth="yes"/>
      <point x="873" y="788" type="line"/>
      <point x="936" y="982" type="line"/>
      <point x="941" y="995"/>
      <point x="902" y="1005"/>
      <point x="849" y="1005" type="curve" smooth="yes"/>
      <point x="797" y="1005"/>
      <point x="751" y="995"/>
      <point x="746" y="982" type="curve"/>
      <point x="683" y="788" type="line"/>
      <point x="516" y="788" type="line"/>
      <point x="579" y="982" type="line"/>
      <point x="584" y="995"/>
      <point x="545" y="1005"/>
      <point x="492" y="1005" type="curve" smooth="yes"/>
      <point x="440" y="1005"/>
      <point x="394" y="995"/>
      <point x="389" y="982" type="curve"/>
      <point x="326" y="788" type="line"/>
      <point x="200" y="788" type="line" smooth="yes"/>
      <point x="186" y="788"/>
      <point x="161" y="749"/>
      <point x="145" y="700" type="curve" smooth="yes"/>
      <point x="129" y="651"/>
      <point x="128" y="612"/>
      <point x="142" y="612" type="curve" smooth="yes"/>
      <point x="268" y="612" type="line"/>
      <point x="194" y="388" type="line"/>
      <point x="68" y="388" type="line" smooth="yes"/>
      <point x="54" y="388"/>
      <point x="29" y="349"/>
      <point x="13" y="300" type="curve" smooth="yes"/>
      <point x="-3" y="251"/>
      <point x="-4" y="212"/>
      <point x="10" y="212" type="curve" smooth="yes"/>
      <point x="136" y="212" type="line"/>
      <point x="72" y="18" type="line" smooth="yes"/>
      <point x="67" y="5"/>
      <point x="106" y="-5"/>
      <point x="159" y="-5" type="curve" smooth="yes"/>
      <point x="211" y="-5"/>
      <point x="257" y="5"/>
      <point x="262" y="18" type="curve" smooth="yes"/>
      <point x="326" y="212" type="line"/>
      <point x="493" y="212" type="line"/>
      <point x="429" y="18" type="line" smooth="yes"/>
      <point x="424" y="5"/>
      <point x="463" y="-5"/>
      <point x="516" y="-5" type="curve" smooth="yes"/>
      <point x="568" y="-5"/>
      <point x="614" y="5"/>
      <point x="619" y="18" type="curve" smooth="yes"/>
      <point x="683" y="212" type="line"/>
      <point x="808" y="212" type="line" smooth="yes"/>
      <point x="823" y="212"/>
      <point x="847" y="251"/>
      <point x="863" y="300" type="curve" smooth="yes"/>
      <point x="879" y="349"/>
      <point x="881" y="388"/>
      <point x="866" y="388" type="curve" smooth="yes"/>
      <point x="741" y="388" type="line"/>
    </contour>
  </outline>
</glyph>
<glyph name="dollar" format="1">
  <advance width="819"/>
  <unicode hex="0024"/>
  <outline>
    <contour>
      <point x="378" y="7" type="line"/>
      <point x="535" y="44"/>
      <point x="663" y="168"/>
      <point x="682" y="314" type="curve" smooth="yes"/>
      <point x="702" y="471"/>
      <point x="594" y="556"/>
      <point x="457" y="611" type="curve"/>
      <point x="484" y="817" type="line"/>
      <point x="496" y="813"/>
      <point x="507" y="808"/>
      <point x="517" y="801" type="curve"/>
      <point x="526" y="792"/>
      <point x="565" y="811"/>
      <point x="606" y="845" type="curve" smooth="yes"/>
      <point x="647" y="879"/>
      <point x="674" y="914"/>
      <point x="667" y="925" type="curve"/>
      <point x="623" y="963"/>
      <point x="569" y="987"/>
      <point x="507" y="998" type="curve"/>
      <point x="515" y="1060" type="line" smooth="yes"/>
      <point x="516" y="1069"/>
      <point x="488" y="1077"/>
      <point x="451" y="1077" type="curve" smooth="yes"/>
      <point x="414" y="1077"/>
      <point x="383" y="1069"/>
      <point x="382" y="1060" type="curve" smooth="yes"/>
      <point x="375" y="1002" type="line"/>
      <point x="226" y="980"/>
      <point x="101" y="867"/>
      <point x="83" y="731" type="curve" smooth="yes"/>
      <point x="64" y="589"/>
      <point x="177" y="517"/>
      <point x="305" y="470" type="curve"/>
      <point x="267" y="172" type="line"/>
      <point x="221" y="177"/>
      <point x="183" y="190"/>
      <point x="151" y="212" type="curve"/>
      <point x="142" y="221"/>
      <point x="103" y="202"/>
      <point x="62" y="168" type="curve" smooth="yes"/>
      <point x="21" y="134"/>
      <point x="-6" y="99"/>
      <point x="1" y="89" type="curve"/>
      <point x="65" y="33"/>
      <point x="146" y="2"/>
      <point x="244" y="-4" type="curve"/>
      <point x="237" y="-60" type="line"/>
      <point x="235" y="-69"/>
      <point x="264" y="-77"/>
      <point x="301" y="-77" type="curve" smooth="yes"/>
      <point x="338" y="-77"/>
      <point x="368" y="-69"/>
      <point x="370" y="-60" type="curve"/>
    </contour>
    <contour>
      <point x="351" y="819" type="curve"/>
      <point x="330" y="661" type="line"/>
      <point x="299" y="678"/>
      <point x="273" y="701"/>
      <point x="277" y="731" type="curve" smooth="yes"/>
      <point x="282" y="770"/>
      <point x="312" y="803"/>
    </contour>
    <contour>
      <point x="403" y="198" type="curve"/>
      <point x="431" y="413" type="line"/>
      <point x="466" y="389"/>
      <point x="492" y="357"/>
      <point x="486" y="314" type="curve" smooth="yes"/>
      <point x="480" y="266"/>
      <point x="448" y="224"/>
    </contour>
  </outline>
</glyph>
<glyph name="percent" format="1">
  <advance width="1072"/>
  <unicode hex="0025"/>
  <outline>
    <contour>
      <point x="156" y="780" type="curve" smooth="yes"/>
      <point x="163" y="827"/>
      <point x="207" y="865"/>
      <point x="256" y="865" type="curve" smooth="yes"/>
      <point x="305" y="865"/>
      <point x="339" y="827"/>
      <point x="333" y="780" type="curve" smooth="yes"/>
      <point x="327" y="734"/>
      <point x="283" y="696"/>
      <point x="234" y="696" type="curve" smooth="yes"/>
      <point x="185" y="696"/>
      <point x="150" y="734"/>
    </contour>
    <contour>
      <point x="2" y="780" type="curve" smooth="yes"/>
      <point x="-14" y="656"/>
      <point x="81" y="555"/>
      <point x="216" y="555" type="curve" smooth="yes"/>
      <point x="350" y="555"/>
      <point x="472" y="656"/>
      <point x="488" y="780" type="curve" smooth="yes"/>
      <point x="504" y="905"/>
      <point x="408" y="1005"/>
      <point x="274" y="1005" type="curve" smooth="yes"/>
      <point x="140" y="1005"/>
      <point x="18" y="905"/>
    </contour>
    <contour>
      <point x="603" y="220" type="curve" smooth="yes"/>
      <point x="609" y="266"/>
      <point x="654" y="304"/>
      <point x="703" y="304" type="curve" smooth="yes"/>
      <point x="751" y="304"/>
      <point x="786" y="266"/>
      <point x="780" y="220" type="curve" smooth="yes"/>
      <point x="774" y="173"/>
      <point x="729" y="135"/>
      <point x="681" y="135" type="curve" smooth="yes"/>
      <point x="632" y="135"/>
      <point x="597" y="173"/>
    </contour>
    <contour>
      <point x="448" y="220" type="curve" smooth="yes"/>
      <point x="432" y="95"/>
      <point x="528" y="-5"/>
      <point x="662" y="-5" type="curve" smooth="yes"/>
      <point x="797" y="-5"/>
      <point x="919" y="95"/>
      <point x="935" y="220" type="curve" smooth="yes"/>
      <point x="951" y="344"/>
      <point x="855" y="445"/>
      <point x="721" y="445" type="curve" smooth="yes"/>
      <point x="586" y="445"/>
      <point x="464" y="344"/>
    </contour>
    <contour>
      <point x="931" y="905" type="line" smooth="yes"/>
      <point x="939" y="914"/>
      <point x="922" y="941"/>
      <point x="894" y="965" type="curve" smooth="yes"/>
      <point x="865" y="990"/>
      <point x="836" y="1003"/>
      <point x="828" y="995" type="curve" smooth="yes"/>
      <point x="6" y="95" type="line" smooth="yes"/>
      <point x="0" y="89"/>
      <point x="5" y="76"/>
      <point x="19" y="59" type="curve" smooth="yes"/>
      <point x="33" y="42"/>
      <point x="51" y="26"/>
      <point x="70" y="14" type="curve" smooth="yes"/>
      <point x="89" y="3"/>
      <point x="103" y="0"/>
      <point x="108" y="5" type="curve" smooth="yes"/>
    </contour>
  </outline>
</glyph>
<glyph name="ampersand" format="1">
  <advance width="924"/>
  <unicode hex="0026"/>
  <outline>
    <contour>
      <point x="338" y="624" type="curve"/>
      <point x="328" y="640"/>
      <point x="318" y="657"/>
      <point x="308" y="674" type="curve" smooth="yes"/>
      <point x="298" y="691"/>
      <point x="294" y="710"/>
      <point x="297" y="731" type="curve" smooth="yes"/>
      <point x="304" y="786"/>
      <point x="353" y="830"/>
      <point x="406" y="830" type="curve" smooth="yes"/>
      <point x="459" y="830"/>
      <point x="496" y="786"/>
      <point x="489" y="731" type="curve" smooth="yes"/>
      <point x="479" y="658"/>
      <point x="383" y="645"/>
      <point x="339" y="624" type="curve"/>
      <point x="339" y="624"/>
      <point x="338" y="624"/>
    </contour>
    <contour>
      <point x="561" y="349" type="curve"/>
      <point x="518" y="393"/>
      <point x="477" y="437"/>
      <point x="438" y="485" type="curve"/>
      <point x="542" y="535"/>
      <point x="662" y="602"/>
      <point x="679" y="731" type="curve" smooth="yes"/>
      <point x="698" y="883"/>
      <point x="586" y="1005"/>
      <point x="429" y="1005" type="curve" smooth="yes"/>
      <point x="271" y="1005"/>
      <point x="127" y="883"/>
      <point x="107" y="731" type="curve" smooth="yes"/>
      <point x="99" y="671"/>
      <point x="110" y="619"/>
      <point x="141" y="570" type="curve" smooth="yes"/>
      <point x="149" y="558"/>
      <point x="156" y="546"/>
      <point x="164" y="534" type="curve"/>
      <point x="84" y="484"/>
      <point x="16" y="416"/>
      <point x="3" y="314" type="curve" smooth="yes"/>
      <point x="-20" y="138"/>
      <point x="112" y="-5"/>
      <point x="297" y="-5" type="curve" smooth="yes"/>
      <point x="387" y="-5"/>
      <point x="474" y="28"/>
      <point x="554" y="89" type="curve"/>
      <point x="586" y="58"/>
      <point x="619" y="26"/>
      <point x="653" y="-6" type="curve" smooth="yes"/>
      <point x="662" y="-15"/>
      <point x="699" y="9"/>
      <point x="736" y="46" type="curve" smooth="yes"/>
      <point x="773" y="84"/>
      <point x="796" y="121"/>
      <point x="787" y="130" type="curve" smooth="yes"/>
      <point x="752" y="163"/>
      <point x="718" y="195"/>
      <point x="685" y="227" type="curve"/>
      <point x="720" y="275"/>
      <point x="751" y="330"/>
      <point x="779" y="391" type="curve" smooth="yes"/>
      <point x="785" y="403"/>
      <point x="755" y="430"/>
      <point x="711" y="450" type="curve" smooth="yes"/>
      <point x="667" y="470"/>
      <point x="626" y="477"/>
      <point x="618" y="465" type="curve"/>
      <point x="601" y="422"/>
      <point x="582" y="383"/>
    </contour>
    <contour>
      <point x="257" y="406" type="curve"/>
      <point x="313" y="335"/>
      <point x="372" y="271"/>
      <point x="434" y="207" type="curve"/>
      <point x="397" y="183"/>
      <point x="359" y="170"/>
      <point x="320" y="170" type="curve" smooth="yes"/>
      <point x="239" y="170"/>
      <point x="182" y="235"/>
      <point x="193" y="314" type="curve" smooth="yes"/>
      <point x="198" y="357"/>
      <point x="224" y="385"/>
    </contour>
  </outline>
</glyph>
<glyph name="quotesingle" format="1">
  <advance width="326"/>
  <unicode hex="0027"/>
  <outline>
    <contour>
      <point x="189" y="945" type="line" smooth="yes"/>
      <point x="195" y="967"/>
      <point x="181" y="986"/>
      <point x="151" y="997" type="curve" smooth="yes"/>
      <point x="121" y="1008"/>
      <point x="84" y="1008"/>
      <point x="51" y="997" type="curve" smooth="yes"/>
      <point x="19" y="986"/>
      <point x="0" y="967"/>
      <point x="0" y="945" type="curve" smooth="yes"/>
      <point x="4" y="747" type="line" smooth="yes"/>
      <point x="5" y="727"/>
      <point x="31" y="713"/>
      <point x="64" y="713" type="curve" smooth="yes"/>
      <point x="98" y="713"/>
      <point x="128" y="727"/>
      <point x="133" y="747" type="curve" smooth="yes"/>
    </contour>
  </outline>
</glyph>
<glyph name="parenleft" format="1">
  <advance width="521"/>
  <unicode hex="0028"/>
  <outline>
    <contour>
      <point x="381" y="967" type="curve" smooth="yes"/>
      <point x="396" y="996"/>
      <point x="371" y="1034"/>
      <point x="325" y="1052" type="curve" smooth="yes"/>
      <point x="280" y="1070"/>
      <point x="231" y="1061"/>
      <point x="217" y="1033" type="curve" smooth="yes"/>
      <point x="1" y="607"/>
      <point x="-53" y="193"/>
      <point x="52" y="-233" type="curve" smooth="yes"/>
      <point x="59" y="-261"/>
      <point x="106" y="-270"/>
      <point x="156" y="-252" type="curve" smooth="yes"/>
      <point x="206" y="-234"/>
      <point x="241" y="-196"/>
      <point x="234" y="-167" type="curve" smooth="yes"/>
      <point x="139" y="214"/>
      <point x="187" y="586"/>
    </contour>
  </outline>
</glyph>
<glyph name="parenright" format="1">
  <advance width="517"/>
  <unicode hex="0029"/>
  <outline>
    <contour>
      <point x="148" y="967" type="curve" smooth="yes"/>
      <point x="243" y="586"/>
      <point x="194" y="214"/>
      <point x="1" y="-167" type="curve" smooth="yes"/>
      <point x="-5" y="-180"/>
      <point x="26" y="-204"/>
      <point x="72" y="-222" type="curve" smooth="yes"/>
      <point x="117" y="-240"/>
      <point x="159" y="-245"/>
      <point x="165" y="-233" type="curve" smooth="yes"/>
      <point x="381" y="193"/>
      <point x="435" y="607"/>
      <point x="330" y="1033" type="curve" smooth="yes"/>
      <point x="327" y="1045"/>
      <point x="284" y="1040"/>
      <point x="233" y="1022" type="curve" smooth="yes"/>
      <point x="183" y="1004"/>
      <point x="145" y="980"/>
    </contour>
  </outline>
</glyph>
<glyph name="asterisk" format="1">
  <advance width="570"/>
  <unicode hex="002A"/>
  <outline>
    <contour>
      <point x="314" y="975" type="line"/>
      <point x="316" y="985"/>
      <point x="285" y="993"/>
      <point x="246" y="993" type="curve" smooth="yes"/>
      <point x="206" y="993"/>
      <point x="173" y="985"/>
      <point x="172" y="975" type="curve"/>
      <point x="175" y="871" type="line"/>
      <point x="98" y="933" type="line"/>
      <point x="90" y="938"/>
      <point x="65" y="916"/>
      <point x="42" y="885" type="curve" smooth="yes"/>
      <point x="20" y="853"/>
      <point x="8" y="823"/>
      <point x="16" y="818" type="curve"/>
      <point x="107" y="775" type="line"/>
      <point x="5" y="733" type="line"/>
      <point x="-4" y="728"/>
      <point x="0" y="698"/>
      <point x="14" y="666" type="curve" smooth="yes"/>
      <point x="28" y="634"/>
      <point x="47" y="612"/>
      <point x="57" y="618" type="curve" smooth="yes"/>
      <point x="150" y="680" type="line"/>
      <point x="120" y="575" type="line"/>
      <point x="119" y="565"/>
      <point x="150" y="557"/>
      <point x="189" y="557" type="curve" smooth="yes"/>
      <point x="228" y="557"/>
      <point x="261" y="565"/>
      <point x="262" y="575" type="curve"/>
      <point x="260" y="680" type="line"/>
      <point x="337" y="618" type="line" smooth="yes"/>
      <point x="342" y="614"/>
      <point x="354" y="622"/>
      <point x="370" y="638" type="curve" smooth="yes"/>
      <point x="386" y="655"/>
      <point x="400" y="676"/>
      <point x="411" y="696" type="curve" smooth="yes"/>
      <point x="421" y="716"/>
      <point x="424" y="730"/>
      <point x="418" y="733" type="curve" smooth="yes"/>
      <point x="327" y="775" type="line"/>
      <point x="429" y="818" type="line"/>
      <point x="439" y="823"/>
      <point x="435" y="853"/>
      <point x="421" y="885" type="curve" smooth="yes"/>
      <point x="406" y="916"/>
      <point x="387" y="938"/>
      <point x="378" y="933" type="curve"/>
      <point x="285" y="871" type="line"/>
    </contour>
  </outline>
</glyph>
<glyph name="plus" format="1">
  <advance width="838"/>
  <unicode hex="002B"/>
  <outline>
    <contour>
      <point x="245" y="422" type="line"/>
      <point x="218" y="220" type="line" smooth="yes"/>
      <point x="214" y="189"/>
      <point x="254" y="164"/>
      <point x="306" y="164" type="curve" smooth="yes"/>
      <point x="359" y="164"/>
      <point x="404" y="189"/>
      <point x="408" y="220" type="curve" smooth="yes"/>
      <point x="435" y="422" type="line"/>
      <point x="630" y="422" type="line" smooth="yes"/>
      <point x="663" y="422"/>
      <point x="695" y="461"/>
      <point x="701" y="510" type="curve" smooth="yes"/>
      <point x="707" y="559"/>
      <point x="686" y="598"/>
      <point x="653" y="598" type="curve" smooth="yes"/>
      <point x="458" y="598" type="line"/>
      <point x="484" y="800" type="line" smooth="yes"/>
      <point x="488" y="831"/>
      <point x="448" y="856"/>
      <point x="396" y="856" type="curve" smooth="yes"/>
      <point x="344" y="856"/>
      <point x="298" y="831"/>
      <point x="294" y="800" type="curve" smooth="yes"/>
      <point x="268" y="598" type="line"/>
      <point x="72" y="598" type="line" smooth="yes"/>
      <point x="39" y="598"/>
      <point x="7" y="559"/>
      <point x="1" y="510" type="curve" smooth="yes"/>
      <point x="-5" y="461"/>
      <point x="16" y="422"/>
      <point x="49" y="422" type="curve" smooth="yes"/>
    </contour>
  </outline>
</glyph>
<glyph name="comma" format="1">
  <advance width="363"/>
  <unicode hex="002C"/>
  <outline>
    <contour>
      <point x="228" y="167" type="curve" smooth="yes"/>
      <point x="230" y="181"/>
      <point x="185" y="193"/>
      <point x="127" y="193" type="curve" smooth="yes"/>
      <point x="69" y="193"/>
      <point x="21" y="181"/>
      <point x="19" y="167" type="curve" smooth="yes"/>
      <point x="0" y="21" type="line" smooth="yes"/>
      <point x="-1" y="11"/>
      <point x="18" y="3"/>
      <point x="47" y="-1" type="curve"/>
      <point x="50" y="-2"/>
      <point x="52" y="-11"/>
      <point x="52" y="-24" type="curve"/>
      <point x="51" y="-37"/>
      <point x="47" y="-50"/>
      <point x="43" y="-56" type="curve"/>
      <point x="12" y="-72" type="line"/>
      <point x="7" y="-74"/>
      <point x="8" y="-89"/>
      <point x="14" y="-105" type="curve" smooth="yes"/>
      <point x="20" y="-121"/>
      <point x="29" y="-132"/>
      <point x="33" y="-129" type="curve"/>
      <point x="155" y="-71"/>
      <point x="213" y="48"/>
    </contour>
  </outline>
</glyph>
<glyph name="hyphen" format="1">
  <advance width="588"/>
  <unicode hex="002D"/>
  <outline>
    <contour>
      <point x="380" y="422" type="line" smooth="yes"/>
      <point x="413" y="422"/>
      <point x="445" y="461"/>
      <point x="451" y="510" type="curve" smooth="yes"/>
      <point x="457" y="559"/>
      <point x="436" y="598"/>
      <point x="403" y="598" type="curve" smooth="yes"/>
      <point x="72" y="598" type="line" smooth="yes"/>
      <point x="39" y="598"/>
      <point x="7" y="559"/>
      <point x="1" y="510" type="curve" smooth="yes"/>
      <point x="-5" y="461"/>
      <point x="16" y="422"/>
      <point x="49" y="422" type="curve" smooth="yes"/>
    </contour>
  </outline>
</glyph>
<glyph name="period" format="1">
  <advance width="363"/>
  <unicode hex="002E"/>
  <outline>
    <contour>
      <point x="228" y="167" type="line" smooth="yes"/>
      <point x="230" y="181"/>
      <point x="185" y="193"/>
      <point x="127" y="193" type="curve" smooth="yes"/>
      <point x="69" y="193"/>
      <point x="21" y="181"/>
      <point x="19" y="167" type="curve" smooth="yes"/>
      <point x="0" y="21" type="line" smooth="yes"/>
      <point x="-2" y="6"/>
      <point x="43" y="-5"/>
      <point x="101" y="-5" type="curve" smooth="yes"/>
      <point x="159" y="-5"/>
      <point x="207" y="6"/>
      <point x="209" y="21" type="curve" smooth="yes"/>
    </contour>
  </outline>
</glyph>
<glyph name="slash" format="1">
  <advance width="824"/>
  <unicode hex="002F"/>
  <outline>
    <contour>
      <point x="688" y="1041" type="line" smooth="yes"/>
      <point x="693" y="1053"/>
      <point x="660" y="1076"/>
      <point x="614" y="1092" type="curve" smooth="yes"/>
      <point x="567" y="1108"/>
      <point x="525" y="1111"/>
      <point x="519" y="1098" type="curve" smooth="yes"/>
      <point x="1" y="-41" type="line" smooth="yes"/>
      <point x="-5" y="-53"/>
      <point x="28" y="-76"/>
      <point x="75" y="-92" type="curve" smooth="yes"/>
      <point x="121" y="-108"/>
      <point x="164" y="-111"/>
      <point x="170" y="-98" type="curve" smooth="yes"/>
    </contour>
  </outline>
</glyph>
<glyph name="Digit_One" format="1">
  <advance width="393"/>
  <unicode hex="0031"/>
  <outline>
    <contour>
      <point x="393" y="940" type="line" smooth="yes"/>
      <point x="396" y="968"/>
      <point x="374" y="991"/>
      <point x="334" y="1001" type="curve" smooth="yes"/>
      <point x="293" y="1011"/>
      <point x="248" y="1004"/>
      <point x="216" y="984" type="curve"/>
      <point x="16" y="790" type="line" smooth="yes"/>
      <point x="-10" y="765"/>
      <point x="-4" y="718"/>
      <point x="29" y="685" type="curve"/>
      <point x="29" y="685" type="line"/>
      <point x="62" y="652"/>
      <point x="109" y="645"/>
      <point x="135" y="670" type="curve" smooth="yes"/>
      <point x="172" y="706" type="line"/>
      <point x="88" y="54" type="line" smooth="yes"/>
      <point x="83" y="21"/>
      <point x="122" y="-5"/>
      <point x="175" y="-5" type="curve" smooth="yes"/>
      <point x="227" y="-5"/>
      <point x="273" y="21"/>
      <point x="278" y="54" type="curve" smooth="yes"/>
    </contour>
  </outline>
</glyph>
<glyph name="one" format="1">
  <advance width="554"/>
  <unicode hex="0031"/>
  <outline>
    <contour>
      <point x="418" y="979" type="line"/>
      <point x="420" y="990"/>
      <point x="395" y="1000"/>
      <point x="353" y="1004" type="curve" smooth="yes"/>
      <point x="312" y="1008"/>
      <point x="267" y="1005"/>
      <point x="237" y="996" type="curve"/>
      <point x="3" y="778" type="line" smooth="yes"/>
      <point x="-8" y="768"/>
      <point x="12" y="734"/>
      <point x="46" y="702" type="curve" smooth="yes"/>
      <point x="80" y="670"/>
      <point x="116" y="652"/>
      <point x="126" y="662" type="curve" smooth="yes"/>
      <point x="195" y="726" type="line"/>
      <point x="103" y="18" type="line"/>
      <point x="102" y="5"/>
      <point x="143" y="-5"/>
      <point x="195" y="-5" type="curve" smooth="yes"/>
      <point x="248" y="-5"/>
      <point x="292" y="5"/>
      <point x="293" y="18" type="curve"/>
    </contour>
  </outline>
</glyph>
<glyph name="Digit_Two" format="1">
  <advance width="760"/>
  <unicode hex="0032"/>
  <outline>
    <contour>
      <point x="266" y="176" type="line"/>
      <point x="623" y="176" type="line" smooth="yes"/>
      <point x="658" y="176"/>
      <point x="682" y="136"/>
      <point x="675" y="88" type="curve"/>
      <point x="675" y="88" type="line"/>
      <point x="669" y="39"/>
      <point x="635" y="0"/>
      <point x="600" y="0" type="curve" smooth="yes"/>
      <point x="67" y="0" type="line" smooth="yes"/>
      <point x="23" y="0"/>
      <point x="-7" y="49"/>
      <point x="1" y="110" type="curve"/>
      <point x="1" y="110" type="line"/>
      <point x="6" y="144"/>
      <point x="21" y="175"/>
      <point x="42" y="195" type="curve" smooth="yes"/>
      <point x="543" y="682" type="line" smooth="yes"/>
      <point x="557" y="696"/>
      <point x="566" y="712"/>
      <point x="569" y="729" type="curve"/>
      <point x="569" y="729" type="line"/>
      <point x="575" y="782"/>
      <point x="515" y="824"/>
      <point x="433" y="824" type="curve"/>
      <point x="433" y="824" type="line"/>
      <point x="367" y="824"/>
      <point x="309" y="811"/>
      <point x="267" y="785" type="curve"/>
      <point x="263" y="783" type="line"/>
      <point x="240" y="756"/>
      <point x="192" y="759"/>
      <point x="155" y="788" type="curve"/>
      <point x="155" y="788" type="line"/>
      <point x="118" y="817"/>
      <point x="107" y="863"/>
      <point x="130" y="890" type="curve"/>
      <point x="127" y="888" type="line"/>
      <point x="212" y="961"/>
      <point x="327" y="1000"/>
      <point x="455" y="1000" type="curve"/>
      <point x="455" y="1000" type="line"/>
      <point x="642" y="1000"/>
      <point x="778" y="879"/>
      <point x="759" y="729" type="curve"/>
      <point x="759" y="729" type="line"/>
      <point x="752" y="680"/>
      <point x="730" y="634"/>
      <point x="696" y="594" type="curve"/>
    </contour>
  </outline>
</glyph>
<glyph name="two" format="1">
  <advance width="899"/>
  <unicode hex="0032"/>
  <outline>
    <contour>
      <point x="265" y="176" type="line"/>
      <point x="699" y="593" type="line"/>
      <point x="733" y="633"/>
      <point x="755" y="680"/>
      <point x="762" y="729" type="curve" smooth="yes"/>
      <point x="781" y="879"/>
      <point x="645" y="1000"/>
      <point x="459" y="1000" type="curve" smooth="yes"/>
      <point x="323" y="1000"/>
      <point x="199" y="955"/>
      <point x="119" y="879" type="curve"/>
      <point x="112" y="873"/>
      <point x="118" y="856"/>
      <point x="135" y="834" type="curve" smooth="yes"/>
      <point x="151" y="813"/>
      <point x="174" y="792"/>
      <point x="197" y="777" type="curve" smooth="yes"/>
      <point x="220" y="762"/>
      <point x="237" y="757"/>
      <point x="243" y="764" type="curve"/>
      <point x="279" y="801"/>
      <point x="352" y="824"/>
      <point x="436" y="824" type="curve" smooth="yes"/>
      <point x="518" y="824"/>
      <point x="579" y="782"/>
      <point x="572" y="729" type="curve" smooth="yes"/>
      <point x="570" y="712"/>
      <point x="560" y="696"/>
      <point x="546" y="682" type="curve" smooth="yes"/>
      <point x="34" y="189" type="line" smooth="yes"/>
      <point x="21" y="176"/>
      <point x="8" y="140"/>
      <point x="3" y="97" type="curve" smooth="yes"/>
      <point x="-4" y="43"/>
      <point x="3" y="0"/>
      <point x="18" y="0" type="curve" smooth="yes"/>
      <point x="641" y="0" type="line" smooth="yes"/>
      <point x="655" y="0"/>
      <point x="672" y="39"/>
      <point x="678" y="88" type="curve" smooth="yes"/>
      <point x="685" y="136"/>
      <point x="678" y="176"/>
      <point x="664" y="176" type="curve" smooth="yes"/>
    </contour>
  </outline>
</glyph>
<glyph name="Digit_Three" format="1">
  <advance width="790"/>
  <unicode hex="0033"/>
  <outline>
    <contour>
      <point x="498" y="548" type="curve"/>
      <point x="580" y="580"/>
      <point x="642" y="650"/>
      <point x="653" y="731" type="curve"/>
      <point x="653" y="731" type="line"/>
      <point x="672" y="883"/>
      <point x="551" y="1005"/>
      <point x="381" y="1005" type="curve"/>
      <point x="381" y="1005" type="line"/>
      <point x="297" y="1005"/>
      <point x="221" y="979"/>
      <point x="154" y="925" type="curve"/>
      <point x="155" y="924" type="line"/>
      <point x="129" y="900"/>
      <point x="134" y="852"/>
      <point x="166" y="818" type="curve"/>
      <point x="166" y="818" type="line"/>
      <point x="198" y="785"/>
      <point x="245" y="777"/>
      <point x="271" y="802" type="curve"/>
      <point x="272" y="801" type="line"/>
      <point x="297" y="820"/>
      <point x="326" y="830"/>
      <point x="359" y="830" type="curve"/>
      <point x="359" y="830" type="line"/>
      <point x="418" y="830"/>
      <point x="461" y="786"/>
      <point x="454" y="731" type="curve"/>
      <point x="454" y="731" type="line"/>
      <point x="447" y="677"/>
      <point x="393" y="633"/>
      <point x="333" y="633" type="curve"/>
      <point x="333" y="633" type="line"/>
      <point x="303" y="633"/>
      <point x="273" y="594"/>
      <point x="267" y="545" type="curve"/>
      <point x="267" y="545" type="line"/>
      <point x="261" y="497"/>
      <point x="280" y="458"/>
      <point x="310" y="458" type="curve"/>
      <point x="310" y="458" type="line"/>
      <point x="398" y="458"/>
      <point x="460" y="393"/>
      <point x="450" y="314" type="curve"/>
      <point x="450" y="314" type="line"/>
      <point x="439" y="235"/>
      <point x="360" y="170"/>
      <point x="273" y="170" type="curve"/>
      <point x="273" y="170" type="line"/>
      <point x="226" y="170"/>
      <point x="187" y="184"/>
      <point x="157" y="213" type="curve"/>
      <point x="156" y="212" type="line"/>
      <point x="137" y="236"/>
      <point x="88" y="229"/>
      <point x="47" y="195" type="curve"/>
      <point x="47" y="195" type="line"/>
      <point x="6" y="161"/>
      <point x="-12" y="114"/>
      <point x="8" y="89" type="curve"/>
      <point x="7" y="88" type="line"/>
      <point x="69" y="26"/>
      <point x="150" y="-5"/>
      <point x="250" y="-5" type="curve"/>
      <point x="250" y="-5" type="line"/>
      <point x="449" y="-5"/>
      <point x="630" y="138"/>
      <point x="652" y="314" type="curve"/>
      <point x="652" y="314" type="line"/>
      <point x="666" y="421"/>
      <point x="602" y="513"/>
    </contour>
  </outline>
</glyph>
<glyph name="three" format="1">
  <advance width="784"/>
  <unicode hex="0033"/>
  <outline>
    <contour>
      <point x="492" y="548" type="curve"/>
      <point x="573" y="580"/>
      <point x="636" y="650"/>
      <point x="646" y="731" type="curve" smooth="yes"/>
      <point x="666" y="883"/>
      <point x="545" y="1005"/>
      <point x="375" y="1005" type="curve" smooth="yes"/>
      <point x="290" y="1005"/>
      <point x="215" y="979"/>
      <point x="148" y="925" type="curve"/>
      <point x="138" y="914"/>
      <point x="156" y="879"/>
      <point x="188" y="845" type="curve" smooth="yes"/>
      <point x="220" y="811"/>
      <point x="255" y="792"/>
      <point x="265" y="801" type="curve"/>
      <point x="291" y="820"/>
      <point x="320" y="830"/>
      <point x="352" y="830" type="curve" smooth="yes"/>
      <point x="415" y="830"/>
      <point x="460" y="786"/>
      <point x="453" y="731" type="curve" smooth="yes"/>
      <point x="446" y="681"/>
      <point x="397" y="640"/>
      <point x="340" y="634" type="curve" smooth="yes"/>
      <point x="255" y="626" type="line" smooth="yes"/>
      <point x="244" y="625"/>
      <point x="231" y="589"/>
      <point x="225" y="545" type="curve" smooth="yes"/>
      <point x="220" y="502"/>
      <point x="224" y="466"/>
      <point x="234" y="465" type="curve" smooth="yes"/>
      <point x="322" y="457" type="line" smooth="yes"/>
      <point x="404" y="449"/>
      <point x="461" y="388"/>
      <point x="451" y="314" type="curve" smooth="yes"/>
      <point x="441" y="235"/>
      <point x="358" y="170"/>
      <point x="267" y="170" type="curve" smooth="yes"/>
      <point x="219" y="170"/>
      <point x="181" y="184"/>
      <point x="151" y="212" type="curve" smooth="yes"/>
      <point x="142" y="221"/>
      <point x="103" y="202"/>
      <point x="62" y="168" type="curve" smooth="yes"/>
      <point x="21" y="134"/>
      <point x="-6" y="99"/>
      <point x="1" y="89" type="curve"/>
      <point x="63" y="26"/>
      <point x="144" y="-5"/>
      <point x="244" y="-5" type="curve" smooth="yes"/>
      <point x="443" y="-5"/>
      <point x="623" y="138"/>
      <point x="646" y="314" type="curve" smooth="yes"/>
      <point x="660" y="421"/>
      <point x="595" y="513"/>
    </contour>
  </outline>
</glyph>
<glyph name="4" format="1">
  <advance width="858"/>
  <unicode hex="0034"/>
  <outline>
    <contour>
      <point x="454" y="663" type="line"/>
      <point x="421" y="408" type="line"/>
      <point x="253" y="408" type="line"/>
    </contour>
    <contour>
      <point x="588" y="232" type="line"/>
      <point x="646" y="232" type="line" smooth="yes"/>
      <point x="681" y="232"/>
      <point x="715" y="271"/>
      <point x="721" y="320" type="curve"/>
      <point x="721" y="320" type="line"/>
      <point x="728" y="369"/>
      <point x="704" y="408"/>
      <point x="669" y="408" type="curve" smooth="yes"/>
      <point x="611" y="408" type="line"/>
      <point x="680" y="937" type="line" smooth="yes"/>
      <point x="685" y="975"/>
      <point x="640" y="1005"/>
      <point x="580" y="1005" type="curve"/>
      <point x="580" y="1005" type="line"/>
      <point x="534" y="1005"/>
      <point x="493" y="988"/>
      <point x="473" y="963" type="curve" smooth="yes"/>
      <point x="29" y="401" type="line" smooth="yes"/>
      <point x="15" y="383"/>
      <point x="5" y="359"/>
      <point x="1" y="333" type="curve"/>
      <point x="1" y="333" type="line"/>
      <point x="-6" y="277"/>
      <point x="21" y="232"/>
      <point x="62" y="232" type="curve" smooth="yes"/>
      <point x="398" y="232" type="line"/>
      <point x="375" y="54" type="line" smooth="yes"/>
      <point x="371" y="21"/>
      <point x="410" y="-5"/>
      <point x="463" y="-5" type="curve" smooth="yes"/>
      <point x="515" y="-5"/>
      <point x="561" y="21"/>
      <point x="565" y="54" type="curve" smooth="yes"/>
    </contour>
  </outline>
</glyph>
<glyph name="four" format="1">
  <advance width="861"/>
  <unicode hex="0034"/>
  <outline>
    <contour>
      <point x="460" y="692" type="line"/>
      <point x="423" y="408" type="line"/>
      <point x="236" y="408" type="line"/>
    </contour>
    <contour>
      <point x="590" y="232" type="line"/>
      <point x="686" y="232" type="line" smooth="yes"/>
      <point x="700" y="232"/>
      <point x="717" y="271"/>
      <point x="723" y="320" type="curve" smooth="yes"/>
      <point x="729" y="369"/>
      <point x="723" y="408"/>
      <point x="709" y="408" type="curve" smooth="yes"/>
      <point x="613" y="408" type="line"/>
      <point x="687" y="978" type="line" smooth="yes"/>
      <point x="689" y="993"/>
      <point x="642" y="1005"/>
      <point x="581" y="1005" type="curve" smooth="yes"/>
      <point x="527" y="1005"/>
      <point x="481" y="995"/>
      <point x="471" y="982" type="curve" smooth="yes"/>
      <point x="32" y="426" type="line" smooth="yes"/>
      <point x="20" y="410"/>
      <point x="8" y="374"/>
      <point x="3" y="333" type="curve" smooth="yes"/>
      <point x="-4" y="277"/>
      <point x="3" y="232"/>
      <point x="19" y="232" type="curve" smooth="yes"/>
      <point x="400" y="232" type="line"/>
      <point x="372" y="18" type="line"/>
      <point x="371" y="5"/>
      <point x="412" y="-5"/>
      <point x="464" y="-5" type="curve" smooth="yes"/>
      <point x="517" y="-5"/>
      <point x="561" y="5"/>
      <point x="562" y="18" type="curve"/>
    </contour>
  </outline>
</glyph>
<glyph name="Digit_Five" format="1">
  <advance width="867"/>
  <unicode hex="0035"/>
  <outline>
    <contour>
      <point x="339" y="824" type="line"/>
      <point x="655" y="824" type="line" smooth="yes"/>
      <point x="690" y="824"/>
      <point x="724" y="864"/>
      <point x="730" y="912" type="curve"/>
      <point x="730" y="912" type="line"/>
      <point x="737" y="961"/>
      <point x="713" y="1000"/>
      <point x="677" y="1000" type="curve" smooth="yes"/>
      <point x="250" y="1000" type="line" smooth="yes"/>
      <point x="219" y="1000"/>
      <point x="189" y="969"/>
      <point x="178" y="929" type="curve" smooth="yes"/>
      <point x="68" y="525" type="line" smooth="yes"/>
      <point x="61" y="501"/>
      <point x="68" y="470"/>
      <point x="89" y="446" type="curve"/>
      <point x="89" y="446" type="line"/>
      <point x="118" y="410"/>
      <point x="164" y="399"/>
      <point x="192" y="423" type="curve"/>
      <point x="192" y="422" type="line"/>
      <point x="228" y="446"/>
      <point x="267" y="458"/>
      <point x="310" y="458" type="curve"/>
      <point x="310" y="458" type="line"/>
      <point x="398" y="458"/>
      <point x="460" y="393"/>
      <point x="450" y="314" type="curve"/>
      <point x="450" y="314" type="line"/>
      <point x="439" y="235"/>
      <point x="360" y="170"/>
      <point x="273" y="170" type="curve"/>
      <point x="273" y="170" type="line"/>
      <point x="226" y="170"/>
      <point x="187" y="184"/>
      <point x="157" y="213" type="curve"/>
      <point x="156" y="212" type="line"/>
      <point x="137" y="236"/>
      <point x="88" y="229"/>
      <point x="47" y="195" type="curve"/>
      <point x="47" y="195" type="line"/>
      <point x="6" y="161"/>
      <point x="-12" y="114"/>
      <point x="8" y="89" type="curve"/>
      <point x="7" y="88" type="line"/>
      <point x="69" y="26"/>
      <point x="150" y="-5"/>
      <point x="250" y="-5" type="curve"/>
      <point x="250" y="-5" type="line"/>
      <point x="449" y="-5"/>
      <point x="630" y="138"/>
      <point x="652" y="314" type="curve"/>
      <point x="652" y="314" type="line"/>
      <point x="675" y="490"/>
      <point x="532" y="633"/>
      <point x="333" y="633" type="curve"/>
      <point x="333" y="633" type="line"/>
      <point x="317" y="633"/>
      <point x="302" y="633"/>
      <point x="286" y="631" type="curve"/>
    </contour>
  </outline>
</glyph>
<glyph name="five" format="1">
  <advance width="862"/>
  <unicode hex="0035"/>
  <outline>
    <contour>
      <point x="334" y="824" type="line"/>
      <point x="687" y="824" type="line" smooth="yes"/>
      <point x="701" y="824"/>
      <point x="718" y="864"/>
      <point x="724" y="912" type="curve" smooth="yes"/>
      <point x="730" y="961"/>
      <point x="724" y="1000"/>
      <point x="710" y="1000" type="curve" smooth="yes"/>
      <point x="205" y="1000" type="line" smooth="yes"/>
      <point x="194" y="1000"/>
      <point x="182" y="977"/>
      <point x="174" y="945" type="curve" smooth="yes"/>
      <point x="75" y="547" type="line" smooth="yes"/>
      <point x="72" y="533"/>
      <point x="87" y="502"/>
      <point x="112" y="471" type="curve" smooth="yes"/>
      <point x="142" y="435"/>
      <point x="174" y="413"/>
      <point x="186" y="422" type="curve"/>
      <point x="222" y="446"/>
      <point x="260" y="458"/>
      <point x="304" y="458" type="curve" smooth="yes"/>
      <point x="395" y="458"/>
      <point x="461" y="393"/>
      <point x="451" y="314" type="curve" smooth="yes"/>
      <point x="441" y="235"/>
      <point x="358" y="170"/>
      <point x="267" y="170" type="curve" smooth="yes"/>
      <point x="219" y="170"/>
      <point x="181" y="184"/>
      <point x="151" y="212" type="curve" smooth="yes"/>
      <point x="142" y="221"/>
      <point x="103" y="202"/>
      <point x="62" y="168" type="curve" smooth="yes"/>
      <point x="21" y="134"/>
      <point x="-6" y="99"/>
      <point x="1" y="89" type="curve"/>
      <point x="63" y="26"/>
      <point x="144" y="-5"/>
      <point x="244" y="-5" type="curve" smooth="yes"/>
      <point x="443" y="-5"/>
      <point x="623" y="138"/>
      <point x="646" y="314" type="curve" smooth="yes"/>
      <point x="669" y="490"/>
      <point x="526" y="633"/>
      <point x="327" y="633" type="curve" smooth="yes"/>
      <point x="313" y="633"/>
      <point x="299" y="633"/>
      <point x="286" y="632" type="curve"/>
    </contour>
  </outline>
</glyph>
<glyph name="6" format="1">
  <advance width="790"/>
  <unicode hex="0036"/>
  <outline>
    <contour>
      <point x="203" y="320" type="curve"/>
      <point x="214" y="402"/>
      <point x="278" y="469"/>
      <point x="347" y="469" type="curve"/>
      <point x="347" y="469" type="line"/>
      <point x="416" y="469"/>
      <point x="463" y="402"/>
      <point x="452" y="320" type="curve"/>
      <point x="452" y="320" type="line"/>
      <point x="442" y="237"/>
      <point x="377" y="170"/>
      <point x="308" y="170" type="curve"/>
      <point x="308" y="170" type="line"/>
      <point x="239" y="170"/>
      <point x="192" y="237"/>
    </contour>
    <contour>
      <point x="395" y="989" type="curve" smooth="yes"/>
      <point x="214" y="789"/>
      <point x="38" y="591"/>
      <point x="3" y="320" type="curve" smooth="yes"/>
      <point x="-21" y="140"/>
      <point x="106" y="-5"/>
      <point x="285" y="-5" type="curve"/>
      <point x="285" y="-5" type="line"/>
      <point x="465" y="-5"/>
      <point x="629" y="140"/>
      <point x="652" y="320" type="curve"/>
      <point x="652" y="320" type="line"/>
      <point x="674" y="485"/>
      <point x="558" y="619"/>
      <point x="392" y="619" type="curve"/>
      <point x="392" y="619" type="line"/>
      <point x="362" y="619"/>
      <point x="331" y="614"/>
      <point x="302" y="605" type="curve"/>
      <point x="302" y="605" type="line"/>
      <point x="364" y="702"/>
      <point x="444" y="790"/>
      <point x="524" y="878" type="curve" smooth="yes"/>
      <point x="548" y="904"/>
      <point x="538" y="951"/>
      <point x="503" y="981" type="curve"/>
      <point x="503" y="981" type="line"/>
      <point x="467" y="1012"/>
      <point x="419" y="1015"/>
    </contour>
  </outline>
</glyph>
<glyph name="Digit_Six" format="1">
  <advance width="655"/>
  <unicode hex="0036"/>
  <outline>
    <contour>
      <point x="203" y="320" type="curve"/>
      <point x="214" y="402"/>
      <point x="278" y="469"/>
      <point x="347" y="469" type="curve"/>
      <point x="347" y="469" type="line"/>
      <point x="416" y="469"/>
      <point x="463" y="402"/>
      <point x="452" y="320" type="curve"/>
      <point x="452" y="320" type="line"/>
      <point x="442" y="237"/>
      <point x="377" y="170"/>
      <point x="308" y="170" type="curve"/>
      <point x="308" y="170" type="line"/>
      <point x="239" y="170"/>
      <point x="192" y="237"/>
    </contour>
    <contour>
      <point x="395" y="989" type="curve" smooth="yes"/>
      <point x="214" y="789"/>
      <point x="38" y="591"/>
      <point x="3" y="320" type="curve" smooth="yes"/>
      <point x="-21" y="140"/>
      <point x="106" y="-5"/>
      <point x="285" y="-5" type="curve"/>
      <point x="285" y="-5" type="line"/>
      <point x="465" y="-5"/>
      <point x="629" y="140"/>
      <point x="652" y="320" type="curve"/>
      <point x="652" y="320" type="line"/>
      <point x="674" y="486"/>
      <point x="557" y="620"/>
      <point x="391" y="620" type="curve"/>
      <point x="391" y="620" type="line"/>
      <point x="361" y="620"/>
      <point x="332" y="616"/>
      <point x="304" y="608" type="curve"/>
      <point x="304" y="608" type="line"/>
      <point x="365" y="703"/>
      <point x="444" y="790"/>
      <point x="524" y="878" type="curve" smooth="yes"/>
      <point x="548" y="904"/>
      <point x="538" y="951"/>
      <point x="503" y="981" type="curve"/>
      <point x="503" y="981" type="line"/>
      <point x="467" y="1012"/>
      <point x="419" y="1015"/>
    </contour>
  </outline>
</glyph>
<glyph name="six" format="1">
  <advance width="790"/>
  <unicode hex="0036"/>
  <outline>
    <contour>
      <point x="197" y="320" type="curve" smooth="yes"/>
      <point x="207" y="402"/>
      <point x="275" y="469"/>
      <point x="347" y="469" type="curve" smooth="yes"/>
      <point x="419" y="469"/>
      <point x="469" y="402"/>
      <point x="458" y="320" type="curve" smooth="yes"/>
      <point x="448" y="237"/>
      <point x="380" y="170"/>
      <point x="308" y="170" type="curve" smooth="yes"/>
      <point x="236" y="170"/>
      <point x="186" y="237"/>
    </contour>
    <contour>
      <point x="398" y="1012" type="curve"/>
      <point x="211" y="805"/>
      <point x="39" y="597"/>
      <point x="3" y="320" type="curve" smooth="yes"/>
      <point x="-21" y="140"/>
      <point x="106" y="-5"/>
      <point x="285" y="-5" type="curve" smooth="yes"/>
      <point x="465" y="-5"/>
      <point x="629" y="140"/>
      <point x="652" y="320" type="curve" smooth="yes"/>
      <point x="674" y="486"/>
      <point x="557" y="620"/>
      <point x="391" y="620" type="curve" smooth="yes"/>
      <point x="358" y="620"/>
      <point x="326" y="615"/>
      <point x="295" y="605" type="curve"/>
      <point x="358" y="710"/>
      <point x="440" y="805"/>
      <point x="527" y="901" type="curve" smooth="yes"/>
      <point x="536" y="911"/>
      <point x="515" y="945"/>
      <point x="480" y="975" type="curve" smooth="yes"/>
      <point x="444" y="1006"/>
      <point x="408" y="1022"/>
    </contour>
  </outline>
</glyph>
<glyph name="Digit_Seven" format="1">
  <advance width="746"/>
  <unicode hex="0037"/>
  <outline>
    <contour>
      <point x="489" y="830" type="line"/>
      <point x="388" y="693" type="line" smooth="yes"/>
      <point x="239" y="492"/>
      <point x="138" y="294"/>
      <point x="106" y="54" type="curve" smooth="yes"/>
      <point x="102" y="21"/>
      <point x="141" y="-5"/>
      <point x="194" y="-5" type="curve" smooth="yes"/>
      <point x="246" y="-5"/>
      <point x="292" y="21"/>
      <point x="296" y="54" type="curve" smooth="yes"/>
      <point x="323" y="257"/>
      <point x="404" y="426"/>
      <point x="532" y="598" type="curve" smooth="yes"/>
      <point x="722" y="854" type="line" smooth="yes"/>
      <point x="742" y="882"/>
      <point x="751" y="919"/>
      <point x="744" y="952" type="curve"/>
      <point x="744" y="952" type="line"/>
      <point x="737" y="985"/>
      <point x="716" y="1005"/>
      <point x="690" y="1005" type="curve" smooth="yes"/>
      <point x="77" y="1005" type="line" smooth="yes"/>
      <point x="41" y="1005"/>
      <point x="7" y="966"/>
      <point x="1" y="917" type="curve"/>
      <point x="1" y="917" type="line"/>
      <point x="-5" y="869"/>
      <point x="18" y="830"/>
      <point x="54" y="830" type="curve" smooth="yes"/>
    </contour>
  </outline>
</glyph>
<glyph name="seven" format="1">
  <advance width="836"/>
  <unicode hex="0037"/>
  <outline>
    <contour>
      <point x="461" y="830" type="line"/>
      <point x="329" y="620" type="line" smooth="yes"/>
      <point x="213" y="434"/>
      <point x="125" y="261"/>
      <point x="98" y="50" type="curve" smooth="yes"/>
      <point x="94" y="19"/>
      <point x="133" y="-5"/>
      <point x="185" y="-5" type="curve" smooth="yes"/>
      <point x="238" y="-5"/>
      <point x="284" y="19"/>
      <point x="288" y="50" type="curve" smooth="yes"/>
      <point x="311" y="231"/>
      <point x="383" y="379"/>
      <point x="483" y="538" type="curve" smooth="yes"/>
      <point x="679" y="852" type="line" smooth="yes"/>
      <point x="698" y="882"/>
      <point x="705" y="919"/>
      <point x="698" y="952" type="curve" smooth="yes"/>
      <point x="691" y="986"/>
      <point x="672" y="1005"/>
      <point x="646" y="1005" type="curve" smooth="yes"/>
      <point x="72" y="1005" type="line" smooth="yes"/>
      <point x="39" y="1005"/>
      <point x="7" y="966"/>
      <point x="1" y="917" type="curve" smooth="yes"/>
      <point x="-5" y="869"/>
      <point x="16" y="830"/>
      <point x="49" y="830" type="curve" smooth="yes"/>
    </contour>
  </outline>
</glyph>
<glyph name="9" format="1">
  <advance width="790"/>
  <unicode hex="0039"/>
  <outline>
    <contour>
      <point x="452" y="680" type="curve"/>
      <point x="452" y="680" type="line"/>
      <point x="441" y="598"/>
      <point x="377" y="531"/>
      <point x="308" y="531" type="curve"/>
      <point x="308" y="531" type="line"/>
      <point x="239" y="531"/>
      <point x="192" y="598"/>
      <point x="203" y="680" type="curve"/>
      <point x="203" y="680" type="line"/>
      <point x="213" y="763"/>
      <point x="278" y="830"/>
      <point x="347" y="830" type="curve"/>
      <point x="347" y="830" type="line"/>
      <point x="416" y="830"/>
      <point x="463" y="763"/>
    </contour>
    <contour>
      <point x="260" y="11" type="curve" smooth="yes"/>
      <point x="441" y="211"/>
      <point x="617" y="409"/>
      <point x="652" y="680" type="curve" smooth="yes"/>
      <point x="676" y="860"/>
      <point x="549" y="1005"/>
      <point x="370" y="1005" type="curve"/>
      <point x="370" y="1005" type="line"/>
      <point x="190" y="1005"/>
      <point x="26" y="860"/>
      <point x="2" y="680" type="curve"/>
      <point x="2" y="680" type="line"/>
      <point x="-19" y="515"/>
      <point x="97" y="381"/>
      <point x="263" y="381" type="curve"/>
      <point x="263" y="381" type="line"/>
      <point x="293" y="381"/>
      <point x="324" y="386"/>
      <point x="353" y="395" type="curve"/>
      <point x="353" y="395" type="line"/>
      <point x="291" y="298"/>
      <point x="211" y="210"/>
      <point x="131" y="122" type="curve" smooth="yes"/>
      <point x="107" y="96"/>
      <point x="117" y="49"/>
      <point x="152" y="19" type="curve"/>
      <point x="152" y="19" type="line"/>
      <point x="188" y="-12"/>
      <point x="236" y="-15"/>
    </contour>
  </outline>
</glyph>
<glyph name="Digit_Nine" format="1">
  <advance width="790"/>
  <unicode hex="0039"/>
  <outline>
    <contour>
      <point x="452" y="680" type="curve"/>
      <point x="452" y="680" type="line"/>
      <point x="441" y="598"/>
      <point x="377" y="531"/>
      <point x="308" y="531" type="curve"/>
      <point x="308" y="531" type="line"/>
      <point x="239" y="531"/>
      <point x="192" y="598"/>
      <point x="203" y="680" type="curve"/>
      <point x="203" y="680" type="line"/>
      <point x="213" y="763"/>
      <point x="278" y="830"/>
      <point x="347" y="830" type="curve"/>
      <point x="347" y="830" type="line"/>
      <point x="416" y="830"/>
      <point x="463" y="763"/>
    </contour>
    <contour>
      <point x="260" y="11" type="curve" smooth="yes"/>
      <point x="441" y="211"/>
      <point x="617" y="409"/>
      <point x="652" y="680" type="curve" smooth="yes"/>
      <point x="676" y="860"/>
      <point x="549" y="1005"/>
      <point x="370" y="1005" type="curve"/>
      <point x="370" y="1005" type="line"/>
      <point x="190" y="1005"/>
      <point x="26" y="860"/>
      <point x="2" y="680" type="curve"/>
      <point x="2" y="680" type="line"/>
      <point x="-19" y="514"/>
      <point x="98" y="380"/>
      <point x="264" y="380" type="curve"/>
      <point x="264" y="380" type="line"/>
      <point x="294" y="380"/>
      <point x="323" y="384"/>
      <point x="351" y="392" type="curve"/>
      <point x="351" y="392" type="line"/>
      <point x="290" y="297"/>
      <point x="211" y="210"/>
      <point x="131" y="122" type="curve" smooth="yes"/>
      <point x="107" y="96"/>
      <point x="117" y="49"/>
      <point x="152" y="19" type="curve"/>
      <point x="152" y="19" type="line"/>
      <point x="188" y="-12"/>
      <point x="236" y="-15"/>
    </contour>
  </outline>
</glyph>
<glyph name="nine" format="1">
  <advance width="790"/>
  <unicode hex="0039"/>
  <outline>
    <contour>
      <point x="452" y="680" type="curve" smooth="yes"/>
      <point x="441" y="598"/>
      <point x="377" y="531"/>
      <point x="308" y="531" type="curve" smooth="yes"/>
      <point x="239" y="531"/>
      <point x="192" y="598"/>
      <point x="203" y="680" type="curve" smooth="yes"/>
      <point x="213" y="763"/>
      <point x="278" y="830"/>
      <point x="347" y="830" type="curve" smooth="yes"/>
      <point x="416" y="830"/>
      <point x="463" y="763"/>
    </contour>
    <contour>
      <point x="260" y="8" type="curve" smooth="yes"/>
      <point x="442" y="209"/>
      <point x="617" y="409"/>
      <point x="652" y="680" type="curve" smooth="yes"/>
      <point x="676" y="860"/>
      <point x="549" y="1005"/>
      <point x="370" y="1005" type="curve" smooth="yes"/>
      <point x="190" y="1005"/>
      <point x="26" y="860"/>
      <point x="2" y="680" type="curve" smooth="yes"/>
      <point x="-19" y="514"/>
      <point x="98" y="380"/>
      <point x="264" y="380" type="curve" smooth="yes"/>
      <point x="294" y="380"/>
      <point x="324" y="384"/>
      <point x="352" y="393" type="curve"/>
      <point x="291" y="296"/>
      <point x="211" y="208"/>
      <point x="131" y="119" type="curve" smooth="yes"/>
      <point x="109" y="95"/>
      <point x="120" y="50"/>
      <point x="155" y="19" type="curve" smooth="yes"/>
      <point x="191" y="-11"/>
      <point x="237" y="-16"/>
    </contour>
  </outline>
</glyph>
<glyph name="colon" format="1">
  <advance width="408"/>
  <unicode hex="003A"/>
  <outline>
    <contour>
      <point x="220" y="138" type="line" smooth="yes"/>
      <point x="224" y="172"/>
      <point x="181" y="199"/>
      <point x="123" y="199" type="curve" smooth="yes"/>
      <point x="66" y="199"/>
      <point x="15" y="172"/>
      <point x="11" y="138" type="curve" smooth="yes"/>
      <point x="0" y="55" type="line" smooth="yes"/>
      <point x="-4" y="22"/>
      <point x="39" y="-5"/>
      <point x="97" y="-5" type="curve" smooth="yes"/>
      <point x="155" y="-5"/>
      <point x="205" y="22"/>
      <point x="209" y="55" type="curve" smooth="yes"/>
    </contour>
    <contour>
      <point x="272" y="538" type="line" smooth="yes"/>
      <point x="276" y="572"/>
      <point x="233" y="599"/>
      <point x="175" y="599" type="curve" smooth="yes"/>
      <point x="118" y="599"/>
      <point x="67" y="572"/>
      <point x="63" y="538" type="curve" smooth="yes"/>
      <point x="52" y="455" type="line" smooth="yes"/>
      <point x="48" y="422"/>
      <point x="91" y="395"/>
      <point x="149" y="395" type="curve" smooth="yes"/>
      <point x="207" y="395"/>
      <point x="257" y="422"/>
      <point x="261" y="455" type="curve" smooth="yes"/>
    </contour>
  </outline>
</glyph>
<glyph name="semicolon" format="1">
  <advance width="410"/>
  <unicode hex="003B"/>
  <outline>
    <contour>
      <point x="223" y="138" type="curve" smooth="yes"/>
      <point x="227" y="172"/>
      <point x="184" y="199"/>
      <point x="126" y="199" type="curve" smooth="yes"/>
      <point x="68" y="199"/>
      <point x="18" y="172"/>
      <point x="14" y="138" type="curve" smooth="yes"/>
      <point x="3" y="55" type="line" smooth="yes"/>
      <point x="0" y="34"/>
      <point x="17" y="14"/>
      <point x="46" y="4" type="curve" smooth="yes"/>
      <point x="54" y="1"/>
      <point x="58" y="-9"/>
      <point x="57" y="-21" type="curve"/>
      <point x="57" y="-33"/>
      <point x="51" y="-45"/>
      <point x="43" y="-50" type="curve"/>
      <point x="12" y="-66" type="line" smooth="yes"/>
      <point x="1" y="-71"/>
      <point x="-3" y="-88"/>
      <point x="3" y="-104" type="curve" smooth="yes"/>
      <point x="9" y="-120"/>
      <point x="23" y="-129"/>
      <point x="33" y="-123" type="curve"/>
      <point x="141" y="-72"/>
      <point x="208" y="27"/>
    </contour>
    <contour>
      <point x="275" y="538" type="line" smooth="yes"/>
      <point x="279" y="572"/>
      <point x="236" y="599"/>
      <point x="178" y="599" type="curve" smooth="yes"/>
      <point x="120" y="599"/>
      <point x="70" y="572"/>
      <point x="66" y="538" type="curve" smooth="yes"/>
      <point x="55" y="455" type="line" smooth="yes"/>
      <point x="51" y="422"/>
      <point x="94" y="395"/>
      <point x="152" y="395" type="curve" smooth="yes"/>
      <point x="209" y="395"/>
      <point x="260" y="422"/>
      <point x="264" y="455" type="curve" smooth="yes"/>
    </contour>
  </outline>
</glyph>
<glyph name="less" format="1">
  <advance width="765"/>
  <unicode hex="003C"/>
  <outline>
    <contour>
      <point x="459" y="200" type="line"/>
      <point x="466" y="197"/>
      <point x="475" y="195"/>
      <point x="485" y="197" type="curve" smooth="yes"/>
      <point x="521" y="204"/>
      <point x="560" y="247"/>
      <point x="573" y="292" type="curve" smooth="yes"/>
      <point x="582" y="325"/>
      <point x="575" y="351"/>
      <point x="557" y="360" type="curve" smooth="yes"/>
      <point x="259" y="510" type="line"/>
      <point x="596" y="660" type="line" smooth="yes"/>
      <point x="616" y="669"/>
      <point x="630" y="695"/>
      <point x="630" y="728" type="curve" smooth="yes"/>
      <point x="629" y="773"/>
      <point x="600" y="816"/>
      <point x="566" y="823" type="curve" smooth="yes"/>
      <point x="557" y="825"/>
      <point x="548" y="823"/>
      <point x="540" y="820" type="curve"/>
      <point x="61" y="606" type="line" smooth="yes"/>
      <point x="32" y="593"/>
      <point x="7" y="555"/>
      <point x="1" y="510" type="curve" smooth="yes"/>
      <point x="-5" y="465"/>
      <point x="10" y="427"/>
      <point x="36" y="414" type="curve" smooth="yes"/>
    </contour>
  </outline>
</glyph>
<glyph name="equal" format="1">
  <advance width="830"/>
  <unicode hex="003D"/>
  <outline>
    <contour>
      <point x="623" y="587" type="line" smooth="yes"/>
      <point x="656" y="587"/>
      <point x="688" y="626"/>
      <point x="694" y="675" type="curve" smooth="yes"/>
      <point x="700" y="724"/>
      <point x="679" y="763"/>
      <point x="646" y="763" type="curve" smooth="yes"/>
      <point x="115" y="763" type="line" smooth="yes"/>
      <point x="82" y="763"/>
      <point x="50" y="724"/>
      <point x="44" y="675" type="curve" smooth="yes"/>
      <point x="38" y="626"/>
      <point x="59" y="587"/>
      <point x="92" y="587" type="curve" smooth="yes"/>
    </contour>
    <contour>
      <point x="580" y="257" type="line" smooth="yes"/>
      <point x="613" y="257"/>
      <point x="645" y="296"/>
      <point x="651" y="345" type="curve" smooth="yes"/>
      <point x="657" y="394"/>
      <point x="636" y="433"/>
      <point x="603" y="433" type="curve" smooth="yes"/>
      <point x="72" y="433" type="line" smooth="yes"/>
      <point x="39" y="433"/>
      <point x="7" y="394"/>
      <point x="1" y="345" type="curve" smooth="yes"/>
      <point x="-5" y="296"/>
      <point x="16" y="257"/>
      <point x="49" y="257" type="curve" smooth="yes"/>
    </contour>
  </outline>
</glyph>
<glyph name="greater" format="1">
  <advance width="765"/>
  <unicode hex="003E"/>
  <outline>
    <contour>
      <point x="90" y="200" type="curve"/>
      <point x="568" y="414" type="line" smooth="yes"/>
      <point x="598" y="427"/>
      <point x="622" y="465"/>
      <point x="628" y="510" type="curve" smooth="yes"/>
      <point x="634" y="555"/>
      <point x="619" y="593"/>
      <point x="593" y="606" type="curve" smooth="yes"/>
      <point x="171" y="820" type="line"/>
      <point x="163" y="823"/>
      <point x="155" y="825"/>
      <point x="145" y="823" type="curve" smooth="yes"/>
      <point x="109" y="816"/>
      <point x="69" y="773"/>
      <point x="57" y="728" type="curve" smooth="yes"/>
      <point x="48" y="695"/>
      <point x="55" y="669"/>
      <point x="73" y="660" type="curve" smooth="yes"/>
      <point x="370" y="510" type="line"/>
      <point x="34" y="360" type="line" smooth="yes"/>
      <point x="13" y="351"/>
      <point x="-1" y="325"/>
      <point x="0" y="292" type="curve" smooth="yes"/>
      <point x="1" y="247"/>
      <point x="29" y="204"/>
      <point x="63" y="197" type="curve" smooth="yes"/>
      <point x="73" y="195"/>
      <point x="82" y="197"/>
    </contour>
  </outline>
</glyph>
<glyph name="question" format="1">
  <advance width="792"/>
  <unicode hex="003F"/>
  <outline>
    <contour>
      <point x="349" y="167" type="line" smooth="yes"/>
      <point x="351" y="181"/>
      <point x="306" y="193"/>
      <point x="248" y="193" type="curve" smooth="yes"/>
      <point x="190" y="193"/>
      <point x="142" y="181"/>
      <point x="140" y="167" type="curve" smooth="yes"/>
      <point x="121" y="21" type="line" smooth="yes"/>
      <point x="119" y="6"/>
      <point x="164" y="-5"/>
      <point x="222" y="-5" type="curve" smooth="yes"/>
      <point x="280" y="-5"/>
      <point x="328" y="6"/>
      <point x="330" y="21" type="curve" smooth="yes"/>
    </contour>
    <contour>
      <point x="0" y="786" type="curve"/>
      <point x="-3" y="778"/>
      <point x="10" y="766"/>
      <point x="35" y="753" type="curve" smooth="yes"/>
      <point x="61" y="740"/>
      <point x="92" y="731"/>
      <point x="121" y="726" type="curve" smooth="yes"/>
      <point x="150" y="722"/>
      <point x="168" y="724"/>
      <point x="173" y="733" type="curve"/>
      <point x="205" y="799"/>
      <point x="281" y="839"/>
      <point x="354" y="828" type="curve" smooth="yes"/>
      <point x="427" y="817"/>
      <point x="473" y="759"/>
      <point x="464" y="689" type="curve" smooth="yes"/>
      <point x="458" y="638"/>
      <point x="407" y="613"/>
      <point x="371" y="589" type="curve" smooth="yes"/>
      <point x="281" y="530"/>
      <point x="187" y="458"/>
      <point x="172" y="344" type="curve"/>
      <point x="171" y="331"/>
      <point x="212" y="320"/>
      <point x="264" y="320" type="curve" smooth="yes"/>
      <point x="317" y="320"/>
      <point x="361" y="331"/>
      <point x="362" y="344" type="curve"/>
      <point x="369" y="395"/>
      <point x="419" y="420"/>
      <point x="456" y="444" type="curve" smooth="yes"/>
      <point x="545" y="502"/>
      <point x="639" y="575"/>
      <point x="654" y="689" type="curve" smooth="yes"/>
      <point x="675" y="846"/>
      <point x="571" y="977"/>
      <point x="406" y="1001" type="curve" smooth="yes"/>
      <point x="242" y="1026"/>
      <point x="72" y="936"/>
    </contour>
  </outline>
</glyph>
<glyph name="A" format="1">
  <advance width="993"/>
  <unicode hex="0041"/>
  <outline>
    <contour>
      <point x="367" y="408" type="line"/>
      <point x="515" y="711" type="line"/>
      <point x="584" y="408" type="line"/>
    </contour>
    <contour>
      <point x="668" y="39" type="line" smooth="yes"/>
      <point x="675" y="9"/>
      <point x="723" y="-10"/>
      <point x="775" y="-4" type="curve" smooth="yes"/>
      <point x="827" y="2"/>
      <point x="864" y="31"/>
      <point x="857" y="61" type="curve" smooth="yes"/>
      <point x="654" y="955" type="line" smooth="yes"/>
      <point x="647" y="985"/>
      <point x="606" y="1005"/>
      <point x="553" y="1005" type="curve" smooth="yes"/>
      <point x="501" y="1005"/>
      <point x="454" y="985"/>
      <point x="440" y="955" type="curve" smooth="yes"/>
      <point x="4" y="61" type="line" smooth="yes"/>
      <point x="-11" y="31"/>
      <point x="18" y="2"/>
      <point x="69" y="-4" type="curve" smooth="yes"/>
      <point x="120" y="-10"/>
      <point x="172" y="9"/>
      <point x="187" y="39" type="curve" smooth="yes"/>
      <point x="281" y="232" type="line"/>
      <point x="624" y="232" type="line"/>
    </contour>
  </outline>
</glyph>
<glyph name="B" format="1">
  <advance width="869"/>
  <unicode hex="0042"/>
  <outline>
    <contour>
      <point x="244" y="442" type="line"/>
      <point x="415" y="442" type="line" smooth="yes"/>
      <point x="492" y="442"/>
      <point x="547" y="382"/>
      <point x="537" y="309" type="curve" smooth="yes"/>
      <point x="528" y="235"/>
      <point x="457" y="176"/>
      <point x="380" y="176" type="curve" smooth="yes"/>
      <point x="209" y="176" type="line"/>
    </contour>
    <contour>
      <point x="294" y="824" type="line"/>
      <point x="437" y="824" type="line" smooth="yes"/>
      <point x="497" y="824"/>
      <point x="539" y="778"/>
      <point x="532" y="721" type="curve" smooth="yes"/>
      <point x="524" y="664"/>
      <point x="470" y="618"/>
      <point x="410" y="618" type="curve" smooth="yes"/>
      <point x="267" y="618" type="line"/>
    </contour>
    <contour>
      <point x="357" y="0" type="line" smooth="yes"/>
      <point x="542" y="0"/>
      <point x="709" y="138"/>
      <point x="732" y="309" type="curve" smooth="yes"/>
      <point x="745" y="416"/>
      <point x="682" y="507"/>
      <point x="582" y="538" type="curve"/>
      <point x="657" y="573"/>
      <point x="715" y="642"/>
      <point x="725" y="721" type="curve" smooth="yes"/>
      <point x="745" y="875"/>
      <point x="626" y="1000"/>
      <point x="460" y="1000" type="curve" smooth="yes"/>
      <point x="236" y="1000" type="line" smooth="yes"/>
      <point x="175" y="1000"/>
      <point x="125" y="988"/>
      <point x="123" y="973" type="curve" smooth="yes"/>
      <point x="0" y="27" type="line" smooth="yes"/>
      <point x="-2" y="12"/>
      <point x="45" y="0"/>
      <point x="106" y="0" type="curve" smooth="yes"/>
    </contour>
  </outline>
</glyph>
<glyph name="C" format="1">
  <advance width="947"/>
  <unicode hex="0043"/>
  <outline>
    <contour>
      <point x="398" y="0" type="line" smooth="yes"/>
      <point x="516" y="0"/>
      <point x="629" y="53"/>
      <point x="716" y="139" type="curve"/>
      <point x="722" y="146"/>
      <point x="718" y="163"/>
      <point x="703" y="186" type="curve" smooth="yes"/>
      <point x="688" y="209"/>
      <point x="667" y="231"/>
      <point x="645" y="248" type="curve" smooth="yes"/>
      <point x="624" y="264"/>
      <point x="607" y="270"/>
      <point x="600" y="264" type="curve"/>
      <point x="549" y="211"/>
      <point x="486" y="176"/>
      <point x="421" y="176" type="curve" smooth="yes"/>
      <point x="391" y="176" type="line" smooth="yes"/>
      <point x="255" y="176"/>
      <point x="181" y="308"/>
      <point x="202" y="472" type="curve" smooth="yes"/>
      <point x="209" y="528" type="line" smooth="yes"/>
      <point x="229" y="683"/>
      <point x="349" y="824"/>
      <point x="475" y="824" type="curve" smooth="yes"/>
      <point x="506" y="824" type="line" smooth="yes"/>
      <point x="575" y="824"/>
      <point x="630" y="791"/>
      <point x="664" y="737" type="curve"/>
      <point x="672" y="728"/>
      <point x="711" y="748"/>
      <point x="752" y="782" type="curve" smooth="yes"/>
      <point x="792" y="816"/>
      <point x="819" y="852"/>
      <point x="811" y="862" type="curve" smooth="yes"/>
      <point x="745" y="947"/>
      <point x="646" y="1000"/>
      <point x="528" y="1000" type="curve" smooth="yes"/>
      <point x="498" y="1000" type="line" smooth="yes"/>
      <point x="263" y="1000"/>
      <point x="46" y="788"/>
      <point x="12" y="528" type="curve" smooth="yes"/>
      <point x="4" y="472" type="line" smooth="yes"/>
      <point x="-29" y="212"/>
      <point x="133" y="0"/>
      <point x="368" y="0" type="curve" smooth="yes"/>
    </contour>
  </outline>
</glyph>
<glyph name="Latin_Capital_Letter_C" format="1">
  <advance width="954"/>
  <unicode hex="0043"/>
  <outline>
    <contour>
      <point x="398" y="0" type="line" smooth="yes"/>
      <point x="516" y="0"/>
      <point x="629" y="53"/>
      <point x="716" y="139" type="curve" smooth="yes"/>
      <point x="732" y="156"/>
      <point x="737" y="181"/>
      <point x="727" y="208" type="curve" smooth="yes"/>
      <point x="718" y="236"/>
      <point x="697" y="259"/>
      <point x="670" y="270" type="curve" smooth="yes"/>
      <point x="643" y="282"/>
      <point x="618" y="280"/>
      <point x="600" y="264" type="curve"/>
      <point x="549" y="211"/>
      <point x="486" y="176"/>
      <point x="421" y="176" type="curve" smooth="yes"/>
      <point x="392" y="176" type="line" smooth="yes"/>
      <point x="262" y="176"/>
      <point x="192" y="308"/>
      <point x="213" y="472" type="curve" smooth="yes"/>
      <point x="220" y="528" type="line" smooth="yes"/>
      <point x="241" y="683"/>
      <point x="356" y="824"/>
      <point x="476" y="824" type="curve" smooth="yes"/>
      <point x="506" y="824" type="line" smooth="yes"/>
      <point x="575" y="824"/>
      <point x="630" y="791"/>
      <point x="664" y="737" type="curve"/>
      <point x="684" y="713"/>
      <point x="733" y="721"/>
      <point x="773" y="756" type="curve" smooth="yes"/>
      <point x="814" y="790"/>
      <point x="831" y="837"/>
      <point x="811" y="862" type="curve" smooth="yes"/>
      <point x="745" y="947"/>
      <point x="646" y="1000"/>
      <point x="528" y="1000" type="curve" smooth="yes"/>
      <point x="498" y="1000" type="line" smooth="yes"/>
      <point x="263" y="1000"/>
      <point x="46" y="788"/>
      <point x="12" y="528" type="curve" smooth="yes"/>
      <point x="4" y="472" type="line" smooth="yes"/>
      <point x="-29" y="212"/>
      <point x="133" y="0"/>
      <point x="368" y="0" type="curve" smooth="yes"/>
    </contour>
  </outline>
</glyph>
<glyph name="D" format="1">
  <advance width="959"/>
  <unicode hex="0044"/>
  <outline>
    <contour>
      <point x="326" y="0" type="line" smooth="yes"/>
      <point x="560" y="0"/>
      <point x="778" y="212"/>
      <point x="812" y="472" type="curve" smooth="yes"/>
      <point x="819" y="528" type="line" smooth="yes"/>
      <point x="853" y="788"/>
      <point x="690" y="1000"/>
      <point x="456" y="1000" type="curve" smooth="yes"/>
      <point x="231" y="1000" type="line" smooth="yes"/>
      <point x="171" y="1000"/>
      <point x="118" y="972"/>
      <point x="114" y="937" type="curve" smooth="yes"/>
      <point x="0" y="63" type="line" smooth="yes"/>
      <point x="-4" y="28"/>
      <point x="41" y="0"/>
      <point x="101" y="0" type="curve" smooth="yes"/>
    </contour>
    <contour>
      <point x="289" y="824" type="line"/>
      <point x="450" y="824" type="line" smooth="yes"/>
      <point x="579" y="824"/>
      <point x="650" y="692"/>
      <point x="629" y="528" type="curve" smooth="yes"/>
      <point x="622" y="472" type="line" smooth="yes"/>
      <point x="601" y="317"/>
      <point x="486" y="176"/>
      <point x="366" y="176" type="curve" smooth="yes"/>
      <point x="205" y="176" type="line"/>
    </contour>
  </outline>
</glyph>
<glyph name="Latin_Capital_Letter_D" format="1">
  <advance width="868"/>
  <unicode hex="0044"/>
  <outline>
    <contour>
      <point x="370" y="0" type="line" smooth="yes"/>
      <point x="605" y="0"/>
      <point x="822" y="212"/>
      <point x="856" y="472" type="curve" smooth="yes"/>
      <point x="863" y="528" type="line" smooth="yes"/>
      <point x="897" y="788"/>
      <point x="735" y="1000"/>
      <point x="500" y="1000" type="curve" smooth="yes"/>
      <point x="231" y="1000" type="line" smooth="yes"/>
      <point x="170" y="1000"/>
      <point x="117" y="969"/>
      <point x="113" y="932" type="curve" smooth="yes"/>
      <point x="0" y="68" type="line" smooth="yes"/>
      <point x="-5" y="31"/>
      <point x="40" y="0"/>
      <point x="101" y="0" type="curve" smooth="yes"/>
    </contour>
    <contour>
      <point x="289" y="824" type="line"/>
      <point x="495" y="824" type="line" smooth="yes"/>
      <point x="624" y="824"/>
      <point x="695" y="692"/>
      <point x="673" y="528" type="curve" smooth="yes"/>
      <point x="666" y="472" type="line" smooth="yes"/>
      <point x="646" y="317"/>
      <point x="531" y="176"/>
      <point x="411" y="176" type="curve" smooth="yes"/>
      <point x="204" y="176" type="line"/>
    </contour>
  </outline>
</glyph>
<glyph name="E" format="1">
  <advance width="900"/>
  <unicode hex="0045"/>
  <outline>
    <contour>
      <point x="583" y="7" type="line" smooth="yes"/>
      <point x="618" y="7"/>
      <point x="652" y="46"/>
      <point x="658" y="95" type="curve"/>
      <point x="658" y="95" type="line"/>
      <point x="665" y="144"/>
      <point x="641" y="183"/>
      <point x="606" y="183" type="curve" smooth="yes"/>
      <point x="205" y="183" type="line"/>
      <point x="236" y="422" type="line"/>
      <point x="469" y="422" type="line" smooth="yes"/>
      <point x="504" y="422"/>
      <point x="538" y="461"/>
      <point x="544" y="510" type="curve"/>
      <point x="544" y="510" type="line"/>
      <point x="551" y="559"/>
      <point x="527" y="598"/>
      <point x="492" y="598" type="curve" smooth="yes"/>
      <point x="259" y="598" type="line"/>
      <point x="288" y="817" type="line"/>
      <point x="688" y="817" type="line" smooth="yes"/>
      <point x="724" y="817"/>
      <point x="757" y="856"/>
      <point x="764" y="905" type="curve"/>
      <point x="764" y="905" type="line"/>
      <point x="770" y="954"/>
      <point x="746" y="993"/>
      <point x="711" y="993" type="curve" smooth="yes"/>
      <point x="231" y="1000" type="line" smooth="yes"/>
      <point x="170" y="1000"/>
      <point x="117" y="969"/>
      <point x="113" y="932" type="curve" smooth="yes"/>
      <point x="0" y="68" type="line" smooth="yes"/>
      <point x="-5" y="31"/>
      <point x="40" y="0"/>
      <point x="101" y="0" type="curve" smooth="yes"/>
    </contour>
  </outline>
</glyph>
<glyph name="Latin_Capital_Letter_E" format="1">
  <advance width="896"/>
  <unicode hex="0045"/>
  <outline>
    <contour>
      <point x="577" y="0" type="line" smooth="yes"/>
      <point x="613" y="0"/>
      <point x="646" y="39"/>
      <point x="653" y="88" type="curve"/>
      <point x="653" y="88" type="line"/>
      <point x="659" y="136"/>
      <point x="635" y="176"/>
      <point x="600" y="176" type="curve" smooth="yes"/>
      <point x="204" y="176" type="line"/>
      <point x="236" y="422" type="line"/>
      <point x="469" y="422" type="line" smooth="yes"/>
      <point x="504" y="422"/>
      <point x="538" y="461"/>
      <point x="544" y="510" type="curve"/>
      <point x="544" y="510" type="line"/>
      <point x="551" y="559"/>
      <point x="527" y="598"/>
      <point x="492" y="598" type="curve" smooth="yes"/>
      <point x="259" y="598" type="line"/>
      <point x="289" y="824" type="line"/>
      <point x="684" y="824" type="line" smooth="yes"/>
      <point x="720" y="824"/>
      <point x="754" y="864"/>
      <point x="760" y="912" type="curve"/>
      <point x="760" y="912" type="line"/>
      <point x="766" y="961"/>
      <point x="743" y="1000"/>
      <point x="707" y="1000" type="curve" smooth="yes"/>
      <point x="231" y="1000" type="line" smooth="yes"/>
      <point x="170" y="1000"/>
      <point x="117" y="969"/>
      <point x="113" y="932" type="curve" smooth="yes"/>
      <point x="0" y="68" type="line" smooth="yes"/>
      <point x="-5" y="31"/>
      <point x="40" y="0"/>
      <point x="101" y="0" type="curve" smooth="yes"/>
    </contour>
  </outline>
</glyph>
<glyph name="F" format="1">
  <advance width="902"/>
  <unicode hex="0046"/>
  <outline>
    <contour>
      <point x="190" y="54" type="curve" smooth="yes"/>
      <point x="238" y="422" type="line"/>
      <point x="471" y="422" type="line" smooth="yes"/>
      <point x="506" y="422"/>
      <point x="540" y="461"/>
      <point x="546" y="510" type="curve"/>
      <point x="546" y="510" type="line"/>
      <point x="552" y="559"/>
      <point x="529" y="598"/>
      <point x="493" y="598" type="curve" smooth="yes"/>
      <point x="261" y="598" type="line"/>
      <point x="289" y="817" type="line"/>
      <point x="690" y="817" type="line" smooth="yes"/>
      <point x="725" y="817"/>
      <point x="759" y="856"/>
      <point x="766" y="905" type="curve"/>
      <point x="766" y="905" type="line"/>
      <point x="772" y="954"/>
      <point x="748" y="993"/>
      <point x="713" y="993" type="curve" smooth="yes"/>
      <point x="233" y="1000" type="line" smooth="yes"/>
      <point x="172" y="1000"/>
      <point x="119" y="969"/>
      <point x="114" y="932" type="curve" smooth="yes"/>
      <point x="0" y="54" type="line" smooth="yes"/>
      <point x="-4" y="21"/>
      <point x="35" y="-5"/>
      <point x="88" y="-5" type="curve" smooth="yes"/>
      <point x="140" y="-5"/>
      <point x="186" y="21"/>
    </contour>
  </outline>
</glyph>
<glyph name="Latin_Capital_Letter_G" format="1">
  <advance width="888"/>
  <unicode hex="0047"/>
  <outline>
    <contour>
      <point x="541" y="558" type="line" smooth="yes"/>
      <point x="506" y="558"/>
      <point x="472" y="519"/>
      <point x="466" y="470" type="curve" smooth="yes"/>
      <point x="459" y="421"/>
      <point x="483" y="382"/>
      <point x="518" y="382" type="curve" smooth="yes"/>
      <point x="671" y="382" type="line"/>
      <point x="626" y="266"/>
      <point x="526" y="176"/>
      <point x="421" y="176" type="curve" smooth="yes"/>
      <point x="392" y="176" type="line" smooth="yes"/>
      <point x="262" y="176"/>
      <point x="192" y="308"/>
      <point x="213" y="472" type="curve" smooth="yes"/>
      <point x="220" y="528" type="line" smooth="yes"/>
      <point x="241" y="683"/>
      <point x="356" y="824"/>
      <point x="476" y="824" type="curve" smooth="yes"/>
      <point x="506" y="824" type="line" smooth="yes"/>
      <point x="575" y="824"/>
      <point x="630" y="791"/>
      <point x="664" y="737" type="curve"/>
      <point x="684" y="713"/>
      <point x="733" y="721"/>
      <point x="773" y="756" type="curve" smooth="yes"/>
      <point x="814" y="790"/>
      <point x="831" y="837"/>
      <point x="811" y="862" type="curve" smooth="yes"/>
      <point x="745" y="947"/>
      <point x="646" y="1000"/>
      <point x="528" y="1000" type="curve" smooth="yes"/>
      <point x="498" y="1000" type="line" smooth="yes"/>
      <point x="263" y="1000"/>
      <point x="46" y="788"/>
      <point x="12" y="528" type="curve" smooth="yes"/>
      <point x="4" y="472" type="line" smooth="yes"/>
      <point x="-29" y="212"/>
      <point x="133" y="0"/>
      <point x="368" y="0" type="curve" smooth="yes"/>
      <point x="398" y="0" type="line" smooth="yes"/>
      <point x="633" y="0"/>
      <point x="850" y="210"/>
      <point x="886" y="470" type="curve" smooth="yes"/>
      <point x="895" y="519"/>
      <point x="872" y="558"/>
      <point x="836" y="558" type="curve" smooth="yes"/>
    </contour>
  </outline>
</glyph>
<glyph name="H" format="1">
  <advance width="1007"/>
  <unicode hex="0048"/>
  <outline>
    <contour>
      <point x="243" y="422" type="line"/>
      <point x="609" y="422" type="line"/>
      <point x="557" y="18" type="line" smooth="yes"/>
      <point x="555" y="5"/>
      <point x="596" y="-5"/>
      <point x="649" y="-5" type="curve" smooth="yes"/>
      <point x="701" y="-5"/>
      <point x="745" y="5"/>
      <point x="747" y="18" type="curve" smooth="yes"/>
      <point x="872" y="982" type="line" smooth="yes"/>
      <point x="874" y="995"/>
      <point x="833" y="1005"/>
      <point x="780" y="1005" type="curve" smooth="yes"/>
      <point x="728" y="1005"/>
      <point x="684" y="995"/>
      <point x="682" y="982" type="curve" smooth="yes"/>
      <point x="632" y="598" type="line"/>
      <point x="265" y="598" type="line"/>
      <point x="315" y="982" type="line" smooth="yes"/>
      <point x="317" y="995"/>
      <point x="276" y="1005"/>
      <point x="223" y="1005" type="curve" smooth="yes"/>
      <point x="171" y="1005"/>
      <point x="127" y="995"/>
      <point x="125" y="982" type="curve" smooth="yes"/>
      <point x="0" y="18" type="line" smooth="yes"/>
      <point x="-2" y="5"/>
      <point x="39" y="-5"/>
      <point x="92" y="-5" type="curve" smooth="yes"/>
      <point x="144" y="-5"/>
      <point x="188" y="5"/>
      <point x="190" y="18" type="curve" smooth="yes"/>
    </contour>
  </outline>
</glyph>
<glyph name="Latin_Capital_Letter_H" format="1">
  <advance width="1064"/>
  <unicode hex="0048"/>
  <outline>
    <contour>
      <point x="238" y="422" type="line"/>
      <point x="670" y="422" type="line"/>
      <point x="623" y="54" type="line" smooth="yes"/>
      <point x="618" y="21"/>
      <point x="657" y="-5"/>
      <point x="710" y="-5" type="curve" smooth="yes"/>
      <point x="762" y="-5"/>
      <point x="808" y="21"/>
      <point x="813" y="54" type="curve" smooth="yes"/>
      <point x="928" y="946" type="line" smooth="yes"/>
      <point x="933" y="979"/>
      <point x="894" y="1005"/>
      <point x="841" y="1005" type="curve" smooth="yes"/>
      <point x="789" y="1005"/>
      <point x="743" y="979"/>
      <point x="738" y="946" type="curve" smooth="yes"/>
      <point x="693" y="598" type="line"/>
      <point x="261" y="598" type="line"/>
      <point x="306" y="946" type="line" smooth="yes"/>
      <point x="310" y="979"/>
      <point x="271" y="1005"/>
      <point x="219" y="1005" type="curve" smooth="yes"/>
      <point x="166" y="1005"/>
      <point x="120" y="979"/>
      <point x="116" y="946" type="curve" smooth="yes"/>
      <point x="0" y="54" type="line" smooth="yes"/>
      <point x="-4" y="21"/>
      <point x="35" y="-5"/>
      <point x="88" y="-5" type="curve" smooth="yes"/>
      <point x="140" y="-5"/>
      <point x="186" y="21"/>
      <point x="190" y="54" type="curve" smooth="yes"/>
    </contour>
  </outline>
</glyph>
<glyph name="I" format="1">
  <advance width="443"/>
  <unicode hex="0049"/>
  <outline>
    <contour>
      <point x="307" y="950" type="line" smooth="yes"/>
      <point x="311" y="981"/>
      <point x="272" y="1005"/>
      <point x="219" y="1005" type="curve" smooth="yes"/>
      <point x="167" y="1005"/>
      <point x="121" y="981"/>
      <point x="117" y="950" type="curve" smooth="yes"/>
      <point x="0" y="50" type="line" smooth="yes"/>
      <point x="-4" y="19"/>
      <point x="36" y="-5"/>
      <point x="88" y="-5" type="curve" smooth="yes"/>
      <point x="141" y="-5"/>
      <point x="186" y="19"/>
      <point x="190" y="50" type="curve" smooth="yes"/>
    </contour>
  </outline>
</glyph>
<glyph name="Latin_Capital_Letter_I" format="1">
  <advance width="307"/>
  <unicode hex="0049"/>
  <outline>
    <contour>
      <point x="306" y="946" type="line" smooth="yes"/>
      <point x="310" y="979"/>
      <point x="271" y="1005"/>
      <point x="219" y="1005" type="curve" smooth="yes"/>
      <point x="166" y="1005"/>
      <point x="120" y="979"/>
      <point x="116" y="946" type="curve" smooth="yes"/>
      <point x="0" y="54" type="line" smooth="yes"/>
      <point x="-4" y="21"/>
      <point x="35" y="-5"/>
      <point x="88" y="-5" type="curve" smooth="yes"/>
      <point x="140" y="-5"/>
      <point x="186" y="21"/>
      <point x="190" y="54" type="curve" smooth="yes"/>
    </contour>
  </outline>
</glyph>
<glyph name="J" format="1">
  <advance width="682"/>
  <unicode hex="004A"/>
  <outline>
    <contour>
      <point x="251" y="167" type="line"/>
      <point x="251" y="169"/>
      <point x="239" y="170"/>
      <point x="218" y="170" type="curve" smooth="yes"/>
      <point x="198" y="171"/>
      <point x="175" y="170"/>
      <point x="159" y="170" type="curve"/>
      <point x="139" y="196"/>
      <point x="88" y="189"/>
      <point x="46" y="155" type="curve" smooth="yes"/>
      <point x="5" y="121"/>
      <point x="-12" y="72"/>
      <point x="9" y="45" type="curve"/>
      <point x="74" y="-5"/>
      <point x="173" y="-19"/>
      <point x="270" y="8" type="curve" smooth="yes"/>
      <point x="367" y="35"/>
      <point x="432" y="96"/>
      <point x="441" y="167" type="curve" smooth="yes"/>
      <point x="547" y="982" type="line"/>
      <point x="548" y="995"/>
      <point x="507" y="1005"/>
      <point x="455" y="1005" type="curve" smooth="yes"/>
      <point x="402" y="1005"/>
      <point x="358" y="995"/>
      <point x="357" y="982" type="curve"/>
    </contour>
  </outline>
</glyph>
<glyph name="K" format="1">
  <advance width="921"/>
  <unicode hex="004B"/>
  <outline>
    <contour>
      <point x="234" y="358" type="line"/>
      <point x="275" y="402" type="line"/>
      <point x="480" y="9" type="line"/>
      <point x="479" y="0"/>
      <point x="496" y="-4"/>
      <point x="525" y="-3" type="curve" smooth="yes"/>
      <point x="555" y="-2"/>
      <point x="589" y="5"/>
      <point x="620" y="15" type="curve" smooth="yes"/>
      <point x="650" y="25"/>
      <point x="667" y="36"/>
      <point x="668" y="45" type="curve"/>
      <point x="401" y="538" type="line"/>
      <point x="785" y="952" type="line"/>
      <point x="787" y="961"/>
      <point x="773" y="972"/>
      <point x="745" y="983" type="curve" smooth="yes"/>
      <point x="718" y="994"/>
      <point x="686" y="1001"/>
      <point x="657" y="1004" type="curve" smooth="yes"/>
      <point x="628" y="1006"/>
      <point x="610" y="1002"/>
      <point x="609" y="993" type="curve"/>
      <point x="267" y="611" type="line"/>
      <point x="315" y="982" type="line" smooth="yes"/>
      <point x="317" y="995"/>
      <point x="276" y="1005"/>
      <point x="223" y="1005" type="curve" smooth="yes"/>
      <point x="171" y="1005"/>
      <point x="127" y="995"/>
      <point x="125" y="982" type="curve" smooth="yes"/>
      <point x="0" y="18" type="line" smooth="yes"/>
      <point x="-2" y="5"/>
      <point x="39" y="-5"/>
      <point x="92" y="-5" type="curve" smooth="yes"/>
      <point x="144" y="-5"/>
      <point x="188" y="5"/>
      <point x="190" y="18" type="curve" smooth="yes"/>
    </contour>
  </outline>
</glyph>
<glyph name="L" format="1">
  <advance width="777"/>
  <unicode hex="004C"/>
  <outline>
    <contour>
      <point x="603" y="0" type="line" smooth="yes"/>
      <point x="617" y="0"/>
      <point x="633" y="39"/>
      <point x="640" y="88" type="curve" smooth="yes"/>
      <point x="646" y="136"/>
      <point x="640" y="176"/>
      <point x="625" y="176" type="curve" smooth="yes"/>
      <point x="209" y="176" type="line"/>
      <point x="314" y="982" type="line" smooth="yes"/>
      <point x="316" y="995"/>
      <point x="275" y="1005"/>
      <point x="222" y="1005" type="curve" smooth="yes"/>
      <point x="170" y="1005"/>
      <point x="126" y="995"/>
      <point x="124" y="982" type="curve" smooth="yes"/>
      <point x="0" y="27" type="line" smooth="yes"/>
      <point x="-2" y="12"/>
      <point x="45" y="0"/>
      <point x="106" y="0" type="curve" smooth="yes"/>
    </contour>
  </outline>
</glyph>
<glyph name="Latin_Capital_Letter_L" format="1">
  <advance width="681"/>
  <unicode hex="004C"/>
  <outline>
    <contour>
      <point x="604" y="0" type="line" smooth="yes"/>
      <point x="640" y="0"/>
      <point x="673" y="39"/>
      <point x="680" y="88" type="curve"/>
      <point x="680" y="88" type="line"/>
      <point x="686" y="136"/>
      <point x="662" y="176"/>
      <point x="627" y="176" type="curve" smooth="yes"/>
      <point x="204" y="176" type="line"/>
      <point x="304" y="946" type="line" smooth="yes"/>
      <point x="309" y="979"/>
      <point x="270" y="1005"/>
      <point x="217" y="1005" type="curve" smooth="yes"/>
      <point x="165" y="1005"/>
      <point x="119" y="979"/>
      <point x="114" y="946" type="curve" smooth="yes"/>
      <point x="0" y="68" type="line" smooth="yes"/>
      <point x="-5" y="31"/>
      <point x="40" y="0"/>
      <point x="101" y="0" type="curve" smooth="yes"/>
    </contour>
  </outline>
</glyph>
<glyph name="Latin_Capital_Letter_M" format="1">
  <advance width="1264"/>
  <unicode hex="004D"/>
  <outline>
    <contour>
      <point x="456" y="51" type="line" smooth="yes"/>
      <point x="462" y="19"/>
      <point x="502" y="-5"/>
      <point x="554" y="-5" type="curve" smooth="yes"/>
      <point x="607" y="-6"/>
      <point x="655" y="16"/>
      <point x="670" y="48" type="curve" smooth="yes"/>
      <point x="905" y="617" type="line"/>
      <point x="938" y="47" type="line" smooth="yes"/>
      <point x="940" y="14"/>
      <point x="985" y="-9"/>
      <point x="1038" y="-5" type="curve" smooth="yes"/>
      <point x="1090" y="-1"/>
      <point x="1131" y="29"/>
      <point x="1129" y="61" type="curve" smooth="yes"/>
      <point x="1067" y="945" type="line" smooth="yes"/>
      <point x="1065" y="979"/>
      <point x="1025" y="1004"/>
      <point x="972" y="1005" type="curve" smooth="yes"/>
      <point x="918" y="1007"/>
      <point x="869" y="985"/>
      <point x="853" y="952" type="curve"/>
      <point x="592" y="307" type="line"/>
      <point x="510" y="949" type="line" smooth="yes"/>
      <point x="504" y="983"/>
      <point x="461" y="1006"/>
      <point x="407" y="1005" type="curve" smooth="yes"/>
      <point x="352" y="1004"/>
      <point x="304" y="979"/>
      <point x="293" y="945" type="curve" smooth="yes"/>
      <point x="2" y="61" type="line" smooth="yes"/>
      <point x="-9" y="29"/>
      <point x="24" y="-1"/>
      <point x="76" y="-5" type="curve" smooth="yes"/>
      <point x="127" y="-9"/>
      <point x="178" y="14"/>
      <point x="189" y="47" type="curve" smooth="yes"/>
      <point x="375" y="630" type="line"/>
    </contour>
  </outline>
</glyph>
<glyph name="M" format="1">
  <advance width="1199"/>
  <unicode hex="004D"/>
  <outline>
    <contour>
      <point x="417" y="445" type="line" smooth="yes"/>
      <point x="424" y="432"/>
      <point x="468" y="423"/>
      <point x="522" y="423" type="curve" smooth="yes"/>
      <point x="576" y="423"/>
      <point x="622" y="432"/>
      <point x="633" y="445" type="curve" smooth="yes"/>
      <point x="839" y="712" type="line"/>
      <point x="749" y="18" type="line" smooth="yes"/>
      <point x="747" y="5"/>
      <point x="788" y="-5"/>
      <point x="841" y="-5" type="curve" smooth="yes"/>
      <point x="893" y="-5"/>
      <point x="937" y="5"/>
      <point x="939" y="18" type="curve" smooth="yes"/>
      <point x="1063" y="978" type="line" smooth="yes"/>
      <point x="1065" y="992"/>
      <point x="1024" y="1004"/>
      <point x="967" y="1005" type="curve" smooth="yes"/>
      <point x="910" y="1006"/>
      <point x="858" y="997"/>
      <point x="847" y="983" type="curve" smooth="yes"/>
      <point x="543" y="583" type="line"/>
      <point x="342" y="983" type="line" smooth="yes"/>
      <point x="335" y="997"/>
      <point x="285" y="1006"/>
      <point x="228" y="1005" type="curve" smooth="yes"/>
      <point x="171" y="1004"/>
      <point x="127" y="992"/>
      <point x="125" y="978" type="curve" smooth="yes"/>
      <point x="0" y="18" type="line" smooth="yes"/>
      <point x="-2" y="5"/>
      <point x="39" y="-5"/>
      <point x="92" y="-5" type="curve" smooth="yes"/>
      <point x="144" y="-5"/>
      <point x="188" y="5"/>
      <point x="190" y="18" type="curve" smooth="yes"/>
      <point x="280" y="712" type="line"/>
    </contour>
  </outline>
</glyph>
<glyph name="N" format="1">
  <advance width="1019"/>
  <unicode hex="004E"/>
  <outline>
    <contour>
      <point x="264" y="625" type="line"/>
      <point x="562" y="27" type="line"/>
      <point x="585" y="0"/>
      <point x="632" y="-11"/>
      <point x="681" y="-3" type="curve" smooth="yes"/>
      <point x="730" y="6"/>
      <point x="765" y="32"/>
      <point x="769" y="63" type="curve" smooth="yes"/>
      <point x="883" y="946" type="line" smooth="yes"/>
      <point x="888" y="979"/>
      <point x="849" y="1005"/>
      <point x="796" y="1005" type="curve" smooth="yes"/>
      <point x="744" y="1005"/>
      <point x="698" y="979"/>
      <point x="693" y="946" type="curve" smooth="yes"/>
      <point x="619" y="375" type="line"/>
      <point x="322" y="973" type="line"/>
      <point x="299" y="1000"/>
      <point x="251" y="1011"/>
      <point x="203" y="1003" type="curve" smooth="yes"/>
      <point x="154" y="994"/>
      <point x="119" y="968"/>
      <point x="115" y="937" type="curve" smooth="yes"/>
      <point x="0" y="54" type="line" smooth="yes"/>
      <point x="-4" y="21"/>
      <point x="35" y="-5"/>
      <point x="88" y="-5" type="curve" smooth="yes"/>
      <point x="140" y="-5"/>
      <point x="186" y="21"/>
      <point x="190" y="54" type="curve" smooth="yes"/>
    </contour>
  </outline>
</glyph>
<glyph name="Latin_Capital_Letter_P" format="1">
  <advance width="748"/>
  <unicode hex="0050"/>
  <outline>
    <contour>
      <point x="190" y="54" type="curve" smooth="yes"/>
      <point x="230" y="362" type="line"/>
      <point x="360" y="362" type="line" smooth="yes"/>
      <point x="550" y="362"/>
      <point x="722" y="502"/>
      <point x="744" y="675" type="curve" smooth="yes"/>
      <point x="746" y="687" type="line" smooth="yes"/>
      <point x="768" y="860"/>
      <point x="633" y="1000"/>
      <point x="443" y="1000" type="curve" smooth="yes"/>
      <point x="233" y="1000" type="line" smooth="yes"/>
      <point x="172" y="1000"/>
      <point x="119" y="969"/>
      <point x="114" y="932" type="curve" smooth="yes"/>
      <point x="0" y="54" type="line" smooth="yes"/>
      <point x="-4" y="21"/>
      <point x="35" y="-5"/>
      <point x="88" y="-5" type="curve" smooth="yes"/>
      <point x="140" y="-5"/>
      <point x="186" y="21"/>
    </contour>
    <contour>
      <point x="290" y="824" type="line"/>
      <point x="420" y="824" type="line" smooth="yes"/>
      <point x="498" y="824"/>
      <point x="554" y="763"/>
      <point x="544" y="687" type="curve" smooth="yes"/>
      <point x="543" y="675" type="line" smooth="yes"/>
      <point x="533" y="598"/>
      <point x="461" y="538"/>
      <point x="383" y="538" type="curve" smooth="yes"/>
      <point x="253" y="538" type="line"/>
    </contour>
  </outline>
</glyph>
<glyph name="P" format="1">
  <advance width="942"/>
  <unicode hex="0050"/>
  <outline>
    <contour>
      <point x="190" y="54" type="curve" smooth="yes"/>
      <point x="230" y="362" type="line"/>
      <point x="419" y="362" type="line" smooth="yes"/>
      <point x="608" y="362"/>
      <point x="781" y="502"/>
      <point x="803" y="675" type="curve" smooth="yes"/>
      <point x="805" y="687" type="line" smooth="yes"/>
      <point x="827" y="860"/>
      <point x="691" y="1000"/>
      <point x="501" y="1000" type="curve" smooth="yes"/>
      <point x="233" y="1000" type="line" smooth="yes"/>
      <point x="172" y="1000"/>
      <point x="119" y="969"/>
      <point x="114" y="932" type="curve" smooth="yes"/>
      <point x="0" y="54" type="line" smooth="yes"/>
      <point x="-4" y="21"/>
      <point x="35" y="-5"/>
      <point x="88" y="-5" type="curve" smooth="yes"/>
      <point x="140" y="-5"/>
      <point x="186" y="21"/>
    </contour>
    <contour>
      <point x="290" y="824" type="line"/>
      <point x="479" y="824" type="line" smooth="yes"/>
      <point x="563" y="824"/>
      <point x="624" y="763"/>
      <point x="615" y="687" type="curve" smooth="yes"/>
      <point x="613" y="675" type="line" smooth="yes"/>
      <point x="603" y="598"/>
      <point x="526" y="538"/>
      <point x="441" y="538" type="curve" smooth="yes"/>
      <point x="253" y="538" type="line"/>
    </contour>
  </outline>
</glyph>
<glyph name="Latin_Capital_Letter_Q" format="1">
  <advance width="896"/>
  <unicode hex="0051"/>
  <outline>
    <contour>
      <point x="212" y="472" type="curve" smooth="yes"/>
      <point x="220" y="528" type="line" smooth="yes"/>
      <point x="240" y="683"/>
      <point x="355" y="824"/>
      <point x="475" y="824" type="curve" smooth="yes"/>
      <point x="506" y="824" type="line" smooth="yes"/>
      <point x="635" y="824"/>
      <point x="706" y="692"/>
      <point x="684" y="528" type="curve" smooth="yes"/>
      <point x="677" y="472" type="line" smooth="yes"/>
      <point x="657" y="317"/>
      <point x="542" y="176"/>
      <point x="422" y="176" type="curve" smooth="yes"/>
      <point x="391" y="176" type="line" smooth="yes"/>
      <point x="262" y="176"/>
      <point x="191" y="308"/>
    </contour>
    <contour>
      <point x="5" y="473" type="line" smooth="yes"/>
      <point x="-19" y="293"/>
      <point x="44" y="141"/>
      <point x="175" y="56" type="curve"/>
      <point x="616" y="-196" type="line"/>
      <point x="639" y="-219"/>
      <point x="684" y="-205"/>
      <point x="717" y="-165" type="curve"/>
      <point x="717" y="-165" type="line"/>
      <point x="750" y="-124"/>
      <point x="758" y="-74"/>
      <point x="735" y="-51" type="curve"/>
      <point x="559" y="33" type="line"/>
      <point x="726" y="102"/>
      <point x="859" y="273"/>
      <point x="885" y="472" type="curve" smooth="yes"/>
      <point x="892" y="528" type="line" smooth="yes"/>
      <point x="926" y="788"/>
      <point x="763" y="1000"/>
      <point x="529" y="1000" type="curve" smooth="yes"/>
      <point x="498" y="1000" type="line" smooth="yes"/>
      <point x="263" y="1000"/>
      <point x="46" y="788"/>
      <point x="12" y="528" type="curve" smooth="yes"/>
    </contour>
  </outline>
</glyph>
<glyph name="Q" format="1">
  <advance width="1032"/>
  <unicode hex="0051"/>
  <outline>
    <contour>
      <point x="202" y="472" type="curve" smooth="yes"/>
      <point x="209" y="528" type="line" smooth="yes"/>
      <point x="229" y="683"/>
      <point x="349" y="824"/>
      <point x="475" y="824" type="curve" smooth="yes"/>
      <point x="506" y="824" type="line" smooth="yes"/>
      <point x="641" y="824"/>
      <point x="716" y="692"/>
      <point x="695" y="528" type="curve" smooth="yes"/>
      <point x="688" y="472" type="line" smooth="yes"/>
      <point x="667" y="317"/>
      <point x="547" y="176"/>
      <point x="422" y="176" type="curve" smooth="yes"/>
      <point x="391" y="176" type="line" smooth="yes"/>
      <point x="255" y="176"/>
      <point x="180" y="308"/>
    </contour>
    <contour>
      <point x="5" y="473" type="line" smooth="yes"/>
      <point x="-19" y="293"/>
      <point x="44" y="140"/>
      <point x="175" y="56" type="curve"/>
      <point x="621" y="-199" type="line"/>
      <point x="627" y="-212"/>
      <point x="657" y="-189"/>
      <point x="687" y="-147" type="curve" smooth="yes"/>
      <point x="717" y="-106"/>
      <point x="736" y="-61"/>
      <point x="730" y="-48" type="curve"/>
      <point x="560" y="33" type="line"/>
      <point x="726" y="103"/>
      <point x="859" y="273"/>
      <point x="885" y="472" type="curve" smooth="yes"/>
      <point x="892" y="528" type="line" smooth="yes"/>
      <point x="926" y="788"/>
      <point x="763" y="1000"/>
      <point x="529" y="1000" type="curve" smooth="yes"/>
      <point x="498" y="1000" type="line" smooth="yes"/>
      <point x="263" y="1000"/>
      <point x="46" y="788"/>
      <point x="12" y="528" type="curve" smooth="yes"/>
    </contour>
  </outline>
</glyph>
<glyph name="Latin_Capital_Letter_R" format="1">
  <advance width="884"/>
  <unicode hex="0052"/>
  <outline>
    <contour>
      <point x="230" y="362" type="line"/>
      <point x="356" y="362" type="line"/>
      <point x="476" y="36" type="line" smooth="yes"/>
      <point x="483" y="16"/>
      <point x="507" y="1"/>
      <point x="540" y="-4" type="curve" smooth="yes"/>
      <point x="574" y="-9"/>
      <point x="607" y="-2"/>
      <point x="633" y="14" type="curve" smooth="yes"/>
      <point x="659" y="30"/>
      <point x="669" y="51"/>
      <point x="662" y="72" type="curve" smooth="yes"/>
      <point x="539" y="405" type="line"/>
      <point x="648" y="459"/>
      <point x="729" y="560"/>
      <point x="744" y="675" type="curve" smooth="yes"/>
      <point x="746" y="687" type="line" smooth="yes"/>
      <point x="768" y="860"/>
      <point x="633" y="1000"/>
      <point x="443" y="1000" type="curve" smooth="yes"/>
      <point x="233" y="1000" type="line" smooth="yes"/>
      <point x="172" y="1000"/>
      <point x="119" y="969"/>
      <point x="114" y="932" type="curve" smooth="yes"/>
      <point x="0" y="54" type="line" smooth="yes"/>
      <point x="-4" y="21"/>
      <point x="35" y="-5"/>
      <point x="88" y="-5" type="curve" smooth="yes"/>
      <point x="140" y="-5"/>
      <point x="186" y="21"/>
      <point x="190" y="54" type="curve" smooth="yes"/>
    </contour>
    <contour>
      <point x="290" y="824" type="line"/>
      <point x="420" y="824" type="line" smooth="yes"/>
      <point x="498" y="824"/>
      <point x="554" y="763"/>
      <point x="544" y="687" type="curve" smooth="yes"/>
      <point x="543" y="675" type="line" smooth="yes"/>
      <point x="533" y="598"/>
      <point x="461" y="538"/>
      <point x="383" y="538" type="curve" smooth="yes"/>
      <point x="253" y="538" type="line"/>
    </contour>
  </outline>
</glyph>
<glyph name="R" format="1">
  <advance width="942"/>
  <unicode hex="0052"/>
  <outline>
    <contour>
      <point x="230" y="362" type="line"/>
      <point x="395" y="362" type="line"/>
      <point x="541" y="25" type="line"/>
      <point x="563" y="-4"/>
      <point x="619" y="-14"/>
      <point x="667" y="2" type="curve" smooth="yes"/>
      <point x="715" y="18"/>
      <point x="736" y="55"/>
      <point x="714" y="83" type="curve"/>
      <point x="579" y="396" type="line"/>
      <point x="697" y="448"/>
      <point x="787" y="553"/>
      <point x="803" y="675" type="curve" smooth="yes"/>
      <point x="805" y="687" type="line" smooth="yes"/>
      <point x="827" y="860"/>
      <point x="691" y="1000"/>
      <point x="501" y="1000" type="curve" smooth="yes"/>
      <point x="233" y="1000" type="line" smooth="yes"/>
      <point x="172" y="1000"/>
      <point x="119" y="969"/>
      <point x="114" y="932" type="curve" smooth="yes"/>
      <point x="0" y="54" type="line" smooth="yes"/>
      <point x="-4" y="21"/>
      <point x="35" y="-5"/>
      <point x="88" y="-5" type="curve" smooth="yes"/>
      <point x="140" y="-5"/>
      <point x="186" y="21"/>
      <point x="190" y="54" type="curve" smooth="yes"/>
    </contour>
    <contour>
      <point x="290" y="824" type="line"/>
      <point x="479" y="824" type="line" smooth="yes"/>
      <point x="563" y="824"/>
      <point x="624" y="763"/>
      <point x="615" y="687" type="curve" smooth="yes"/>
      <point x="613" y="675" type="line" smooth="yes"/>
      <point x="603" y="598"/>
      <point x="526" y="538"/>
      <point x="441" y="538" type="curve" smooth="yes"/>
      <point x="253" y="538" type="line"/>
    </contour>
  </outline>
</glyph>
<glyph name="S" format="1">
  <advance width="826"/>
  <unicode hex="0053"/>
  <outline>
    <contour>
      <point x="688" y="314" type="curve" smooth="yes"/>
      <point x="711" y="490"/>
      <point x="573" y="575"/>
      <point x="412" y="629" type="curve"/>
      <point x="412" y="629" type="line"/>
      <point x="367" y="646"/>
      <point x="283" y="677"/>
      <point x="290" y="731" type="curve"/>
      <point x="288" y="731" type="line"/>
      <point x="295" y="786"/>
      <point x="349" y="830"/>
      <point x="409" y="830" type="curve"/>
      <point x="409" y="830" type="line"/>
      <point x="455" y="830"/>
      <point x="493" y="820"/>
      <point x="523" y="801" type="curve"/>
      <point x="524" y="802" type="line"/>
      <point x="544" y="777"/>
      <point x="593" y="785"/>
      <point x="634" y="818" type="curve"/>
      <point x="634" y="818" type="line"/>
      <point x="675" y="852"/>
      <point x="692" y="900"/>
      <point x="672" y="924" type="curve"/>
      <point x="674" y="925" type="line"/>
      <point x="611" y="979"/>
      <point x="530" y="1005"/>
      <point x="432" y="1005" type="curve"/>
      <point x="432" y="1005" type="line"/>
      <point x="262" y="1005"/>
      <point x="109" y="883"/>
      <point x="89" y="731" type="curve" smooth="yes"/>
      <point x="70" y="580"/>
      <point x="198" y="508"/>
      <point x="336" y="462" type="curve"/>
      <point x="336" y="462" type="line"/>
      <point x="403" y="437"/>
      <point x="495" y="393"/>
      <point x="484" y="314" type="curve"/>
      <point x="485" y="314" type="line"/>
      <point x="475" y="235"/>
      <point x="396" y="170"/>
      <point x="308" y="170" type="curve"/>
      <point x="308" y="170" type="line"/>
      <point x="247" y="170"/>
      <point x="197" y="184"/>
      <point x="157" y="213" type="curve"/>
      <point x="156" y="212" type="line"/>
      <point x="137" y="236"/>
      <point x="88" y="229"/>
      <point x="47" y="195" type="curve"/>
      <point x="47" y="195" type="line"/>
      <point x="6" y="161"/>
      <point x="-12" y="114"/>
      <point x="8" y="89" type="curve"/>
      <point x="7" y="88" type="line"/>
      <point x="79" y="26"/>
      <point x="172" y="-5"/>
      <point x="285" y="-5" type="curve"/>
      <point x="285" y="-5" type="line"/>
      <point x="485" y="-5"/>
      <point x="665" y="138"/>
    </contour>
  </outline>
</glyph>
<glyph name="Latin_Capital_Letter_T" format="1">
  <advance width="950"/>
  <unicode hex="0054"/>
  <outline>
    <contour>
      <point x="491" y="824" type="line"/>
      <point x="738" y="824" type="line" smooth="yes"/>
      <point x="773" y="824"/>
      <point x="807" y="864"/>
      <point x="813" y="912" type="curve"/>
      <point x="813" y="912" type="line"/>
      <point x="820" y="961"/>
      <point x="796" y="1000"/>
      <point x="760" y="1000" type="curve" smooth="yes"/>
      <point x="77" y="1000" type="line" smooth="yes"/>
      <point x="41" y="1000"/>
      <point x="7" y="961"/>
      <point x="1" y="912" type="curve"/>
      <point x="1" y="912" type="line"/>
      <point x="-5" y="864"/>
      <point x="18" y="824"/>
      <point x="54" y="824" type="curve" smooth="yes"/>
      <point x="301" y="824" type="line"/>
      <point x="201" y="54" type="line" smooth="yes"/>
      <point x="196" y="21"/>
      <point x="235" y="-5"/>
      <point x="288" y="-5" type="curve" smooth="yes"/>
      <point x="340" y="-5"/>
      <point x="386" y="21"/>
      <point x="391" y="54" type="curve" smooth="yes"/>
    </contour>
  </outline>
</glyph>
<glyph name="T" format="1">
  <advance width="943"/>
  <unicode hex="0054"/>
  <outline>
    <contour>
      <point x="488" y="824" type="line"/>
      <point x="769" y="824" type="line" smooth="yes"/>
      <point x="783" y="824"/>
      <point x="799" y="864"/>
      <point x="806" y="912" type="curve" smooth="yes"/>
      <point x="812" y="961"/>
      <point x="806" y="1000"/>
      <point x="791" y="1000" type="curve" smooth="yes"/>
      <point x="40" y="1000" type="line" smooth="yes"/>
      <point x="25" y="1000"/>
      <point x="9" y="961"/>
      <point x="2" y="912" type="curve" smooth="yes"/>
      <point x="-4" y="864"/>
      <point x="3" y="824"/>
      <point x="17" y="824" type="curve" smooth="yes"/>
      <point x="298" y="824" type="line"/>
      <point x="193" y="18" type="line" smooth="yes"/>
      <point x="191" y="5"/>
      <point x="232" y="-5"/>
      <point x="285" y="-5" type="curve" smooth="yes"/>
      <point x="337" y="-5"/>
      <point x="381" y="5"/>
      <point x="383" y="18" type="curve" smooth="yes"/>
    </contour>
  </outline>
</glyph>
<glyph name="U" format="1">
  <advance width="981"/>
  <unicode hex="0055"/>
  <outline>
    <contour>
      <point x="344" y="0" type="line" smooth="yes"/>
      <point x="551" y="0"/>
      <point x="745" y="212"/>
      <point x="779" y="472" type="curve" smooth="yes"/>
      <point x="846" y="982" type="line"/>
      <point x="847" y="995"/>
      <point x="806" y="1005"/>
      <point x="754" y="1005" type="curve" smooth="yes"/>
      <point x="701" y="1005"/>
      <point x="657" y="995"/>
      <point x="656" y="982" type="curve"/>
      <point x="589" y="472" type="line" smooth="yes"/>
      <point x="570" y="321"/>
      <point x="469" y="176"/>
      <point x="367" y="176" type="curve" smooth="yes"/>
      <point x="340" y="176" type="line" smooth="yes"/>
      <point x="221" y="176"/>
      <point x="174" y="308"/>
      <point x="195" y="472" type="curve" smooth="yes"/>
      <point x="261" y="982" type="line" smooth="yes"/>
      <point x="263" y="995"/>
      <point x="222" y="1005"/>
      <point x="169" y="1005" type="curve" smooth="yes"/>
      <point x="117" y="1005"/>
      <point x="73" y="995"/>
      <point x="71" y="982" type="curve" smooth="yes"/>
      <point x="5" y="472" type="line" smooth="yes"/>
      <point x="-29" y="212"/>
      <point x="111" y="0"/>
      <point x="317" y="0" type="curve" smooth="yes"/>
    </contour>
  </outline>
</glyph>
<glyph name="V" format="1">
  <advance width="977"/>
  <unicode hex="0056"/>
  <outline>
    <contour>
      <point x="199" y="42" type="line"/>
      <point x="208" y="14"/>
      <point x="248" y="-5"/>
      <point x="298" y="-5" type="curve" smooth="yes"/>
      <point x="349" y="-5"/>
      <point x="394" y="14"/>
      <point x="410" y="42" type="curve"/>
      <point x="838" y="926" type="line" smooth="yes"/>
      <point x="852" y="955"/>
      <point x="824" y="987"/>
      <point x="774" y="997" type="curve" smooth="yes"/>
      <point x="725" y="1007"/>
      <point x="673" y="992"/>
      <point x="659" y="963" type="curve" smooth="yes"/>
      <point x="338" y="299" type="line"/>
      <point x="189" y="963" type="line" smooth="yes"/>
      <point x="182" y="992"/>
      <point x="135" y="1007"/>
      <point x="83" y="997" type="curve" smooth="yes"/>
      <point x="31" y="987"/>
      <point x="-6" y="955"/>
      <point x="1" y="926" type="curve" smooth="yes"/>
    </contour>
  </outline>
</glyph>
<glyph name="Latin_Capital_Letter_W" format="1">
  <advance width="1490"/>
  <unicode hex="0057"/>
  <outline>
    <contour>
      <point x="156" y="50" type="line" smooth="yes"/>
      <point x="162" y="18"/>
      <point x="203" y="-5"/>
      <point x="256" y="-5" type="curve" smooth="yes"/>
      <point x="309" y="-5"/>
      <point x="356" y="18"/>
      <point x="371" y="50" type="curve" smooth="yes"/>
      <point x="646" y="708" type="line"/>
      <point x="751" y="50" type="line" smooth="yes"/>
      <point x="757" y="18"/>
      <point x="798" y="-5"/>
      <point x="851" y="-5" type="curve" smooth="yes"/>
      <point x="904" y="-5"/>
      <point x="951" y="18"/>
      <point x="966" y="50" type="curve" smooth="yes"/>
      <point x="1351" y="935" type="line" smooth="yes"/>
      <point x="1365" y="967"/>
      <point x="1335" y="998"/>
      <point x="1284" y="1004" type="curve" smooth="yes"/>
      <point x="1234" y="1010"/>
      <point x="1181" y="989"/>
      <point x="1167" y="957" type="curve" smooth="yes"/>
      <point x="889" y="295" type="line"/>
      <point x="785" y="950" type="line" smooth="yes"/>
      <point x="779" y="982"/>
      <point x="738" y="1005"/>
      <point x="685" y="1005" type="curve" smooth="yes"/>
      <point x="632" y="1005"/>
      <point x="585" y="982"/>
      <point x="570" y="950" type="curve" smooth="yes"/>
      <point x="296" y="295" type="line"/>
      <point x="190" y="957" type="line" smooth="yes"/>
      <point x="184" y="989"/>
      <point x="137" y="1010"/>
      <point x="85" y="1004" type="curve" smooth="yes"/>
      <point x="33" y="998"/>
      <point x="-5" y="967"/>
      <point x="1" y="935" type="curve" smooth="yes"/>
    </contour>
  </outline>
</glyph>
<glyph name="W" format="1">
  <advance width="1490"/>
  <unicode hex="0057"/>
  <outline>
    <contour>
      <point x="158" y="42" type="line"/>
      <point x="169" y="13"/>
      <point x="208" y="-5"/>
      <point x="257" y="-5" type="curve" smooth="yes"/>
      <point x="305" y="-5"/>
      <point x="349" y="14"/>
      <point x="367" y="43" type="curve"/>
      <point x="647" y="710" type="line"/>
      <point x="753" y="42" type="line"/>
      <point x="764" y="13"/>
      <point x="803" y="-5"/>
      <point x="852" y="-5" type="curve" smooth="yes"/>
      <point x="901" y="-5"/>
      <point x="944" y="14"/>
      <point x="962" y="43" type="curve"/>
      <point x="1348" y="929" type="line"/>
      <point x="1367" y="960"/>
      <point x="1343" y="993"/>
      <point x="1294" y="1003" type="curve" smooth="yes"/>
      <point x="1245" y="1012"/>
      <point x="1190" y="995"/>
      <point x="1170" y="963" type="curve"/>
      <point x="889" y="293" type="line"/>
      <point x="783" y="958" type="line"/>
      <point x="772" y="987"/>
      <point x="733" y="1005"/>
      <point x="684" y="1005" type="curve" smooth="yes"/>
      <point x="635" y="1005"/>
      <point x="592" y="986"/>
      <point x="574" y="957" type="curve"/>
      <point x="295" y="293" type="line"/>
      <point x="188" y="964" type="line"/>
      <point x="176" y="995"/>
      <point x="125" y="1012"/>
      <point x="74" y="1002" type="curve" smooth="yes"/>
      <point x="22" y="992"/>
      <point x="-10" y="959"/>
      <point x="3" y="928" type="curve"/>
    </contour>
  </outline>
</glyph>
<glyph name="Latin_Capital_Letter_X" format="1">
  <advance width="974"/>
  <unicode hex="0058"/>
  <outline>
    <contour>
      <point x="397" y="330" type="line"/>
      <point x="536" y="33" type="line" smooth="yes"/>
      <point x="550" y="3"/>
      <point x="603" y="-13"/>
      <point x="653" y="-2" type="curve" smooth="yes"/>
      <point x="704" y="10"/>
      <point x="733" y="44"/>
      <point x="719" y="75" type="curve" smooth="yes"/>
      <point x="521" y="500" type="line"/>
      <point x="830" y="925" type="line" smooth="yes"/>
      <point x="852" y="956"/>
      <point x="831" y="990"/>
      <point x="784" y="1002" type="curve" smooth="yes"/>
      <point x="736" y="1013"/>
      <point x="679" y="997"/>
      <point x="657" y="967" type="curve" smooth="yes"/>
      <point x="441" y="670" type="line"/>
      <point x="303" y="967" type="line" smooth="yes"/>
      <point x="289" y="997"/>
      <point x="236" y="1013"/>
      <point x="185" y="1002" type="curve" smooth="yes"/>
      <point x="135" y="990"/>
      <point x="105" y="956"/>
      <point x="120" y="925" type="curve" smooth="yes"/>
      <point x="318" y="500" type="line"/>
      <point x="9" y="75" type="line" smooth="yes"/>
      <point x="-13" y="44"/>
      <point x="7" y="10"/>
      <point x="55" y="-2" type="curve" smooth="yes"/>
      <point x="103" y="-13"/>
      <point x="159" y="3"/>
      <point x="182" y="33" type="curve" smooth="yes"/>
    </contour>
  </outline>
</glyph>
<glyph name="X" format="1">
  <advance width="974"/>
  <unicode hex="0058"/>
  <outline>
    <contour>
      <point x="398" y="333" type="line"/>
      <point x="542" y="24" type="line"/>
      <point x="565" y="-4"/>
      <point x="622" y="-14"/>
      <point x="669" y="3" type="curve" smooth="yes"/>
      <point x="717" y="20"/>
      <point x="736" y="56"/>
      <point x="713" y="85" type="curve"/>
      <point x="519" y="500" type="line"/>
      <point x="821" y="915" type="line"/>
      <point x="851" y="944"/>
      <point x="841" y="980"/>
      <point x="799" y="997" type="curve" smooth="yes"/>
      <point x="756" y="1014"/>
      <point x="696" y="1004"/>
      <point x="666" y="976" type="curve"/>
      <point x="441" y="667" type="line"/>
      <point x="297" y="976" type="line"/>
      <point x="274" y="1004"/>
      <point x="216" y="1014"/>
      <point x="169" y="997" type="curve" smooth="yes"/>
      <point x="122" y="980"/>
      <point x="102" y="944"/>
      <point x="126" y="915" type="curve"/>
      <point x="320" y="500" type="line"/>
      <point x="18" y="85" type="line"/>
      <point x="-13" y="56"/>
      <point x="-3" y="20"/>
      <point x="40" y="3" type="curve" smooth="yes"/>
      <point x="83" y="-14"/>
      <point x="142" y="-4"/>
      <point x="173" y="24" type="curve"/>
    </contour>
  </outline>
</glyph>
<glyph name="Y" format="1">
  <advance width="902"/>
  <unicode hex="0059"/>
  <outline>
    <contour>
      <point x="231" y="490" type="line"/>
      <point x="174" y="50" type="line" smooth="yes"/>
      <point x="170" y="19"/>
      <point x="209" y="-5"/>
      <point x="262" y="-5" type="curve" smooth="yes"/>
      <point x="314" y="-5"/>
      <point x="360" y="19"/>
      <point x="364" y="50" type="curve" smooth="yes"/>
      <point x="421" y="490" type="line"/>
      <point x="758" y="912" type="line" smooth="yes"/>
      <point x="780" y="939"/>
      <point x="760" y="974"/>
      <point x="714" y="991" type="curve" smooth="yes"/>
      <point x="669" y="1009"/>
      <point x="615" y="1001"/>
      <point x="593" y="974" type="curve" smooth="yes"/>
      <point x="348" y="657" type="line"/>
      <point x="185" y="974" type="line" smooth="yes"/>
      <point x="171" y="1000"/>
      <point x="119" y="1009"/>
      <point x="69" y="992" type="curve" smooth="yes"/>
      <point x="19" y="975"/>
      <point x="-10" y="940"/>
      <point x="3" y="913" type="curve" smooth="yes"/>
    </contour>
  </outline>
</glyph>
<glyph name="Z" format="1">
  <advance width="923"/>
  <unicode hex="005A"/>
  <outline>
    <contour>
      <point x="599" y="824" type="line"/>
      <point x="33" y="187" type="line" smooth="yes"/>
      <point x="17" y="170"/>
      <point x="4" y="125"/>
      <point x="1" y="79" type="curve" smooth="yes"/>
      <point x="-3" y="33"/>
      <point x="5" y="0"/>
      <point x="18" y="0" type="curve" smooth="yes"/>
      <point x="641" y="0" type="line" smooth="yes"/>
      <point x="656" y="0"/>
      <point x="672" y="39"/>
      <point x="678" y="88" type="curve" smooth="yes"/>
      <point x="685" y="136"/>
      <point x="678" y="176"/>
      <point x="664" y="176" type="curve" smooth="yes"/>
      <point x="188" y="176" type="line"/>
      <point x="755" y="813" type="line" smooth="yes"/>
      <point x="770" y="830"/>
      <point x="783" y="875"/>
      <point x="786" y="921" type="curve" smooth="yes"/>
      <point x="790" y="967"/>
      <point x="783" y="1000"/>
      <point x="769" y="1000" type="curve" smooth="yes"/>
      <point x="146" y="1000" type="line" smooth="yes"/>
      <point x="132" y="1000"/>
      <point x="115" y="961"/>
      <point x="109" y="912" type="curve" smooth="yes"/>
      <point x="102" y="864"/>
      <point x="109" y="824"/>
      <point x="123" y="824" type="curve" smooth="yes"/>
    </contour>
  </outline>
</glyph>
<glyph name="bracketleft" format="1">
  <advance width="634"/>
  <unicode hex="005B"/>
  <outline>
    <contour>
      <point x="293" y="-100" type="line" smooth="yes"/>
      <point x="326" y="-100"/>
      <point x="358" y="-61"/>
      <point x="364" y="-12" type="curve" smooth="yes"/>
      <point x="371" y="36"/>
      <point x="349" y="76"/>
      <point x="316" y="76" type="curve" smooth="yes"/>
      <point x="184" y="76" type="line"/>
      <point x="294" y="924" type="line"/>
      <point x="427" y="924" type="line" smooth="yes"/>
      <point x="460" y="924"/>
      <point x="491" y="964"/>
      <point x="498" y="1012" type="curve" smooth="yes"/>
      <point x="504" y="1061"/>
      <point x="482" y="1100"/>
      <point x="449" y="1100" type="curve" smooth="yes"/>
      <point x="257" y="1100" type="line" smooth="yes"/>
      <point x="197" y="1100"/>
      <point x="144" y="1072"/>
      <point x="140" y="1037" type="curve" smooth="yes"/>
      <point x="0" y="-37" type="line" smooth="yes"/>
      <point x="-4" y="-72"/>
      <point x="41" y="-100"/>
      <point x="101" y="-100" type="curve" smooth="yes"/>
    </contour>
  </outline>
</glyph>
<glyph name="backslash" format="1">
  <advance width="541"/>
  <unicode hex="005C"/>
  <outline>
    <contour>
      <point x="0" y="1041" type="curve" smooth="yes"/>
      <point x="222" y="-98" type="line" smooth="yes"/>
      <point x="225" y="-111"/>
      <point x="268" y="-108"/>
      <point x="318" y="-92" type="curve" smooth="yes"/>
      <point x="369" y="-76"/>
      <point x="408" y="-53"/>
      <point x="406" y="-41" type="curve" smooth="yes"/>
      <point x="184" y="1098" type="line" smooth="yes"/>
      <point x="182" y="1111"/>
      <point x="138" y="1108"/>
      <point x="88" y="1092" type="curve" smooth="yes"/>
      <point x="37" y="1076"/>
      <point x="-2" y="1053"/>
    </contour>
  </outline>
</glyph>
<glyph name="bracketright" format="1">
  <advance width="634"/>
  <unicode hex="005D"/>
  <outline>
    <contour>
      <point x="49" y="-100" type="curve" smooth="yes"/>
      <point x="241" y="-100" type="line" smooth="yes"/>
      <point x="302" y="-100"/>
      <point x="354" y="-72"/>
      <point x="359" y="-37" type="curve" smooth="yes"/>
      <point x="498" y="1037" type="line" smooth="yes"/>
      <point x="503" y="1072"/>
      <point x="458" y="1100"/>
      <point x="397" y="1100" type="curve" smooth="yes"/>
      <point x="205" y="1100" type="line" smooth="yes"/>
      <point x="172" y="1100"/>
      <point x="141" y="1061"/>
      <point x="134" y="1012" type="curve" smooth="yes"/>
      <point x="128" y="964"/>
      <point x="149" y="924"/>
      <point x="182" y="924" type="curve" smooth="yes"/>
      <point x="315" y="924" type="line"/>
      <point x="204" y="76" type="line"/>
      <point x="72" y="76" type="line" smooth="yes"/>
      <point x="39" y="76"/>
      <point x="7" y="36"/>
      <point x="1" y="-12" type="curve" smooth="yes"/>
      <point x="-5" y="-61"/>
      <point x="16" y="-100"/>
    </contour>
  </outline>
</glyph>
<glyph name="asciicircum" format="1">
  <advance width="698"/>
  <unicode hex="005E"/>
  <outline>
    <contour>
      <point x="2" y="750" type="line"/>
      <point x="-1" y="746"/>
      <point x="-1" y="740"/>
      <point x="4" y="731" type="curve" smooth="yes"/>
      <point x="18" y="706"/>
      <point x="59" y="673"/>
      <point x="97" y="656" type="curve" smooth="yes"/>
      <point x="120" y="646"/>
      <point x="136" y="644"/>
      <point x="142" y="650" type="curve"/>
      <point x="291" y="823" type="line"/>
      <point x="397" y="650" type="line"/>
      <point x="400" y="644"/>
      <point x="417" y="646"/>
      <point x="443" y="656" type="curve" smooth="yes"/>
      <point x="485" y="673"/>
      <point x="534" y="706"/>
      <point x="554" y="731" type="curve"/>
      <point x="562" y="740"/>
      <point x="564" y="746"/>
      <point x="562" y="750" type="curve"/>
      <point x="420" y="983" type="line" smooth="yes"/>
      <point x="412" y="996"/>
      <point x="369" y="1005"/>
      <point x="315" y="1005" type="curve" smooth="yes"/>
      <point x="262" y="1005"/>
      <point x="216" y="996"/>
      <point x="205" y="983" type="curve" smooth="yes"/>
    </contour>
  </outline>
</glyph>
<glyph name="underscore" format="1">
  <advance width="965"/>
  <unicode hex="005F"/>
  <outline>
    <contour>
      <point x="790" y="-208" type="line" smooth="yes"/>
      <point x="805" y="-208"/>
      <point x="821" y="-169"/>
      <point x="827" y="-120" type="curve" smooth="yes"/>
      <point x="834" y="-71"/>
      <point x="827" y="-32"/>
      <point x="813" y="-32" type="curve" smooth="yes"/>
      <point x="40" y="-32" type="line" smooth="yes"/>
      <point x="25" y="-32"/>
      <point x="9" y="-71"/>
      <point x="2" y="-120" type="curve" smooth="yes"/>
      <point x="-4" y="-169"/>
      <point x="3" y="-208"/>
      <point x="17" y="-208" type="curve" smooth="yes"/>
    </contour>
  </outline>
</glyph>
<glyph name="grave" format="1">
  <advance width="394"/>
  <unicode hex="0060"/>
  <outline>
    <contour>
      <point x="143" y="1003" type="line" smooth="yes"/>
      <point x="138" y="1010"/>
      <point x="120" y="1002"/>
      <point x="94" y="981" type="curve" smooth="yes"/>
      <point x="68" y="960"/>
      <point x="42" y="933"/>
      <point x="22" y="906" type="curve" smooth="yes"/>
      <point x="3" y="879"/>
      <point x="-4" y="861"/>
      <point x="3" y="857" type="curve"/>
      <point x="162" y="753" type="line" smooth="yes"/>
      <point x="169" y="748"/>
      <point x="195" y="766"/>
      <point x="221" y="793" type="curve" smooth="yes"/>
      <point x="246" y="819"/>
      <point x="263" y="846"/>
      <point x="258" y="852" type="curve" smooth="yes"/>
    </contour>
  </outline>
</glyph>
<glyph name="b" format="1">
  <advance width="824"/>
  <unicode hex="0062"/>
  <outline>
    <contour>
      <point x="230" y="325" type="curve" smooth="yes"/>
      <point x="241" y="410"/>
      <point x="309" y="480"/>
      <point x="381" y="480" type="curve" smooth="yes"/>
      <point x="453" y="480"/>
      <point x="503" y="410"/>
      <point x="492" y="325" type="curve" smooth="yes"/>
      <point x="481" y="240"/>
      <point x="413" y="170"/>
      <point x="341" y="170" type="curve" smooth="yes"/>
      <point x="268" y="170"/>
      <point x="219" y="240"/>
    </contour>
    <contour>
      <point x="267" y="610" type="curve"/>
      <point x="315" y="982" type="line" smooth="yes"/>
      <point x="317" y="995"/>
      <point x="276" y="1005"/>
      <point x="223" y="1005" type="curve" smooth="yes"/>
      <point x="171" y="1005"/>
      <point x="127" y="995"/>
      <point x="125" y="982" type="curve" smooth="yes"/>
      <point x="0" y="18" type="line" smooth="yes"/>
      <point x="-2" y="5"/>
      <point x="39" y="-5"/>
      <point x="92" y="-5" type="curve" smooth="yes"/>
      <point x="144" y="-5"/>
      <point x="188" y="5"/>
      <point x="190" y="18" type="curve" smooth="yes"/>
      <point x="193" y="40" type="line"/>
      <point x="228" y="11"/>
      <point x="270" y="-5"/>
      <point x="318" y="-5" type="curve" smooth="yes"/>
      <point x="497" y="-5"/>
      <point x="662" y="143"/>
      <point x="686" y="325" type="curve" smooth="yes"/>
      <point x="710" y="507"/>
      <point x="583" y="655"/>
      <point x="404" y="655" type="curve" smooth="yes"/>
      <point x="356" y="655"/>
      <point x="309" y="639"/>
    </contour>
  </outline>
</glyph>
<glyph name="c" format="1">
  <advance width="741"/>
  <unicode hex="0063"/>
  <outline>
    <contour>
      <point x="371" y="655" type="curve" smooth="yes"/>
      <point x="191" y="655"/>
      <point x="27" y="507"/>
      <point x="3" y="325" type="curve" smooth="yes"/>
      <point x="-21" y="143"/>
      <point x="105" y="-5"/>
      <point x="285" y="-5" type="curve" smooth="yes"/>
      <point x="380" y="-5"/>
      <point x="464" y="23"/>
      <point x="541" y="81" type="curve"/>
      <point x="552" y="91"/>
      <point x="536" y="127"/>
      <point x="506" y="163" type="curve" smooth="yes"/>
      <point x="476" y="198"/>
      <point x="442" y="219"/>
      <point x="431" y="210" type="curve"/>
      <point x="394" y="184"/>
      <point x="353" y="170"/>
      <point x="308" y="170" type="curve" smooth="yes"/>
      <point x="235" y="170"/>
      <point x="186" y="240"/>
      <point x="197" y="325" type="curve" smooth="yes"/>
      <point x="208" y="410"/>
      <point x="276" y="480"/>
      <point x="348" y="480" type="curve" smooth="yes"/>
      <point x="393" y="480"/>
      <point x="430" y="466"/>
      <point x="461" y="440" type="curve"/>
      <point x="470" y="431"/>
      <point x="509" y="452"/>
      <point x="548" y="487" type="curve" smooth="yes"/>
      <point x="587" y="523"/>
      <point x="613" y="559"/>
      <point x="605" y="569" type="curve"/>
      <point x="543" y="627"/>
      <point x="465" y="655"/>
    </contour>
  </outline>
</glyph>
<glyph name="d" format="1">
  <advance width="870"/>
  <unicode hex="0064"/>
  <outline>
    <contour>
      <point x="459" y="325" type="curve" smooth="yes"/>
      <point x="448" y="240"/>
      <point x="380" y="170"/>
      <point x="308" y="170" type="curve" smooth="yes"/>
      <point x="235" y="170"/>
      <point x="186" y="240"/>
      <point x="197" y="325" type="curve" smooth="yes"/>
      <point x="208" y="410"/>
      <point x="276" y="480"/>
      <point x="348" y="480" type="curve" smooth="yes"/>
      <point x="420" y="480"/>
      <point x="470" y="410"/>
    </contour>
    <contour>
      <point x="496" y="610" type="line"/>
      <point x="461" y="639"/>
      <point x="418" y="655"/>
      <point x="371" y="655" type="curve" smooth="yes"/>
      <point x="191" y="655"/>
      <point x="27" y="507"/>
      <point x="3" y="325" type="curve" smooth="yes"/>
      <point x="-21" y="143"/>
      <point x="105" y="-5"/>
      <point x="285" y="-5" type="curve" smooth="yes"/>
      <point x="333" y="-5"/>
      <point x="379" y="11"/>
      <point x="422" y="40" type="curve"/>
      <point x="419" y="18" type="line" smooth="yes"/>
      <point x="417" y="5"/>
      <point x="458" y="-5"/>
      <point x="511" y="-5" type="curve" smooth="yes"/>
      <point x="563" y="-5"/>
      <point x="607" y="5"/>
      <point x="609" y="18" type="curve" smooth="yes"/>
      <point x="734" y="982" type="line" smooth="yes"/>
      <point x="736" y="995"/>
      <point x="695" y="1005"/>
      <point x="642" y="1005" type="curve" smooth="yes"/>
      <point x="590" y="1005"/>
      <point x="546" y="995"/>
      <point x="544" y="982" type="curve" smooth="yes"/>
    </contour>
  </outline>
</glyph>
<glyph name="e" format="1">
  <advance width="756"/>
  <unicode hex="0065"/>
  <outline>
    <contour>
      <point x="211" y="380" type="line"/>
      <point x="235" y="438"/>
      <point x="282" y="480"/>
      <point x="330" y="480" type="curve" smooth="yes"/>
      <point x="379" y="480"/>
      <point x="415" y="438"/>
      <point x="423" y="380" type="curve"/>
    </contour>
    <contour>
      <point x="267" y="-5" type="curve" smooth="yes"/>
      <point x="367" y="-5"/>
      <point x="456" y="18"/>
      <point x="540" y="68" type="curve"/>
      <point x="551" y="77"/>
      <point x="538" y="114"/>
      <point x="511" y="152" type="curve" smooth="yes"/>
      <point x="483" y="189"/>
      <point x="452" y="212"/>
      <point x="440" y="204" type="curve"/>
      <point x="394" y="181"/>
      <point x="345" y="170"/>
      <point x="290" y="170" type="curve" smooth="yes"/>
      <point x="242" y="170"/>
      <point x="206" y="212"/>
      <point x="197" y="270" type="curve"/>
      <point x="555" y="270" type="line" smooth="yes"/>
      <point x="585" y="270"/>
      <point x="613" y="294"/>
      <point x="617" y="325" type="curve" smooth="yes"/>
      <point x="641" y="507"/>
      <point x="523" y="655"/>
      <point x="353" y="655" type="curve" smooth="yes"/>
      <point x="183" y="655"/>
      <point x="27" y="507"/>
      <point x="3" y="325" type="curve" smooth="yes"/>
      <point x="-21" y="143"/>
      <point x="98" y="-5"/>
    </contour>
  </outline>
</glyph>
<glyph name="f" format="1">
  <advance width="669"/>
  <unicode hex="0066"/>
  <outline>
    <contour>
      <point x="84" y="474" type="line"/>
      <point x="25" y="18" type="line" smooth="yes"/>
      <point x="23" y="5"/>
      <point x="64" y="-5"/>
      <point x="117" y="-5" type="curve" smooth="yes"/>
      <point x="169" y="-5"/>
      <point x="213" y="5"/>
      <point x="215" y="18" type="curve" smooth="yes"/>
      <point x="274" y="474" type="line"/>
      <point x="374" y="474" type="line" smooth="yes"/>
      <point x="388" y="474"/>
      <point x="405" y="514"/>
      <point x="411" y="562" type="curve" smooth="yes"/>
      <point x="418" y="611"/>
      <point x="411" y="650"/>
      <point x="397" y="650" type="curve" smooth="yes"/>
      <point x="297" y="650" type="line"/>
      <point x="310" y="752" type="line" smooth="yes"/>
      <point x="314" y="777"/>
      <point x="331" y="799"/>
      <point x="359" y="815" type="curve" smooth="yes"/>
      <point x="387" y="830"/>
      <point x="418" y="834"/>
      <point x="448" y="826" type="curve"/>
      <point x="460" y="821"/>
      <point x="488" y="855"/>
      <point x="510" y="901" type="curve" smooth="yes"/>
      <point x="532" y="947"/>
      <point x="540" y="988"/>
      <point x="528" y="993" type="curve"/>
      <point x="441" y="1019"/>
      <point x="349" y="1006"/>
      <point x="265" y="957" type="curve" smooth="yes"/>
      <point x="182" y="907"/>
      <point x="131" y="836"/>
      <point x="120" y="752" type="curve" smooth="yes"/>
      <point x="107" y="650" type="line"/>
      <point x="40" y="650" type="line" smooth="yes"/>
      <point x="25" y="650"/>
      <point x="9" y="611"/>
      <point x="2" y="562" type="curve" smooth="yes"/>
      <point x="-4" y="514"/>
      <point x="3" y="474"/>
      <point x="17" y="474" type="curve" smooth="yes"/>
    </contour>
  </outline>
</glyph>
<glyph name="h" format="1">
  <advance width="766"/>
  <unicode hex="0068"/>
  <outline>
    <contour>
      <point x="0" y="18" type="line" smooth="yes"/>
      <point x="-2" y="5"/>
      <point x="39" y="-5"/>
      <point x="92" y="-5" type="curve" smooth="yes"/>
      <point x="144" y="-5"/>
      <point x="188" y="5"/>
      <point x="190" y="18" type="curve" smooth="yes"/>
      <point x="247" y="455" type="line"/>
      <point x="247" y="455"/>
      <point x="311" y="514"/>
      <point x="381" y="514" type="curve" smooth="yes"/>
      <point x="417" y="514"/>
      <point x="443" y="487"/>
      <point x="439" y="455" type="curve" smooth="yes"/>
      <point x="382" y="18" type="line" smooth="yes"/>
      <point x="380" y="5"/>
      <point x="421" y="-5"/>
      <point x="474" y="-5" type="curve" smooth="yes"/>
      <point x="526" y="-5"/>
      <point x="570" y="5"/>
      <point x="572" y="18" type="curve" smooth="yes"/>
      <point x="629" y="455" type="line" smooth="yes"/>
      <point x="643" y="563"/>
      <point x="557" y="650"/>
      <point x="437" y="650" type="curve" smooth="yes"/>
      <point x="376" y="650"/>
      <point x="315" y="627"/>
      <point x="265" y="596" type="curve"/>
      <point x="315" y="982" type="line" smooth="yes"/>
      <point x="317" y="995"/>
      <point x="276" y="1005"/>
      <point x="223" y="1005" type="curve" smooth="yes"/>
      <point x="171" y="1005"/>
      <point x="127" y="995"/>
      <point x="125" y="982" type="curve" smooth="yes"/>
    </contour>
  </outline>
</glyph>
<glyph name="j" format="1">
  <advance width="696"/>
  <unicode hex="006A"/>
  <outline>
    <contour>
      <point x="525" y="632" type="line" smooth="yes"/>
      <point x="527" y="645"/>
      <point x="485" y="655"/>
      <point x="433" y="655" type="curve" smooth="yes"/>
      <point x="381" y="655"/>
      <point x="337" y="645"/>
      <point x="335" y="632" type="curve" smooth="yes"/>
      <point x="238" y="-117" type="line"/>
      <point x="237" y="-122"/>
      <point x="225" y="-127"/>
      <point x="205" y="-129" type="curve" smooth="yes"/>
      <point x="186" y="-131"/>
      <point x="165" y="-130"/>
      <point x="151" y="-126" type="curve"/>
      <point x="142" y="-117"/>
      <point x="103" y="-136"/>
      <point x="62" y="-170" type="curve" smooth="yes"/>
      <point x="21" y="-204"/>
      <point x="-6" y="-239"/>
      <point x="1" y="-250" type="curve"/>
      <point x="64" y="-305"/>
      <point x="161" y="-321"/>
      <point x="257" y="-291" type="curve" smooth="yes"/>
      <point x="353" y="-261"/>
      <point x="417" y="-195"/>
      <point x="428" y="-117" type="curve" smooth="yes"/>
    </contour>
    <contour>
      <point x="561" y="907" type="line"/>
      <point x="562" y="920"/>
      <point x="521" y="931"/>
      <point x="469" y="931" type="curve" smooth="yes"/>
      <point x="416" y="931"/>
      <point x="372" y="920"/>
      <point x="371" y="907" type="curve"/>
      <point x="354" y="779" type="line" smooth="yes"/>
      <point x="352" y="766"/>
      <point x="394" y="755"/>
      <point x="446" y="755" type="curve" smooth="yes"/>
      <point x="498" y="755"/>
      <point x="542" y="766"/>
      <point x="544" y="779" type="curve" smooth="yes"/>
    </contour>
  </outline>
</glyph>
<glyph name="k" format="1">
  <advance width="797"/>
  <unicode hex="006B"/>
  <outline>
    <contour>
      <point x="0" y="18" type="line" smooth="yes"/>
      <point x="-2" y="5"/>
      <point x="39" y="-5"/>
      <point x="92" y="-5" type="curve" smooth="yes"/>
      <point x="144" y="-5"/>
      <point x="188" y="5"/>
      <point x="190" y="18" type="curve" smooth="yes"/>
      <point x="213" y="191" type="line"/>
      <point x="274" y="237" type="line"/>
      <point x="448" y="-12" type="line" smooth="yes"/>
      <point x="455" y="-22"/>
      <point x="495" y="-5"/>
      <point x="538" y="27" type="curve" smooth="yes"/>
      <point x="581" y="59"/>
      <point x="609" y="93"/>
      <point x="602" y="103" type="curve" smooth="yes"/>
      <point x="428" y="353" type="line"/>
      <point x="657" y="523" type="line" smooth="yes"/>
      <point x="665" y="529"/>
      <point x="662" y="546"/>
      <point x="651" y="571" type="curve" smooth="yes"/>
      <point x="639" y="596"/>
      <point x="622" y="621"/>
      <point x="603" y="640" type="curve" smooth="yes"/>
      <point x="584" y="659"/>
      <point x="568" y="667"/>
      <point x="561" y="661" type="curve"/>
      <point x="243" y="424" type="line"/>
      <point x="315" y="982" type="line" smooth="yes"/>
      <point x="317" y="995"/>
      <point x="276" y="1005"/>
      <point x="223" y="1005" type="curve" smooth="yes"/>
      <point x="171" y="1005"/>
      <point x="127" y="995"/>
      <point x="125" y="982" type="curve" smooth="yes"/>
    </contour>
  </outline>
</glyph>
<glyph name="l" format="1">
  <advance width="451"/>
  <unicode hex="006C"/>
  <outline>
    <contour>
      <point x="315" y="982" type="line" smooth="yes"/>
      <point x="317" y="995"/>
      <point x="276" y="1005"/>
      <point x="223" y="1005" type="curve" smooth="yes"/>
      <point x="171" y="1005"/>
      <point x="127" y="995"/>
      <point x="125" y="982" type="curve" smooth="yes"/>
      <point x="0" y="18" type="line" smooth="yes"/>
      <point x="-2" y="5"/>
      <point x="39" y="-5"/>
      <point x="92" y="-5" type="curve" smooth="yes"/>
      <point x="144" y="-5"/>
      <point x="188" y="5"/>
      <point x="190" y="18" type="curve" smooth="yes"/>
    </contour>
  </outline>
</glyph>
<glyph name="m" format="1">
  <advance width="1148"/>
  <unicode hex="006D"/>
  <outline>
    <contour>
      <point x="0" y="18" type="line" smooth="yes"/>
      <point x="-2" y="5"/>
      <point x="39" y="-5"/>
      <point x="92" y="-5" type="curve" smooth="yes"/>
      <point x="144" y="-5"/>
      <point x="188" y="5"/>
      <point x="190" y="18" type="curve" smooth="yes"/>
      <point x="247" y="455" type="line"/>
      <point x="247" y="455"/>
      <point x="311" y="514"/>
      <point x="381" y="514" type="curve" smooth="yes"/>
      <point x="417" y="514"/>
      <point x="443" y="487"/>
      <point x="439" y="455" type="curve" smooth="yes"/>
      <point x="382" y="18" type="line" smooth="yes"/>
      <point x="380" y="5"/>
      <point x="421" y="-5"/>
      <point x="474" y="-5" type="curve" smooth="yes"/>
      <point x="526" y="-5"/>
      <point x="570" y="5"/>
      <point x="572" y="18" type="curve" smooth="yes"/>
      <point x="629" y="455" type="line"/>
      <point x="629" y="455"/>
      <point x="693" y="514"/>
      <point x="763" y="514" type="curve" smooth="yes"/>
      <point x="799" y="514"/>
      <point x="825" y="487"/>
      <point x="821" y="455" type="curve" smooth="yes"/>
      <point x="764" y="18" type="line" smooth="yes"/>
      <point x="762" y="5"/>
      <point x="803" y="-5"/>
      <point x="856" y="-5" type="curve" smooth="yes"/>
      <point x="908" y="-5"/>
      <point x="952" y="5"/>
      <point x="954" y="18" type="curve" smooth="yes"/>
      <point x="1011" y="455" type="line" smooth="yes"/>
      <point x="1025" y="563"/>
      <point x="939" y="650"/>
      <point x="819" y="650" type="curve" smooth="yes"/>
      <point x="739" y="650"/>
      <point x="661" y="611"/>
      <point x="604" y="567" type="curve"/>
      <point x="572" y="617"/>
      <point x="511" y="650"/>
      <point x="437" y="650" type="curve" smooth="yes"/>
      <point x="376" y="650"/>
      <point x="315" y="627"/>
      <point x="265" y="596" type="curve"/>
      <point x="270" y="632" type="line"/>
      <point x="271" y="645"/>
      <point x="230" y="655"/>
      <point x="178" y="655" type="curve" smooth="yes"/>
      <point x="125" y="655"/>
      <point x="81" y="645"/>
      <point x="80" y="632" type="curve"/>
    </contour>
  </outline>
</glyph>
<glyph name="n" format="1">
  <advance width="766"/>
  <unicode hex="006E"/>
  <outline>
    <contour>
      <point x="0" y="18" type="line" smooth="yes"/>
      <point x="-2" y="5"/>
      <point x="39" y="-5"/>
      <point x="92" y="-5" type="curve" smooth="yes"/>
      <point x="144" y="-5"/>
      <point x="188" y="5"/>
      <point x="190" y="18" type="curve" smooth="yes"/>
      <point x="247" y="455" type="line"/>
      <point x="247" y="455"/>
      <point x="311" y="514"/>
      <point x="381" y="514" type="curve" smooth="yes"/>
      <point x="417" y="514"/>
      <point x="443" y="487"/>
      <point x="439" y="455" type="curve" smooth="yes"/>
      <point x="382" y="18" type="line" smooth="yes"/>
      <point x="380" y="5"/>
      <point x="421" y="-5"/>
      <point x="474" y="-5" type="curve" smooth="yes"/>
      <point x="526" y="-5"/>
      <point x="570" y="5"/>
      <point x="572" y="18" type="curve" smooth="yes"/>
      <point x="629" y="455" type="line" smooth="yes"/>
      <point x="643" y="563"/>
      <point x="557" y="650"/>
      <point x="437" y="650" type="curve" smooth="yes"/>
      <point x="376" y="650"/>
      <point x="315" y="627"/>
      <point x="265" y="596" type="curve"/>
      <point x="270" y="632" type="line"/>
      <point x="271" y="645"/>
      <point x="230" y="655"/>
      <point x="178" y="655" type="curve" smooth="yes"/>
      <point x="125" y="655"/>
      <point x="81" y="645"/>
      <point x="80" y="632" type="curve"/>
    </contour>
  </outline>
</glyph>
<glyph name="p" format="1">
  <advance width="863"/>
  <unicode hex="0070"/>
  <outline>
    <contour>
      <point x="269" y="325" type="curve" smooth="yes"/>
      <point x="280" y="410"/>
      <point x="348" y="480"/>
      <point x="420" y="480" type="curve" smooth="yes"/>
      <point x="492" y="480"/>
      <point x="542" y="410"/>
      <point x="531" y="325" type="curve" smooth="yes"/>
      <point x="520" y="240"/>
      <point x="452" y="170"/>
      <point x="380" y="170" type="curve" smooth="yes"/>
      <point x="307" y="170"/>
      <point x="258" y="240"/>
    </contour>
    <contour>
      <point x="232" y="40" type="line"/>
      <point x="267" y="11"/>
      <point x="309" y="-5"/>
      <point x="357" y="-5" type="curve" smooth="yes"/>
      <point x="536" y="-5"/>
      <point x="701" y="143"/>
      <point x="725" y="325" type="curve" smooth="yes"/>
      <point x="749" y="507"/>
      <point x="622" y="655"/>
      <point x="443" y="655" type="curve" smooth="yes"/>
      <point x="395" y="655"/>
      <point x="348" y="639"/>
      <point x="306" y="610" type="curve"/>
      <point x="309" y="632" type="line"/>
      <point x="310" y="645"/>
      <point x="269" y="655"/>
      <point x="217" y="655" type="curve" smooth="yes"/>
      <point x="164" y="655"/>
      <point x="120" y="645"/>
      <point x="119" y="632" type="curve"/>
      <point x="0" y="-282" type="line" smooth="yes"/>
      <point x="-2" y="-295"/>
      <point x="39" y="-305"/>
      <point x="92" y="-305" type="curve" smooth="yes"/>
      <point x="144" y="-305"/>
      <point x="188" y="-295"/>
      <point x="190" y="-282" type="curve" smooth="yes"/>
    </contour>
  </outline>
</glyph>
<glyph name="q" format="1">
  <advance width="824"/>
  <unicode hex="0071"/>
  <outline>
    <contour>
      <point x="459" y="325" type="curve" smooth="yes"/>
      <point x="448" y="240"/>
      <point x="380" y="170"/>
      <point x="308" y="170" type="curve" smooth="yes"/>
      <point x="235" y="170"/>
      <point x="186" y="240"/>
      <point x="197" y="325" type="curve" smooth="yes"/>
      <point x="208" y="410"/>
      <point x="276" y="480"/>
      <point x="348" y="480" type="curve" smooth="yes"/>
      <point x="420" y="480"/>
      <point x="470" y="410"/>
    </contour>
    <contour>
      <point x="422" y="40" type="curve"/>
      <point x="380" y="-282" type="line" smooth="yes"/>
      <point x="378" y="-295"/>
      <point x="419" y="-305"/>
      <point x="472" y="-305" type="curve" smooth="yes"/>
      <point x="524" y="-305"/>
      <point x="568" y="-295"/>
      <point x="570" y="-282" type="curve" smooth="yes"/>
      <point x="689" y="632" type="line"/>
      <point x="690" y="645"/>
      <point x="649" y="655"/>
      <point x="597" y="655" type="curve" smooth="yes"/>
      <point x="544" y="655"/>
      <point x="500" y="645"/>
      <point x="499" y="632" type="curve"/>
      <point x="496" y="610" type="line"/>
      <point x="461" y="639"/>
      <point x="418" y="655"/>
      <point x="371" y="655" type="curve" smooth="yes"/>
      <point x="191" y="655"/>
      <point x="27" y="507"/>
      <point x="3" y="325" type="curve" smooth="yes"/>
      <point x="-21" y="143"/>
      <point x="105" y="-5"/>
      <point x="285" y="-5" type="curve" smooth="yes"/>
      <point x="333" y="-5"/>
      <point x="379" y="11"/>
    </contour>
  </outline>
</glyph>
<glyph name="r" format="1">
  <advance width="614"/>
  <unicode hex="0072"/>
  <outline>
    <contour>
      <point x="0" y="18" type="line" smooth="yes"/>
      <point x="-2" y="5"/>
      <point x="39" y="-5"/>
      <point x="92" y="-5" type="curve" smooth="yes"/>
      <point x="144" y="-5"/>
      <point x="188" y="5"/>
      <point x="190" y="18" type="curve" smooth="yes"/>
      <point x="235" y="364" type="line" smooth="yes"/>
      <point x="243" y="425"/>
      <point x="334" y="474"/>
      <point x="439" y="474" type="curve" smooth="yes"/>
      <point x="453" y="474"/>
      <point x="470" y="514"/>
      <point x="476" y="562" type="curve" smooth="yes"/>
      <point x="483" y="611"/>
      <point x="476" y="650"/>
      <point x="462" y="650" type="curve" smooth="yes"/>
      <point x="357" y="650"/>
      <point x="266" y="601"/>
      <point x="258" y="540" type="curve"/>
      <point x="270" y="632" type="line"/>
      <point x="271" y="645"/>
      <point x="230" y="655"/>
      <point x="178" y="655" type="curve" smooth="yes"/>
      <point x="125" y="655"/>
      <point x="81" y="645"/>
      <point x="80" y="632" type="curve"/>
    </contour>
  </outline>
</glyph>
<glyph name="t" format="1">
  <advance width="549"/>
  <unicode hex="0074"/>
  <outline>
    <contour>
      <point x="107" y="650" type="line"/>
      <point x="40" y="650" type="line" smooth="yes"/>
      <point x="25" y="650"/>
      <point x="9" y="611"/>
      <point x="2" y="562" type="curve" smooth="yes"/>
      <point x="-4" y="514"/>
      <point x="3" y="474"/>
      <point x="17" y="474" type="curve" smooth="yes"/>
      <point x="84" y="474" type="line"/>
      <point x="49" y="201" type="line" smooth="yes"/>
      <point x="40" y="132"/>
      <point x="64" y="74"/>
      <point x="119" y="34" type="curve" smooth="yes"/>
      <point x="173" y="-6"/>
      <point x="242" y="-16"/>
      <point x="314" y="5" type="curve"/>
      <point x="328" y="10"/>
      <point x="331" y="51"/>
      <point x="321" y="97" type="curve" smooth="yes"/>
      <point x="310" y="143"/>
      <point x="291" y="176"/>
      <point x="277" y="172" type="curve" smooth="yes"/>
      <point x="267" y="169"/>
      <point x="257" y="170"/>
      <point x="249" y="176" type="curve" smooth="yes"/>
      <point x="241" y="182"/>
      <point x="237" y="191"/>
      <point x="239" y="201" type="curve"/>
      <point x="274" y="474" type="line"/>
      <point x="374" y="474" type="line" smooth="yes"/>
      <point x="388" y="474"/>
      <point x="405" y="514"/>
      <point x="411" y="562" type="curve" smooth="yes"/>
      <point x="418" y="611"/>
      <point x="411" y="650"/>
      <point x="397" y="650" type="curve" smooth="yes"/>
      <point x="297" y="650" type="line"/>
      <point x="320" y="827" type="line" smooth="yes"/>
      <point x="322" y="840"/>
      <point x="281" y="850"/>
      <point x="228" y="850" type="curve" smooth="yes"/>
      <point x="176" y="850"/>
      <point x="132" y="840"/>
      <point x="130" y="827" type="curve" smooth="yes"/>
    </contour>
  </outline>
</glyph>
<glyph name="v" format="1">
  <advance width="750"/>
  <unicode hex="0076"/>
  <outline>
    <contour>
      <point x="122" y="17" type="line"/>
      <point x="128" y="4"/>
      <point x="170" y="-5"/>
      <point x="221" y="-5" type="curve" smooth="yes"/>
      <point x="273" y="-5"/>
      <point x="317" y="4"/>
      <point x="328" y="16" type="curve"/>
      <point x="614" y="618" type="line" smooth="yes"/>
      <point x="620" y="631"/>
      <point x="584" y="647"/>
      <point x="534" y="653" type="curve" smooth="yes"/>
      <point x="483" y="660"/>
      <point x="437" y="656"/>
      <point x="431" y="643" type="curve" smooth="yes"/>
      <point x="258" y="261" type="line"/>
      <point x="190" y="643" type="line"/>
      <point x="187" y="655"/>
      <point x="143" y="660"/>
      <point x="90" y="654" type="curve" smooth="yes"/>
      <point x="38" y="647"/>
      <point x="-2" y="631"/>
      <point x="0" y="619" type="curve" smooth="yes"/>
    </contour>
  </outline>
</glyph>
<glyph name="w" format="1">
  <advance width="1081"/>
  <unicode hex="0077"/>
  <outline>
    <contour>
      <point x="97" y="17" type="line"/>
      <point x="103" y="4"/>
      <point x="145" y="-5"/>
      <point x="197" y="-5" type="curve" smooth="yes"/>
      <point x="250" y="-5"/>
      <point x="294" y="4"/>
      <point x="304" y="17" type="curve"/>
      <point x="438" y="355" type="line"/>
      <point x="484" y="17" type="line"/>
      <point x="491" y="4"/>
      <point x="533" y="-5"/>
      <point x="585" y="-5" type="curve" smooth="yes"/>
      <point x="637" y="-5"/>
      <point x="682" y="4"/>
      <point x="691" y="17" type="curve"/>
      <point x="945" y="620" type="line" smooth="yes"/>
      <point x="950" y="633"/>
      <point x="913" y="648"/>
      <point x="862" y="654" type="curve" smooth="yes"/>
      <point x="811" y="660"/>
      <point x="766" y="654"/>
      <point x="760" y="642" type="curve"/>
      <point x="624" y="298" type="line"/>
      <point x="577" y="633" type="line"/>
      <point x="571" y="646"/>
      <point x="529" y="655"/>
      <point x="477" y="655" type="curve" smooth="yes"/>
      <point x="425" y="655"/>
      <point x="380" y="646"/>
      <point x="371" y="633" type="curve"/>
      <point x="237" y="298" type="line"/>
      <point x="190" y="642" type="line" smooth="yes"/>
      <point x="188" y="654"/>
      <point x="144" y="660"/>
      <point x="91" y="654" type="curve" smooth="yes"/>
      <point x="39" y="648"/>
      <point x="-2" y="633"/>
      <point x="0" y="620" type="curve" smooth="yes"/>
    </contour>
  </outline>
</glyph>
<glyph name="x" format="1">
  <advance width="829"/>
  <unicode hex="0078"/>
  <outline>
    <contour>
      <point x="329" y="186" type="line"/>
      <point x="425" y="14" type="line" smooth="yes"/>
      <point x="432" y="2"/>
      <point x="480" y="-7"/>
      <point x="532" y="-5" type="curve" smooth="yes"/>
      <point x="584" y="-3"/>
      <point x="621" y="10"/>
      <point x="613" y="23" type="curve" smooth="yes"/>
      <point x="443" y="325" type="line"/>
      <point x="692" y="627" type="line" smooth="yes"/>
      <point x="703" y="640"/>
      <point x="670" y="653"/>
      <point x="618" y="655" type="curve" smooth="yes"/>
      <point x="567" y="657"/>
      <point x="517" y="648"/>
      <point x="506" y="636" type="curve"/>
      <point x="365" y="464" type="line"/>
      <point x="269" y="636" type="line" smooth="yes"/>
      <point x="262" y="648"/>
      <point x="214" y="657"/>
      <point x="162" y="655" type="curve" smooth="yes"/>
      <point x="110" y="653"/>
      <point x="73" y="640"/>
      <point x="81" y="627" type="curve" smooth="yes"/>
      <point x="251" y="325" type="line"/>
      <point x="2" y="23" type="line" smooth="yes"/>
      <point x="-9" y="10"/>
      <point x="24" y="-3"/>
      <point x="76" y="-5" type="curve" smooth="yes"/>
      <point x="127" y="-7"/>
      <point x="178" y="2"/>
      <point x="188" y="14" type="curve" smooth="yes"/>
    </contour>
  </outline>
</glyph>
<glyph name="y" format="1">
  <advance width="788"/>
  <unicode hex="0079"/>
  <outline>
    <contour>
      <point x="1" y="-258" type="line" smooth="yes"/>
      <point x="-6" y="-270"/>
      <point x="29" y="-289"/>
      <point x="77" y="-301" type="curve" smooth="yes"/>
      <point x="126" y="-312"/>
      <point x="171" y="-311"/>
      <point x="178" y="-299" type="curve" smooth="yes"/>
      <point x="652" y="608" type="line"/>
      <point x="657" y="616"/>
      <point x="644" y="627"/>
      <point x="618" y="638" type="curve" smooth="yes"/>
      <point x="592" y="648"/>
      <point x="560" y="656"/>
      <point x="530" y="658" type="curve" smooth="yes"/>
      <point x="499" y="661"/>
      <point x="480" y="657"/>
      <point x="475" y="649" type="curve"/>
      <point x="314" y="341" type="line"/>
      <point x="233" y="649" type="line" smooth="yes"/>
      <point x="230" y="661"/>
      <point x="185" y="662"/>
      <point x="134" y="651" type="curve" smooth="yes"/>
      <point x="82" y="639"/>
      <point x="43" y="620"/>
      <point x="46" y="608" type="curve" smooth="yes"/>
      <point x="182" y="89" type="line"/>
    </contour>
  </outline>
</glyph>
<glyph name="z" format="1">
  <advance width="814"/>
  <unicode hex="007A"/>
  <outline>
    <contour>
      <point x="579" y="0" type="line" smooth="yes"/>
      <point x="593" y="0"/>
      <point x="609" y="39"/>
      <point x="616" y="88" type="curve" smooth="yes"/>
      <point x="622" y="136"/>
      <point x="616" y="176"/>
      <point x="602" y="176" type="curve" smooth="yes"/>
      <point x="287" y="176" type="line"/>
      <point x="643" y="460" type="line" smooth="yes"/>
      <point x="659" y="472"/>
      <point x="673" y="517"/>
      <point x="678" y="566" type="curve" smooth="yes"/>
      <point x="682" y="614"/>
      <point x="675" y="650"/>
      <point x="661" y="650" type="curve" smooth="yes"/>
      <point x="100" y="650" type="line" smooth="yes"/>
      <point x="86" y="650"/>
      <point x="70" y="611"/>
      <point x="63" y="562" type="curve" smooth="yes"/>
      <point x="57" y="514"/>
      <point x="63" y="474"/>
      <point x="77" y="474" type="curve" smooth="yes"/>
      <point x="392" y="474" type="line"/>
      <point x="36" y="190" type="line" smooth="yes"/>
      <point x="21" y="178"/>
      <point x="6" y="133"/>
      <point x="1" y="84" type="curve" smooth="yes"/>
      <point x="-3" y="36"/>
      <point x="4" y="0"/>
      <point x="18" y="0" type="curve" smooth="yes"/>
    </contour>
  </outline>
</glyph>
<glyph name="braceleft" format="1">
  <advance width="655"/>
  <unicode hex="007B"/>
  <outline>
    <contour>
      <point x="176" y="500" type="curve"/>
      <point x="238" y="529"/>
      <point x="291" y="580"/>
      <point x="300" y="655" type="curve" smooth="yes"/>
      <point x="321" y="812" type="line" smooth="yes"/>
      <point x="329" y="874"/>
      <point x="386" y="924"/>
      <point x="448" y="924" type="curve" smooth="yes"/>
      <point x="481" y="924"/>
      <point x="513" y="964"/>
      <point x="519" y="1012" type="curve" smooth="yes"/>
      <point x="525" y="1061"/>
      <point x="504" y="1100"/>
      <point x="471" y="1100" type="curve" smooth="yes"/>
      <point x="312" y="1100"/>
      <point x="188" y="958"/>
      <point x="169" y="812" type="curve" smooth="yes"/>
      <point x="148" y="655" type="line" smooth="yes"/>
      <point x="144" y="618"/>
      <point x="109" y="588"/>
      <point x="72" y="588" type="curve" smooth="yes"/>
      <point x="39" y="588"/>
      <point x="7" y="549"/>
      <point x="1" y="500" type="curve" smooth="yes"/>
      <point x="-5" y="451"/>
      <point x="16" y="412"/>
      <point x="49" y="412" type="curve" smooth="yes"/>
      <point x="87" y="412"/>
      <point x="113" y="382"/>
      <point x="108" y="345" type="curve" smooth="yes"/>
      <point x="88" y="188" type="line" smooth="yes"/>
      <point x="69" y="42"/>
      <point x="156" y="-100"/>
      <point x="315" y="-100" type="curve" smooth="yes"/>
      <point x="348" y="-100"/>
      <point x="379" y="-61"/>
      <point x="386" y="-12" type="curve" smooth="yes"/>
      <point x="392" y="36"/>
      <point x="371" y="76"/>
      <point x="338" y="76" type="curve" smooth="yes"/>
      <point x="275" y="76"/>
      <point x="232" y="126"/>
      <point x="240" y="188" type="curve" smooth="yes"/>
      <point x="260" y="345" type="line" smooth="yes"/>
      <point x="270" y="420"/>
      <point x="231" y="471"/>
    </contour>
  </outline>
</glyph>
<glyph name="bar" format="1">
  <advance width="469"/>
  <unicode hex="007C"/>
  <outline>
    <contour>
      <point x="333" y="1050" type="line" smooth="yes"/>
      <point x="337" y="1081"/>
      <point x="298" y="1105"/>
      <point x="245" y="1105" type="curve" smooth="yes"/>
      <point x="193" y="1105"/>
      <point x="147" y="1081"/>
      <point x="143" y="1050" type="curve" smooth="yes"/>
      <point x="0" y="-50" type="line" smooth="yes"/>
      <point x="-4" y="-81"/>
      <point x="36" y="-105"/>
      <point x="88" y="-105" type="curve" smooth="yes"/>
      <point x="141" y="-105"/>
      <point x="186" y="-81"/>
      <point x="190" y="-50" type="curve" smooth="yes"/>
    </contour>
  </outline>
</glyph>
<glyph name="braceright" format="1">
  <advance width="658"/>
  <unicode hex="007D"/>
  <outline>
    <contour>
      <point x="372" y="500" type="curve"/>
      <point x="295" y="467"/>
      <point x="229" y="403"/>
      <point x="217" y="311" type="curve" smooth="yes"/>
      <point x="205" y="222" type="line" smooth="yes"/>
      <point x="195" y="141"/>
      <point x="120" y="76"/>
      <point x="40" y="76" type="curve" smooth="yes"/>
      <point x="25" y="76"/>
      <point x="9" y="36"/>
      <point x="2" y="-12" type="curve" smooth="yes"/>
      <point x="-4" y="-61"/>
      <point x="3" y="-100"/>
      <point x="17" y="-100" type="curve" smooth="yes"/>
      <point x="195" y="-100"/>
      <point x="336" y="57"/>
      <point x="357" y="222" type="curve" smooth="yes"/>
      <point x="369" y="311" type="line" smooth="yes"/>
      <point x="376" y="367"/>
      <point x="427" y="412"/>
      <point x="483" y="412" type="curve" smooth="yes"/>
      <point x="497" y="412"/>
      <point x="514" y="451"/>
      <point x="520" y="500" type="curve" smooth="yes"/>
      <point x="527" y="549"/>
      <point x="520" y="588"/>
      <point x="506" y="588" type="curve" smooth="yes"/>
      <point x="450" y="588"/>
      <point x="411" y="633"/>
      <point x="418" y="689" type="curve" smooth="yes"/>
      <point x="429" y="778" type="line" smooth="yes"/>
      <point x="451" y="943"/>
      <point x="351" y="1100"/>
      <point x="173" y="1100" type="curve" smooth="yes"/>
      <point x="159" y="1100"/>
      <point x="142" y="1061"/>
      <point x="136" y="1012" type="curve" smooth="yes"/>
      <point x="129" y="964"/>
      <point x="136" y="924"/>
      <point x="150" y="924" type="curve" smooth="yes"/>
      <point x="231" y="924"/>
      <point x="288" y="859"/>
      <point x="277" y="778" type="curve" smooth="yes"/>
      <point x="266" y="689" type="line" smooth="yes"/>
      <point x="254" y="597"/>
      <point x="303" y="533"/>
    </contour>
  </outline>
</glyph>
<glyph name="asciitilde" format="1">
  <advance width="689"/>
  <unicode hex="007E"/>
  <outline>
    <contour>
      <point x="134" y="447" type="curve" smooth="yes"/>
      <point x="163" y="489"/>
      <point x="210" y="444"/>
      <point x="226" y="435" type="curve" smooth="yes"/>
      <point x="318" y="380"/>
      <point x="467" y="379"/>
      <point x="548" y="497" type="curve" smooth="yes"/>
      <point x="558" y="513"/>
      <point x="555" y="533"/>
      <point x="540" y="552" type="curve" smooth="yes"/>
      <point x="525" y="572"/>
      <point x="502" y="586"/>
      <point x="476" y="590" type="curve" smooth="yes"/>
      <point x="451" y="595"/>
      <point x="430" y="588"/>
      <point x="420" y="573" type="curve" smooth="yes"/>
      <point x="391" y="531"/>
      <point x="343" y="576"/>
      <point x="328" y="585" type="curve" smooth="yes"/>
      <point x="235" y="640"/>
      <point x="87" y="641"/>
      <point x="6" y="523" type="curve" smooth="yes"/>
      <point x="-10" y="500"/>
      <point x="6" y="464"/>
      <point x="42" y="443" type="curve" smooth="yes"/>
      <point x="77" y="422"/>
      <point x="118" y="424"/>
    </contour>
  </outline>
</glyph>
<glyph name="exclamdown" format="1">
  <advance width="464"/>
  <unicode hex="00A1"/>
  <outline>
    <contour>
      <point x="310" y="839" type="curve" smooth="yes"/>
      <point x="328" y="980" type="line" smooth="yes"/>
      <point x="330" y="994"/>
      <point x="286" y="1005"/>
      <point x="230" y="1005" type="curve" smooth="yes"/>
      <point x="174" y="1005"/>
      <point x="127" y="994"/>
      <point x="125" y="980" type="curve" smooth="yes"/>
      <point x="107" y="839" type="line" smooth="yes"/>
      <point x="105" y="825"/>
      <point x="149" y="814"/>
      <point x="205" y="814" type="curve" smooth="yes"/>
      <point x="261" y="814"/>
      <point x="308" y="825"/>
    </contour>
    <contour>
      <point x="203" y="20" type="curve" smooth="yes"/>
      <point x="273" y="662" type="line"/>
      <point x="275" y="674"/>
      <point x="237" y="684"/>
      <point x="188" y="684" type="curve" smooth="yes"/>
      <point x="139" y="684"/>
      <point x="98" y="674"/>
      <point x="97" y="662" type="curve"/>
      <point x="0" y="20" type="line" smooth="yes"/>
      <point x="-2" y="6"/>
      <point x="42" y="-5"/>
      <point x="98" y="-5" type="curve" smooth="yes"/>
      <point x="155" y="-5"/>
      <point x="202" y="6"/>
    </contour>
  </outline>
</glyph>
<glyph name="dieresis" format="1">
  <advance width="681"/>
  <unicode hex="00A8"/>
  <outline>
    <contour>
      <point x="199" y="950" type="line" smooth="yes"/>
      <point x="203" y="981"/>
      <point x="163" y="1005"/>
      <point x="111" y="1005" type="curve" smooth="yes"/>
      <point x="58" y="1005"/>
      <point x="13" y="981"/>
      <point x="9" y="950" type="curve" smooth="yes"/>
      <point x="0" y="885" type="line" smooth="yes"/>
      <point x="-4" y="854"/>
      <point x="36" y="830"/>
      <point x="88" y="830" type="curve" smooth="yes"/>
      <point x="141" y="830"/>
      <point x="186" y="854"/>
      <point x="190" y="885" type="curve" smooth="yes"/>
    </contour>
    <contour>
      <point x="546" y="950" type="line" smooth="yes"/>
      <point x="549" y="981"/>
      <point x="510" y="1005"/>
      <point x="458" y="1005" type="curve" smooth="yes"/>
      <point x="405" y="1005"/>
      <point x="359" y="981"/>
      <point x="356" y="950" type="curve" smooth="yes"/>
      <point x="347" y="885" type="line" smooth="yes"/>
      <point x="343" y="854"/>
      <point x="382" y="830"/>
      <point x="435" y="830" type="curve" smooth="yes"/>
      <point x="487" y="830"/>
      <point x="533" y="854"/>
      <point x="537" y="885" type="curve" smooth="yes"/>
    </contour>
  </outline>
</glyph>
<glyph name="macron" format="1">
  <advance width="640"/>
  <unicode hex="00AF"/>
  <outline>
    <contour>
      <point x="465" y="799" type="line" smooth="yes"/>
      <point x="480" y="799"/>
      <point x="496" y="839"/>
      <point x="502" y="887" type="curve" smooth="yes"/>
      <point x="509" y="936"/>
      <point x="502" y="975"/>
      <point x="488" y="975" type="curve" smooth="yes"/>
      <point x="40" y="975" type="line" smooth="yes"/>
      <point x="25" y="975"/>
      <point x="9" y="936"/>
      <point x="2" y="887" type="curve" smooth="yes"/>
      <point x="-4" y="839"/>
      <point x="3" y="799"/>
      <point x="17" y="799" type="curve" smooth="yes"/>
    </contour>
  </outline>
</glyph>
<glyph name="acute" format="1">
  <advance width="423"/>
  <unicode hex="00B4"/>
  <outline>
    <contour>
      <point x="163" y="994" type="curve" smooth="yes"/>
      <point x="10" y="844" type="line" smooth="yes"/>
      <point x="-5" y="829"/>
      <point x="-3" y="798"/>
      <point x="15" y="772" type="curve" smooth="yes"/>
      <point x="33" y="746"/>
      <point x="61" y="734"/>
      <point x="79" y="745" type="curve" smooth="yes"/>
      <point x="265" y="848" type="line" smooth="yes"/>
      <point x="285" y="859"/>
      <point x="292" y="884"/>
      <point x="285" y="915" type="curve" smooth="yes"/>
      <point x="277" y="947"/>
      <point x="258" y="975"/>
      <point x="231" y="992" type="curve" smooth="yes"/>
      <point x="205" y="1009"/>
      <point x="179" y="1010"/>
    </contour>
  </outline>
</glyph>
<glyph name="periodcentered" format="1">
  <advance width="356"/>
  <unicode hex="00B7"/>
  <outline>
    <contour>
      <point x="220" y="542" type="line" smooth="yes"/>
      <point x="224" y="575"/>
      <point x="181" y="602"/>
      <point x="123" y="602" type="curve" smooth="yes"/>
      <point x="66" y="602"/>
      <point x="15" y="575"/>
      <point x="11" y="542" type="curve" smooth="yes"/>
      <point x="0" y="458" type="line" smooth="yes"/>
      <point x="-4" y="425"/>
      <point x="39" y="398"/>
      <point x="97" y="398" type="curve" smooth="yes"/>
      <point x="155" y="398"/>
      <point x="205" y="425"/>
      <point x="209" y="458" type="curve" smooth="yes"/>
    </contour>
  </outline>
</glyph>
<glyph name="Agrave" format="1">
  <advance width="993"/>
  <unicode hex="00C0"/>
  <outline>
    <contour>
      <point x="367" y="408" type="line"/>
      <point x="515" y="711" type="line"/>
      <point x="584" y="408" type="line"/>
    </contour>
    <contour>
      <point x="668" y="39" type="line" smooth="yes"/>
      <point x="675" y="9"/>
      <point x="723" y="-10"/>
      <point x="775" y="-4" type="curve" smooth="yes"/>
      <point x="827" y="2"/>
      <point x="864" y="31"/>
      <point x="857" y="61" type="curve" smooth="yes"/>
      <point x="654" y="955" type="line" smooth="yes"/>
      <point x="647" y="985"/>
      <point x="606" y="1005"/>
      <point x="553" y="1005" type="curve" smooth="yes"/>
      <point x="501" y="1005"/>
      <point x="454" y="985"/>
      <point x="440" y="955" type="curve" smooth="yes"/>
      <point x="4" y="61" type="line" smooth="yes"/>
      <point x="-11" y="31"/>
      <point x="18" y="2"/>
      <point x="69" y="-4" type="curve" smooth="yes"/>
      <point x="120" y="-10"/>
      <point x="172" y="9"/>
      <point x="187" y="39" type="curve" smooth="yes"/>
      <point x="281" y="232" type="line"/>
      <point x="624" y="232" type="line"/>
    </contour>
    <contour>
      <point x="362" y="1334" type="line" smooth="yes"/>
      <point x="347" y="1350"/>
      <point x="322" y="1350"/>
      <point x="293" y="1333" type="curve" smooth="yes"/>
      <point x="264" y="1316"/>
      <point x="241" y="1287"/>
      <point x="230" y="1256" type="curve" smooth="yes"/>
      <point x="218" y="1224"/>
      <point x="222" y="1199"/>
      <point x="241" y="1188" type="curve" smooth="yes"/>
      <point x="413" y="1085" type="line" smooth="yes"/>
      <point x="430" y="1075"/>
      <point x="459" y="1087"/>
      <point x="480" y="1113" type="curve" smooth="yes"/>
      <point x="502" y="1139"/>
      <point x="508" y="1170"/>
      <point x="495" y="1184" type="curve" smooth="yes"/>
    </contour>
  </outline>
</glyph>
<glyph name="Aacute" format="1">
  <advance width="993"/>
  <unicode hex="00C1"/>
  <outline>
    <contour>
      <point x="367" y="408" type="line"/>
      <point x="515" y="711" type="line"/>
      <point x="584" y="408" type="line"/>
    </contour>
    <contour>
      <point x="668" y="39" type="line" smooth="yes"/>
      <point x="675" y="9"/>
      <point x="723" y="-10"/>
      <point x="775" y="-4" type="curve" smooth="yes"/>
      <point x="827" y="2"/>
      <point x="864" y="31"/>
      <point x="857" y="61" type="curve" smooth="yes"/>
      <point x="654" y="955" type="line" smooth="yes"/>
      <point x="647" y="985"/>
      <point x="606" y="1005"/>
      <point x="553" y="1005" type="curve" smooth="yes"/>
      <point x="501" y="1005"/>
      <point x="454" y="985"/>
      <point x="440" y="955" type="curve" smooth="yes"/>
      <point x="4" y="61" type="line" smooth="yes"/>
      <point x="-11" y="31"/>
      <point x="18" y="2"/>
      <point x="69" y="-4" type="curve" smooth="yes"/>
      <point x="120" y="-10"/>
      <point x="172" y="9"/>
      <point x="187" y="39" type="curve" smooth="yes"/>
      <point x="281" y="232" type="line"/>
      <point x="624" y="232" type="line"/>
    </contour>
    <contour>
      <point x="492" y="1334" type="curve" smooth="yes"/>
      <point x="358" y="1184" type="line" smooth="yes"/>
      <point x="345" y="1170"/>
      <point x="351" y="1139"/>
      <point x="373" y="1113" type="curve" smooth="yes"/>
      <point x="394" y="1087"/>
      <point x="423" y="1075"/>
      <point x="440" y="1085" type="curve" smooth="yes"/>
      <point x="612" y="1188" type="line" smooth="yes"/>
      <point x="631" y="1199"/>
      <point x="635" y="1224"/>
      <point x="624" y="1256" type="curve" smooth="yes"/>
      <point x="612" y="1287"/>
      <point x="589" y="1316"/>
      <point x="560" y="1333" type="curve" smooth="yes"/>
      <point x="531" y="1350"/>
      <point x="506" y="1350"/>
    </contour>
  </outline>
</glyph>
<glyph name="Acircumflex" format="1">
  <advance width="993"/>
  <unicode hex="00C2"/>
  <outline>
    <contour>
      <point x="371" y="408" type="line"/>
      <point x="522" y="735" type="line"/>
      <point x="588" y="408" type="line"/>
    </contour>
    <contour>
      <point x="668" y="17" type="line"/>
      <point x="670" y="3"/>
      <point x="715" y="-6"/>
      <point x="767" y="-5" type="curve" smooth="yes"/>
      <point x="820" y="-4"/>
      <point x="860" y="7"/>
      <point x="857" y="20" type="curve" smooth="yes"/>
      <point x="663" y="980" type="line" smooth="yes"/>
      <point x="660" y="994"/>
      <point x="614" y="1005"/>
      <point x="557" y="1005" type="curve" smooth="yes"/>
      <point x="500" y="1005"/>
      <point x="452" y="994"/>
      <point x="445" y="980" type="curve" smooth="yes"/>
      <point x="1" y="20" type="line" smooth="yes"/>
      <point x="-3" y="12"/>
      <point x="10" y="4"/>
      <point x="38" y="-1" type="curve" smooth="yes"/>
      <point x="66" y="-6"/>
      <point x="101" y="-7"/>
      <point x="133" y="-3" type="curve" smooth="yes"/>
      <point x="165" y="1"/>
      <point x="185" y="8"/>
      <point x="190" y="17" type="curve"/>
      <point x="289" y="232" type="line"/>
      <point x="624" y="232" type="line"/>
    </contour>
    <contour>
      <point x="352" y="1187" type="line" smooth="yes"/>
      <point x="348" y="1183"/>
      <point x="349" y="1177"/>
      <point x="354" y="1167" type="curve"/>
      <point x="368" y="1143"/>
      <point x="409" y="1109"/>
      <point x="446" y="1092" type="curve" smooth="yes"/>
      <point x="468" y="1082"/>
      <point x="484" y="1080"/>
      <point x="490" y="1086" type="curve" smooth="yes"/>
      <point x="581" y="1184" type="line"/>
      <point x="647" y="1086" type="line" smooth="yes"/>
      <point x="651" y="1080"/>
      <point x="667" y="1082"/>
      <point x="693" y="1092" type="curve" smooth="yes"/>
      <point x="734" y="1109"/>
      <point x="784" y="1143"/>
      <point x="804" y="1167" type="curve" smooth="yes"/>
      <point x="812" y="1177"/>
      <point x="814" y="1183"/>
      <point x="811" y="1187" type="curve"/>
      <point x="708" y="1340" type="line" smooth="yes"/>
      <point x="700" y="1353"/>
      <point x="657" y="1362"/>
      <point x="604" y="1362" type="curve" smooth="yes"/>
      <point x="551" y="1362"/>
      <point x="506" y="1353"/>
      <point x="494" y="1340" type="curve" smooth="yes"/>
    </contour>
  </outline>
</glyph>
<glyph name="Atilde" format="1">
  <advance width="993"/>
  <unicode hex="00C3"/>
  <outline>
    <contour>
      <point x="371" y="408" type="line"/>
      <point x="522" y="735" type="line"/>
      <point x="588" y="408" type="line"/>
    </contour>
    <contour>
      <point x="668" y="17" type="line"/>
      <point x="670" y="3"/>
      <point x="715" y="-6"/>
      <point x="767" y="-5" type="curve" smooth="yes"/>
      <point x="820" y="-4"/>
      <point x="860" y="7"/>
      <point x="857" y="20" type="curve" smooth="yes"/>
      <point x="663" y="980" type="line" smooth="yes"/>
      <point x="660" y="994"/>
      <point x="614" y="1005"/>
      <point x="557" y="1005" type="curve" smooth="yes"/>
      <point x="500" y="1005"/>
      <point x="452" y="994"/>
      <point x="445" y="980" type="curve" smooth="yes"/>
      <point x="1" y="20" type="line" smooth="yes"/>
      <point x="-3" y="12"/>
      <point x="10" y="4"/>
      <point x="38" y="-1" type="curve" smooth="yes"/>
      <point x="66" y="-6"/>
      <point x="101" y="-7"/>
      <point x="133" y="-3" type="curve" smooth="yes"/>
      <point x="165" y="1"/>
      <point x="185" y="8"/>
      <point x="190" y="17" type="curve"/>
      <point x="289" y="232" type="line"/>
      <point x="624" y="232" type="line"/>
    </contour>
    <contour>
      <point x="462" y="1137" type="curve" smooth="yes"/>
      <point x="487" y="1173"/>
      <point x="527" y="1136"/>
      <point x="541" y="1128" type="curve" smooth="yes"/>
      <point x="616" y="1083"/>
      <point x="737" y="1080"/>
      <point x="803" y="1177" type="curve" smooth="yes"/>
      <point x="807" y="1183"/>
      <point x="801" y="1193"/>
      <point x="786" y="1205" type="curve" smooth="yes"/>
      <point x="772" y="1217"/>
      <point x="753" y="1228"/>
      <point x="735" y="1235" type="curve" smooth="yes"/>
      <point x="717" y="1242"/>
      <point x="704" y="1243"/>
      <point x="701" y="1238" type="curve"/>
      <point x="676" y="1202"/>
      <point x="636" y="1240"/>
      <point x="622" y="1248" type="curve" smooth="yes"/>
      <point x="547" y="1292"/>
      <point x="426" y="1295"/>
      <point x="360" y="1198" type="curve" smooth="yes"/>
      <point x="354" y="1190"/>
      <point x="373" y="1170"/>
      <point x="401" y="1153" type="curve" smooth="yes"/>
      <point x="430" y="1136"/>
      <point x="457" y="1129"/>
    </contour>
  </outline>
</glyph>
<glyph name="Adieresis" format="1">
  <advance width="993"/>
  <unicode hex="00C4"/>
  <outline>
    <contour>
      <point x="367" y="408" type="line"/>
      <point x="515" y="711" type="line"/>
      <point x="584" y="408" type="line"/>
    </contour>
    <contour>
      <point x="668" y="39" type="line" smooth="yes"/>
      <point x="675" y="9"/>
      <point x="723" y="-10"/>
      <point x="775" y="-4" type="curve" smooth="yes"/>
      <point x="827" y="2"/>
      <point x="864" y="31"/>
      <point x="857" y="61" type="curve" smooth="yes"/>
      <point x="654" y="955" type="line" smooth="yes"/>
      <point x="647" y="985"/>
      <point x="606" y="1005"/>
      <point x="553" y="1005" type="curve" smooth="yes"/>
      <point x="501" y="1005"/>
      <point x="454" y="985"/>
      <point x="440" y="955" type="curve" smooth="yes"/>
      <point x="4" y="61" type="line" smooth="yes"/>
      <point x="-11" y="31"/>
      <point x="18" y="2"/>
      <point x="69" y="-4" type="curve" smooth="yes"/>
      <point x="120" y="-10"/>
      <point x="172" y="9"/>
      <point x="187" y="39" type="curve" smooth="yes"/>
      <point x="281" y="232" type="line"/>
      <point x="624" y="232" type="line"/>
    </contour>
    <contour>
      <point x="348" y="1196" type="line" smooth="yes"/>
      <point x="348" y="1226"/>
      <point x="306" y="1251"/>
      <point x="253" y="1251" type="curve" smooth="yes"/>
      <point x="201" y="1251"/>
      <point x="158" y="1226"/>
      <point x="158" y="1196" type="curve" smooth="yes"/>
      <point x="158" y="1130" type="line" smooth="yes"/>
      <point x="158" y="1100"/>
      <point x="201" y="1075"/>
      <point x="253" y="1075" type="curve" smooth="yes"/>
      <point x="306" y="1075"/>
      <point x="348" y="1100"/>
      <point x="348" y="1130" type="curve" smooth="yes"/>
    </contour>
    <contour>
      <point x="695" y="1196" type="line" smooth="yes"/>
      <point x="695" y="1226"/>
      <point x="652" y="1251"/>
      <point x="600" y="1251" type="curve" smooth="yes"/>
      <point x="547" y="1251"/>
      <point x="505" y="1226"/>
      <point x="505" y="1196" type="curve" smooth="yes"/>
      <point x="505" y="1130" type="line" smooth="yes"/>
      <point x="505" y="1100"/>
      <point x="547" y="1075"/>
      <point x="600" y="1075" type="curve" smooth="yes"/>
      <point x="652" y="1075"/>
      <point x="695" y="1100"/>
      <point x="695" y="1130" type="curve" smooth="yes"/>
    </contour>
  </outline>
</glyph>
<glyph name="Aring" format="1">
  <advance width="993"/>
  <unicode hex="00C5"/>
  <outline>
    <contour>
      <point x="367" y="408" type="line"/>
      <point x="515" y="711" type="line"/>
      <point x="584" y="408" type="line"/>
    </contour>
    <contour>
      <point x="668" y="39" type="line" smooth="yes"/>
      <point x="675" y="9"/>
      <point x="723" y="-10"/>
      <point x="775" y="-4" type="curve" smooth="yes"/>
      <point x="827" y="2"/>
      <point x="864" y="31"/>
      <point x="857" y="61" type="curve" smooth="yes"/>
      <point x="654" y="955" type="line" smooth="yes"/>
      <point x="647" y="985"/>
      <point x="606" y="1005"/>
      <point x="553" y="1005" type="curve" smooth="yes"/>
      <point x="501" y="1005"/>
      <point x="454" y="985"/>
      <point x="440" y="955" type="curve" smooth="yes"/>
      <point x="4" y="61" type="line" smooth="yes"/>
      <point x="-11" y="31"/>
      <point x="18" y="2"/>
      <point x="69" y="-4" type="curve" smooth="yes"/>
      <point x="120" y="-10"/>
      <point x="172" y="9"/>
      <point x="187" y="39" type="curve" smooth="yes"/>
      <point x="281" y="232" type="line"/>
      <point x="624" y="232" type="line"/>
    </contour>
    <contour>
      <point x="347" y="1286" type="curve" smooth="yes"/>
      <point x="347" y="1330"/>
      <point x="383" y="1365"/>
      <point x="427" y="1365" type="curve" smooth="yes"/>
      <point x="470" y="1365"/>
      <point x="506" y="1330"/>
      <point x="506" y="1286" type="curve" smooth="yes"/>
      <point x="506" y="1242"/>
      <point x="470" y="1207"/>
      <point x="427" y="1207" type="curve" smooth="yes"/>
      <point x="383" y="1207"/>
      <point x="347" y="1242"/>
    </contour>
    <contour>
      <point x="199" y="1286" type="curve" smooth="yes"/>
      <point x="199" y="1169"/>
      <point x="301" y="1075"/>
      <point x="427" y="1075" type="curve" smooth="yes"/>
      <point x="552" y="1075"/>
      <point x="655" y="1169"/>
      <point x="655" y="1286" type="curve" smooth="yes"/>
      <point x="655" y="1402"/>
      <point x="552" y="1497"/>
      <point x="427" y="1497" type="curve" smooth="yes"/>
      <point x="301" y="1497"/>
      <point x="199" y="1402"/>
    </contour>
  </outline>
</glyph>
<glyph name="Egrave" format="1">
  <advance width="880"/>
  <unicode hex="00C8"/>
  <outline>
    <contour>
      <point x="598" y="0" type="line" smooth="yes"/>
      <point x="612" y="0"/>
      <point x="629" y="39"/>
      <point x="635" y="88" type="curve" smooth="yes"/>
      <point x="641" y="136"/>
      <point x="635" y="176"/>
      <point x="621" y="176" type="curve" smooth="yes"/>
      <point x="209" y="176" type="line"/>
      <point x="241" y="422" type="line"/>
      <point x="468" y="422" type="line" smooth="yes"/>
      <point x="483" y="422"/>
      <point x="499" y="461"/>
      <point x="506" y="510" type="curve" smooth="yes"/>
      <point x="512" y="559"/>
      <point x="506" y="598"/>
      <point x="491" y="598" type="curve" smooth="yes"/>
      <point x="264" y="598" type="line"/>
      <point x="294" y="824" type="line"/>
      <point x="705" y="824" type="line" smooth="yes"/>
      <point x="719" y="824"/>
      <point x="736" y="864"/>
      <point x="742" y="912" type="curve" smooth="yes"/>
      <point x="749" y="961"/>
      <point x="742" y="1000"/>
      <point x="728" y="1000" type="curve" smooth="yes"/>
      <point x="236" y="1000" type="line" smooth="yes"/>
      <point x="175" y="1000"/>
      <point x="125" y="988"/>
      <point x="123" y="973" type="curve" smooth="yes"/>
      <point x="0" y="27" type="line" smooth="yes"/>
      <point x="-2" y="12"/>
      <point x="45" y="0"/>
      <point x="106" y="0" type="curve" smooth="yes"/>
    </contour>
    <contour>
      <point x="411" y="1330" type="line"/>
      <point x="405" y="1336"/>
      <point x="388" y="1328"/>
      <point x="362" y="1308" type="curve" smooth="yes"/>
      <point x="336" y="1287"/>
      <point x="310" y="1259"/>
      <point x="290" y="1233" type="curve" smooth="yes"/>
      <point x="270" y="1206"/>
      <point x="263" y="1188"/>
      <point x="270" y="1183" type="curve" smooth="yes"/>
      <point x="430" y="1080" type="line" smooth="yes"/>
      <point x="437" y="1075"/>
      <point x="463" y="1093"/>
      <point x="489" y="1119" type="curve" smooth="yes"/>
      <point x="514" y="1146"/>
      <point x="530" y="1172"/>
      <point x="525" y="1179" type="curve" smooth="yes"/>
    </contour>
  </outline>
</glyph>
<glyph name="Eacute" format="1">
  <advance width="874"/>
  <unicode hex="00C9"/>
  <outline>
    <contour>
      <point x="560" y="0" type="line" smooth="yes"/>
      <point x="593" y="0"/>
      <point x="624" y="39"/>
      <point x="631" y="88" type="curve" smooth="yes"/>
      <point x="637" y="136"/>
      <point x="615" y="176"/>
      <point x="583" y="176" type="curve" smooth="yes"/>
      <point x="205" y="176" type="line"/>
      <point x="237" y="422" type="line"/>
      <point x="464" y="422" type="line" smooth="yes"/>
      <point x="497" y="422"/>
      <point x="529" y="461"/>
      <point x="535" y="510" type="curve" smooth="yes"/>
      <point x="541" y="559"/>
      <point x="520" y="598"/>
      <point x="487" y="598" type="curve" smooth="yes"/>
      <point x="260" y="598" type="line"/>
      <point x="289" y="824" type="line"/>
      <point x="667" y="824" type="line" smooth="yes"/>
      <point x="700" y="824"/>
      <point x="732" y="864"/>
      <point x="738" y="912" type="curve" smooth="yes"/>
      <point x="744" y="961"/>
      <point x="723" y="1000"/>
      <point x="690" y="1000" type="curve" smooth="yes"/>
      <point x="231" y="1000" type="line" smooth="yes"/>
      <point x="171" y="1000"/>
      <point x="118" y="972"/>
      <point x="114" y="937" type="curve" smooth="yes"/>
      <point x="0" y="63" type="line" smooth="yes"/>
      <point x="-4" y="28"/>
      <point x="41" y="0"/>
      <point x="101" y="0" type="curve" smooth="yes"/>
    </contour>
    <contour>
      <point x="435" y="1334" type="curve" smooth="yes"/>
      <point x="301" y="1184" type="line" smooth="yes"/>
      <point x="288" y="1170"/>
      <point x="295" y="1139"/>
      <point x="316" y="1113" type="curve" smooth="yes"/>
      <point x="338" y="1087"/>
      <point x="367" y="1075"/>
      <point x="383" y="1085" type="curve" smooth="yes"/>
      <point x="556" y="1188" type="line" smooth="yes"/>
      <point x="574" y="1199"/>
      <point x="578" y="1224"/>
      <point x="567" y="1256" type="curve" smooth="yes"/>
      <point x="556" y="1287"/>
      <point x="532" y="1316"/>
      <point x="503" y="1333" type="curve" smooth="yes"/>
      <point x="475" y="1350"/>
      <point x="449" y="1350"/>
    </contour>
  </outline>
</glyph>
<glyph name="Ecircumflex" format="1">
  <advance width="880"/>
  <unicode hex="00CA"/>
  <outline>
    <contour>
      <point x="598" y="0" type="line" smooth="yes"/>
      <point x="612" y="0"/>
      <point x="629" y="39"/>
      <point x="635" y="88" type="curve" smooth="yes"/>
      <point x="641" y="136"/>
      <point x="635" y="176"/>
      <point x="621" y="176" type="curve" smooth="yes"/>
      <point x="209" y="176" type="line"/>
      <point x="241" y="422" type="line"/>
      <point x="468" y="422" type="line" smooth="yes"/>
      <point x="483" y="422"/>
      <point x="499" y="461"/>
      <point x="506" y="510" type="curve" smooth="yes"/>
      <point x="512" y="559"/>
      <point x="506" y="598"/>
      <point x="491" y="598" type="curve" smooth="yes"/>
      <point x="264" y="598" type="line"/>
      <point x="294" y="824" type="line"/>
      <point x="705" y="824" type="line" smooth="yes"/>
      <point x="719" y="824"/>
      <point x="736" y="864"/>
      <point x="742" y="912" type="curve" smooth="yes"/>
      <point x="749" y="961"/>
      <point x="742" y="1000"/>
      <point x="728" y="1000" type="curve" smooth="yes"/>
      <point x="236" y="1000" type="line" smooth="yes"/>
      <point x="175" y="1000"/>
      <point x="125" y="988"/>
      <point x="123" y="973" type="curve" smooth="yes"/>
      <point x="0" y="27" type="line" smooth="yes"/>
      <point x="-2" y="12"/>
      <point x="45" y="0"/>
      <point x="106" y="0" type="curve" smooth="yes"/>
    </contour>
    <contour>
      <point x="234" y="1182" type="line" smooth="yes"/>
      <point x="230" y="1178"/>
      <point x="231" y="1171"/>
      <point x="236" y="1162" type="curve" smooth="yes"/>
      <point x="250" y="1138"/>
      <point x="291" y="1104"/>
      <point x="328" y="1087" type="curve" smooth="yes"/>
      <point x="351" y="1077"/>
      <point x="367" y="1075"/>
      <point x="372" y="1081" type="curve"/>
      <point x="463" y="1179" type="line"/>
      <point x="529" y="1081" type="line" smooth="yes"/>
      <point x="533" y="1075"/>
      <point x="549" y="1077"/>
      <point x="575" y="1087" type="curve" smooth="yes"/>
      <point x="616" y="1104"/>
      <point x="666" y="1138"/>
      <point x="686" y="1162" type="curve" smooth="yes"/>
      <point x="694" y="1171"/>
      <point x="696" y="1178"/>
      <point x="694" y="1182" type="curve"/>
      <point x="591" y="1335" type="line"/>
      <point x="582" y="1347"/>
      <point x="539" y="1357"/>
      <point x="486" y="1357" type="curve" smooth="yes"/>
      <point x="434" y="1357"/>
      <point x="388" y="1347"/>
      <point x="377" y="1335" type="curve" smooth="yes"/>
    </contour>
  </outline>
</glyph>
<glyph name="Edieresis" format="1">
  <advance width="880"/>
  <unicode hex="00CB"/>
  <outline>
    <contour>
      <point x="598" y="0" type="line" smooth="yes"/>
      <point x="612" y="0"/>
      <point x="629" y="39"/>
      <point x="635" y="88" type="curve" smooth="yes"/>
      <point x="641" y="136"/>
      <point x="635" y="176"/>
      <point x="621" y="176" type="curve" smooth="yes"/>
      <point x="209" y="176" type="line"/>
      <point x="241" y="422" type="line"/>
      <point x="468" y="422" type="line" smooth="yes"/>
      <point x="483" y="422"/>
      <point x="499" y="461"/>
      <point x="506" y="510" type="curve" smooth="yes"/>
      <point x="512" y="559"/>
      <point x="506" y="598"/>
      <point x="491" y="598" type="curve" smooth="yes"/>
      <point x="264" y="598" type="line"/>
      <point x="294" y="824" type="line"/>
      <point x="705" y="824" type="line" smooth="yes"/>
      <point x="719" y="824"/>
      <point x="736" y="864"/>
      <point x="742" y="912" type="curve" smooth="yes"/>
      <point x="749" y="961"/>
      <point x="742" y="1000"/>
      <point x="728" y="1000" type="curve" smooth="yes"/>
      <point x="236" y="1000" type="line" smooth="yes"/>
      <point x="175" y="1000"/>
      <point x="125" y="988"/>
      <point x="123" y="973" type="curve" smooth="yes"/>
      <point x="0" y="27" type="line" smooth="yes"/>
      <point x="-2" y="12"/>
      <point x="45" y="0"/>
      <point x="106" y="0" type="curve" smooth="yes"/>
    </contour>
    <contour>
      <point x="391" y="1227" type="line" smooth="yes"/>
      <point x="393" y="1240"/>
      <point x="352" y="1251"/>
      <point x="299" y="1251" type="curve" smooth="yes"/>
      <point x="247" y="1251"/>
      <point x="203" y="1240"/>
      <point x="201" y="1227" type="curve" smooth="yes"/>
      <point x="185" y="1099" type="line" smooth="yes"/>
      <point x="183" y="1086"/>
      <point x="224" y="1075"/>
      <point x="276" y="1075" type="curve" smooth="yes"/>
      <point x="329" y="1075"/>
      <point x="373" y="1086"/>
      <point x="375" y="1099" type="curve" smooth="yes"/>
    </contour>
    <contour>
      <point x="738" y="1227" type="line" smooth="yes"/>
      <point x="740" y="1240"/>
      <point x="699" y="1251"/>
      <point x="646" y="1251" type="curve" smooth="yes"/>
      <point x="594" y="1251"/>
      <point x="550" y="1240"/>
      <point x="548" y="1227" type="curve" smooth="yes"/>
      <point x="531" y="1099" type="line"/>
      <point x="530" y="1086"/>
      <point x="571" y="1075"/>
      <point x="623" y="1075" type="curve" smooth="yes"/>
      <point x="676" y="1075"/>
      <point x="720" y="1086"/>
      <point x="721" y="1099" type="curve"/>
    </contour>
  </outline>
</glyph>
<glyph name="Igrave" format="1">
  <advance width="443"/>
  <unicode hex="00CC"/>
  <outline>
    <contour>
      <point x="307" y="950" type="line" smooth="yes"/>
      <point x="311" y="981"/>
      <point x="272" y="1005"/>
      <point x="219" y="1005" type="curve" smooth="yes"/>
      <point x="167" y="1005"/>
      <point x="121" y="981"/>
      <point x="117" y="950" type="curve" smooth="yes"/>
      <point x="0" y="50" type="line" smooth="yes"/>
      <point x="-4" y="19"/>
      <point x="36" y="-5"/>
      <point x="88" y="-5" type="curve" smooth="yes"/>
      <point x="141" y="-5"/>
      <point x="186" y="19"/>
      <point x="190" y="50" type="curve" smooth="yes"/>
    </contour>
    <contour>
      <point x="89" y="1334" type="line" smooth="yes"/>
      <point x="74" y="1350"/>
      <point x="49" y="1350"/>
      <point x="20" y="1333" type="curve" smooth="yes"/>
      <point x="-8" y="1316"/>
      <point x="-32" y="1287"/>
      <point x="-43" y="1256" type="curve" smooth="yes"/>
      <point x="-55" y="1224"/>
      <point x="-50" y="1199"/>
      <point x="-32" y="1188" type="curve" smooth="yes"/>
      <point x="140" y="1085" type="line" smooth="yes"/>
      <point x="157" y="1075"/>
      <point x="186" y="1087"/>
      <point x="208" y="1113" type="curve" smooth="yes"/>
      <point x="229" y="1139"/>
      <point x="235" y="1170"/>
      <point x="222" y="1184" type="curve" smooth="yes"/>
    </contour>
  </outline>
</glyph>
<glyph name="Iacute" format="1">
  <advance width="443"/>
  <unicode hex="00CD"/>
  <outline>
    <contour>
      <point x="307" y="950" type="line" smooth="yes"/>
      <point x="311" y="981"/>
      <point x="272" y="1005"/>
      <point x="219" y="1005" type="curve" smooth="yes"/>
      <point x="167" y="1005"/>
      <point x="121" y="981"/>
      <point x="117" y="950" type="curve" smooth="yes"/>
      <point x="0" y="50" type="line" smooth="yes"/>
      <point x="-4" y="19"/>
      <point x="36" y="-5"/>
      <point x="88" y="-5" type="curve" smooth="yes"/>
      <point x="141" y="-5"/>
      <point x="186" y="19"/>
      <point x="190" y="50" type="curve" smooth="yes"/>
    </contour>
    <contour>
      <point x="219" y="1334" type="curve" smooth="yes"/>
      <point x="85" y="1184" type="line" smooth="yes"/>
      <point x="72" y="1170"/>
      <point x="78" y="1139"/>
      <point x="100" y="1113" type="curve" smooth="yes"/>
      <point x="121" y="1087"/>
      <point x="150" y="1075"/>
      <point x="167" y="1085" type="curve" smooth="yes"/>
      <point x="339" y="1188" type="line" smooth="yes"/>
      <point x="358" y="1199"/>
      <point x="362" y="1224"/>
      <point x="351" y="1256" type="curve" smooth="yes"/>
      <point x="339" y="1287"/>
      <point x="316" y="1316"/>
      <point x="287" y="1333" type="curve" smooth="yes"/>
      <point x="258" y="1350"/>
      <point x="233" y="1350"/>
    </contour>
  </outline>
</glyph>
